<?xml version="1.0" encoding="UTF-8" standalone="no"?>
<svg
   xmlns:dc="http://purl.org/dc/elements/1.1/"
   xmlns:cc="http://creativecommons.org/ns#"
   xmlns:rdf="http://www.w3.org/1999/02/22-rdf-syntax-ns#"
   xmlns:svg="http://www.w3.org/2000/svg"
   xmlns="http://www.w3.org/2000/svg"
   xmlns:sodipodi="http://sodipodi.sourceforge.net/DTD/sodipodi-0.dtd"
   xmlns:inkscape="http://www.inkscape.org/namespaces/inkscape"
   version="1.1"
   id="svg2"
   xml:space="preserve"
   width="5333.3335"
   height="5333.3335"
   viewBox="0 0 5333.3335 5333.3335"
   sodipodi:docname="cute-burger-holding-knife-and-fork-cartoon-fast-food-icon-concept-isolated-flat-cartoon-style.eps"><metadata
     id="metadata8"><rdf:RDF><cc:Work
         rdf:about=""><dc:format>image/svg+xml</dc:format><dc:type
           rdf:resource="http://purl.org/dc/dcmitype/StillImage" /></cc:Work></rdf:RDF></metadata><defs
     id="defs6" /><sodipodi:namedview
     pagecolor="#ffffff"
     bordercolor="#666666"
     borderopacity="1"
     objecttolerance="10"
     gridtolerance="10"
     guidetolerance="10"
     inkscape:pageopacity="0"
     inkscape:pageshadow="2"
     inkscape:window-width="640"
     inkscape:window-height="480"
     id="namedview4" /><g
     id="g10"
     inkscape:groupmode="layer"
     inkscape:label="ink_ext_XXXXXX"
     transform="matrix(1.3333333,0,0,-1.3333333,0,5333.3333)"><g
       id="g12"
       transform="scale(0.1)"><path
         d="M 0,0 H 40000 V 40000 H 0 Z"
         style="fill:#37dbff;fill-opacity:1;fill-rule:nonzero;stroke:none"
         id="path14" /><path
         d="m 28090.2,13535.4 c 0,0 991.2,-1551.1 -103,-2761.1 C 26839.5,9505 22640.9,9551.4 20142.7,9551.4 c -2498.3,0 -6696.9,-46.4 -7844.6,1222.9 -1094.2,1210 -103,2761.1 -103,2761.1 h 15895.1"
         style="fill:#ff954d;fill-opacity:1;fill-rule:nonzero;stroke:none"
         id="path16" /><path
         d="m 13039.6,10442.9 c -260.2,123.6 -473.1,267.8 -625.5,436.3 -563.5,623.2 -531.2,1342.4 -389.1,1861.9 43.8,-41.5 90.3,-79.3 139.5,-112.7 86.3,-58.5 189.6,-114.2 310.7,-167.4 -127.1,-548.1 -123.3,-1271.4 446.9,-1902 36.2,-39.9 75.4,-78.6 117.5,-116.1"
         style="fill:#ffd5b8;fill-opacity:1;fill-rule:nonzero;stroke:none"
         id="path18" /><path
         d="m 12883.9,10172.5 c -313.6,122.3 -579.9,268 -783.2,441.2 61.8,-18.2 125,-35.9 189.4,-52.8 160.6,-147.3 361.1,-276 593.8,-388.4"
         style="fill:#3899d5;fill-opacity:1;fill-rule:nonzero;stroke:none"
         id="path20" /><path
         d="m 20678.8,9707.7 c -95.4,0 -189.1,0 -280.2,0.1 l -255.9,0.1 -256,-0.1 c -68.3,0 -137.9,0 -208.8,0 -1988.2,0 -4927.3,20 -6479.5,664.7 1521.8,-245.6 3398.9,-259.3 4869.6,-259.3 184.3,0 362.1,0.2 532.1,0.2 170.6,0 349.4,-0.2 534.4,-0.2 2523.4,0 6241,40.4 7310.2,1223 230.6,255 368.6,525.2 442.8,792.9 219.3,65.4 422.2,136.7 601.8,213.8 201.1,86.3 409.2,185.4 603.5,309.4 126.3,-547.7 121.3,-1269.4 -448,-1898.9 -87.9,-97.2 -193.7,-186.7 -315.2,-269.1 -1452.9,-745.9 -4553.2,-776.6 -6650.8,-776.6"
         style="fill:#c36859;fill-opacity:1;fill-rule:nonzero;stroke:none"
         id="path22" /><path
         d="m 20683.4,9394.8 c -96.7,0 -191.5,0 -285,0.1 l -255.7,0.1 -255.8,-0.1 c -2607.3,-2.9 -6548.8,-3.9 -7704.9,1274.5 -1160.8,1283.7 -129.3,2933.7 -118.7,2950.2 l 263.6,-168.4 c -37.6,-59.3 -912.2,-1466.8 87.2,-2572 1062.8,-1175.3 5075.6,-1172.2 7472.6,-1171.4 l 256,0.1 255.9,-0.1 c 2397.8,-1.7 6409.8,-3.8 7472.6,1171.4 1002.5,1108.6 96.5,2557.5 87.2,2572 l 263.7,168.4 c 10.5,-16.5 1042,-1666.5 -118.8,-2950.2 C 26988.6,9436.7 23284.8,9394.8 20683.4,9394.8"
         style="fill:#390075;fill-opacity:1;fill-rule:nonzero;stroke:none"
         id="path24" /><path
         d="m 28681.8,13525.2 c -228.9,-526.1 -734.6,-815.6 -1254.1,-1038.5 -415.8,-178.4 -974.4,-329.4 -1588.1,-448.7 -851.1,-164.7 -1808.7,-267.5 -2639.5,-293.4 -5.9,-0.4 -11.7,-0.8 -17.6,-0.8 -3272.4,-98.9 -6114.1,-162.3 -9518.8,534.4 -419.7,85.6 -1054.9,238.2 -1411.3,479.5 -356.7,241.8 -561.3,764.7 -595.7,1199.3 -3.9,49.7 -4.7,111.1 -1.9,179.9 14.4,348.2 121.6,880.9 377,997.1 l 16325.7,93.9 c 150.2,-289.5 290.2,-568.8 364.9,-844.5 77.5,-287.1 84.5,-570.3 -40.6,-858.2"
         style="fill:#c14d56;fill-opacity:1;fill-rule:nonzero;stroke:none"
         id="path26" /><path
         d="m 12037.1,15110.5 c -223.1,-106.9 -342.4,-578.8 -358.8,-974.5 -2.7,-66.5 -2,-127.8 1.9,-177.1 32.7,-412.9 226.4,-938.5 585.4,-1181.7 265.9,-180.1 737.9,-340.2 1402.8,-476 3497.9,-715.7 6420,-627.3 9513.4,-533.9 6,0 11.4,0.4 16.7,0.8 850,26.4 1810.7,133.2 2636.7,292.9 647.1,125.9 1194.5,280.5 1583.2,447.2 483.6,207.6 1009.3,491.8 1241.8,1026.4 112.3,258.4 124.9,526.2 39.5,842.7 -72.3,267 -204,532.9 -356.4,827 l -16306.2,-93.8 m 8058,-3452.4 c -2036.6,0 -4108.4,120.8 -6436,597.1 -680.5,138.9 -1144.9,296.9 -1419.9,483.1 -371.9,252 -572.3,792.7 -605.9,1216.9 -4,51.2 -4.7,114.4 -2,182.7 13.2,317.9 110.3,889.9 390.8,1017.5 l 9.6,2.1 16340.1,94 6.6,-12.8 c 156.5,-301.6 292.1,-573.7 366.7,-849.2 88.3,-327.3 75.1,-604.9 -41.8,-873.7 -239,-549.5 -774.3,-839.5 -1266.3,-1050.7 -391.7,-168.1 -942.6,-323.8 -1592.9,-450.2 -828.3,-160.2 -1791.7,-267.3 -2643.3,-293.8 -5.6,-0.4 -11.9,-0.7 -18.3,-0.7 -1038.8,-31.4 -2058.8,-62.3 -3087.4,-62.3"
         style="fill:#390075;fill-opacity:1;fill-rule:nonzero;stroke:none"
         id="path28" /><path
         d="m 20096.4,11838.2 c -2027.6,0 -4089.3,120.2 -6401.2,593.1 -497.2,101.7 -881.3,215.7 -1146.4,340 105.9,-25 206.9,-46.7 297.8,-65.2 2302.6,-471.1 4347.7,-594.6 6442.8,-594.6 851.9,0 1712.1,20.4 2601.1,46.2 -916.8,282 -1830.6,538.2 -2438,611 -2719,325.4 -4270.3,132.2 -6763.5,737.3 -278.2,67.6 -672.1,223.8 -867.4,379.2 -3.8,28.7 -6.8,56.8 -9,84.3 -3,38.3 -4.1,80.3 -3.4,124.7 255.7,-168.2 638.4,-299.4 842.9,-349 1565,-379.8 2737.8,-446.5 4095.7,-523.7 817.9,-46.5 1663.5,-94.6 2686.1,-217 837.7,-100.3 2313.7,-570.3 3499.7,-948 165.1,-52.6 319.9,-101.8 465,-147.6 -75.2,-3.5 -148.9,-6.3 -220.8,-8.5 -1037.1,-31.4 -2054.9,-62.2 -3081.4,-62.2 m 5755,361.2 c 16.1,19.1 32.5,38.7 49.3,58.7 488.9,583.4 1158.6,1382.4 1847.9,1741.6 339.6,177.1 601.5,319.6 792.7,441.6 99,-301 117.8,-575.9 -3.1,-853.8 -214,-491.9 -712.7,-759.8 -1172.2,-957 -407,-174.6 -939.7,-318.4 -1514.6,-431.1 m 2265.1,1656.3 c -47,-24.7 -94.1,-49 -141.1,-73.7 -452.2,-236 -892.3,-611.7 -1297.5,-1021.7 573.4,247.7 1047.4,216.4 1438.6,1095.4"
         style="fill:#98365f;fill-opacity:1;fill-rule:nonzero;stroke:none"
         id="path30" /><path
         d="m 20092.4,11525.2 c -2043,0 -4121.9,121.3 -6459.9,599.6 -698.7,142.9 -1178.9,307.6 -1468,503.6 -408.5,276.8 -627.7,860.6 -663.8,1316.4 -22,276.9 50.2,1142.3 466.4,1331.5 l 129.5,-284.9 c -191.1,-86.9 -310.3,-689.5 -284,-1021.9 29.2,-368.8 206.7,-864.7 527.5,-1082.1 250.8,-170 706.7,-323.4 1355.1,-456.1 3482.4,-712.4 6396.9,-624.3 9482.6,-530.9 1288.5,39 3148.6,284.1 4188.2,730.1 459.5,197.2 958.2,465.1 1172.2,957 209.4,481.3 -0.4,953.6 -319.6,1568.2 l 277.8,144.2 c 287.7,-554 613.8,-1182 328.7,-1837.2 -257.6,-592.2 -819.8,-898.3 -1335.8,-1119.8 -1077,-462.1 -2985,-715.4 -4302,-755.3 -1041.4,-31.5 -2063.7,-62.4 -3094.9,-62.4"
         style="fill:#390075;fill-opacity:1;fill-rule:nonzero;stroke:none"
         id="path32" /><path
         d="m 28777.6,14843.7 c -99,-173.2 -588.7,-438 -1101.5,-705.2 -1189.9,-620.4 -2273.8,-2441.2 -2612.5,-2497.1 -449.9,-74.3 -4046.1,1331.1 -5611.1,1518.4 -2719,325.5 -4270.3,132.2 -6763.5,737.4 -346.2,84.1 -871.5,305.5 -970.5,491.6 -145.5,273.5 -221.8,652.5 -13.3,1148.9 l 37.6,0.8 16741,285.1 c 102.1,-90.4 202.7,-254.3 267.6,-428.7 74.7,-202.2 101.7,-418.9 26.2,-551.2"
         style="fill:#f9db03;fill-opacity:1;fill-rule:nonzero;stroke:none"
         id="path34" /><path
         d="m 11721,15514.5 c -166.2,-404.5 -160.1,-779.5 18.3,-1114.6 89.1,-167.7 575,-387.6 955.2,-479.9 1549.1,-376 2714.4,-442.2 4063.6,-518.9 820.6,-46.6 1669.1,-94.9 2697.1,-217.9 854.5,-102.4 2339.1,-575.1 3532,-955 1005.2,-320.1 1872.6,-596.6 2072.6,-563.7 126,20.8 380.7,324.7 703.1,709.3 498.6,594.9 1181.4,1409.7 1902.4,1785.6 500.1,260.5 996.4,528.9 1091.9,696 64,112.2 53.6,310.8 -27.9,531.4 -62.9,169 -159.8,326.2 -254.3,413.2 l -16754,-285.5 m 13302.4,-3899.4 c -265.9,0 -1060.3,253 -2050.5,568.3 -1191,379.3 -2673.2,851.4 -3523.3,953.1 -1026.5,122.9 -1874.3,171.1 -2694.1,217.7 -1351.6,76.8 -2518.8,143.2 -4072.1,520.1 -345.7,84 -880.5,305.7 -985.6,503.5 -187.4,352.1 -192.2,745.4 -14.3,1169 l 5.9,14.1 52.9,1.1 16750.3,285.3 6.8,-6.1 c 103.7,-91.7 206.1,-255.5 274,-438.1 87.5,-236.9 96.5,-445 24.6,-571 -101.9,-178.3 -583.7,-439.7 -1111,-714.4 -712.6,-371.6 -1392,-1182.2 -1888.1,-1774.1 -341.5,-407.4 -588.2,-701.8 -731.5,-725.4 -12.5,-2.1 -27.2,-3.1 -44,-3.1"
         style="fill:#390075;fill-opacity:1;fill-rule:nonzero;stroke:none"
         id="path36" /><path
         d="m 25012.7,11794 c -225,0 -1157.2,297.3 -1984.1,560.6 -1261.1,401.6 -2690.3,856.8 -3557.5,960.6 -1032.2,123.6 -1882.9,172 -2705.5,218.7 -1342.7,76.4 -2502.3,142.3 -4039.6,515.4 -394.8,95.8 -815,310.8 -869.4,413 -34.2,64.4 -59.5,152.8 -72.8,257.9 177.7,-165.8 607.6,-339.3 905.2,-411.5 2493.2,-605.2 4044.5,-411.9 6763.5,-737.4 1524.8,-182.5 4978.3,-1521.6 5570.5,-1521.6 15.5,0 29,0.9 40.6,2.8 338.7,55.9 1422.6,1877.1 2612.5,2497.1 76.8,40.1 153.1,80.1 227.6,119.7 198.4,74.6 378.3,166.3 532.2,301.6 88.3,55.6 164.4,108.4 223.5,157.3 12.5,-86.5 8.5,-161 -17.7,-207 -83.7,-146.7 -728.1,-482.6 -1037.8,-644 -744.4,-388 -1437.2,-1214.6 -1943.1,-1818.1 -236.5,-282.3 -531,-633.5 -622.8,-663.4 -7,-1.1 -15.5,-1.7 -25.3,-1.7"
         style="fill:#fdf19a;fill-opacity:1;fill-rule:nonzero;stroke:none"
         id="path38" /><path
         d="m 25026.6,11482.5 c -276.8,0 -934.1,204.9 -2093,574 -1186,377.7 -2662,847.7 -3499.7,948 -1022.6,122.4 -1868.2,170.5 -2686.1,217 -1357.9,77.2 -2530.7,143.9 -4095.7,523.7 -287.9,69.9 -928.8,301.2 -1071.8,570.2 -180.6,339.6 -156.3,935 59,1447.9 l 288.6,-121.1 c -200.2,-476.9 -186.2,-963.8 -71.3,-1179.9 54.4,-102.2 474.6,-317.2 869.4,-413 1537.3,-373.1 2696.9,-439 4039.6,-515.4 822.6,-46.7 1673.3,-95.1 2705.5,-218.7 867.2,-103.8 2296.4,-559 3557.5,-960.6 863.1,-274.8 1840.9,-586.6 2009.4,-558.9 91.8,29.9 386.3,381.1 622.8,663.4 505.9,603.5 1198.7,1430.1 1943.1,1818.1 309.7,161.4 954.1,497.3 1037.8,644 86.2,151.3 -67.7,613.6 -261.4,785.2 l 207.5,234.2 c 261.1,-231.3 510.9,-849.4 325.8,-1174.3 -109.3,-191.7 -478.1,-408.5 -1165,-766.6 -689.3,-359.2 -1359,-1158.2 -1847.9,-1741.6 -429.8,-512.8 -627.6,-740.8 -811.7,-771.1 -18.1,-3 -38.9,-4.5 -62.4,-4.5"
         style="fill:#390075;fill-opacity:1;fill-rule:nonzero;stroke:none"
         id="path40" /><path
         d="m 19495.1,13766.4 c -1700.1,0 -3414.8,96.2 -5084.9,348.4 -498.3,75.5 -930.3,103.8 -1470.9,281 -326.2,107.2 -635.6,190.2 -867.2,446.4 -115.7,127.5 -201.6,272 -259.2,427.2 42.5,-65.6 90.3,-127.8 143.1,-186.2 221.3,-244.2 515.2,-420.6 925.2,-555.1 463.8,-152 852.6,-207.7 1264.3,-266.6 80,-11.5 160.8,-23 243.2,-35.4 1642.1,-248 3322.7,-372 5067.5,-372 1704.7,0 3470.8,118.4 5321,355.1 1041.3,133.2 1839.3,259.7 2599,478.5 l 71.6,20.6 c 441.3,126.5 863.2,247.4 1176.3,572.6 7.7,-24.9 14.4,-49.6 20.2,-73.9 -62.5,-91.5 -132.2,-169.1 -208.4,-236.1 -149.8,-94.3 -334.9,-196.7 -532.2,-301.6 -177.4,-66.6 -369.6,-119.5 -571,-177.6 -777.3,-223.7 -1606.8,-390.9 -2575.4,-473.7 -1689.9,-144.3 -3467.9,-251.6 -5262.2,-251.6"
         style="fill:#bf9925;fill-opacity:1;fill-rule:nonzero;stroke:none"
         id="path42" /><path
         d="m 27903.7,14669.3 c 197.3,104.9 382.4,207.3 532.2,301.6 -153.9,-135.3 -333.8,-227 -532.2,-301.6"
         style="fill:#c2a88f;fill-opacity:1;fill-rule:nonzero;stroke:none"
         id="path44" /><path
         d="m 28644.3,15207 c -5.8,24.3 -12.5,49 -20.2,73.9 41.1,42.8 80.4,89.1 117.6,139.4 3.3,-8.5 6.5,-16.9 9.7,-25.4 -12.9,-28.2 -27,-55.9 -42.3,-82.9 -20.6,-36.9 -42.2,-71.8 -64.8,-105"
         style="fill:#390075;fill-opacity:1;fill-rule:nonzero;stroke:none"
         id="path46" /><path
         d="m 28882.4,16284 c -10.5,-220.6 -67.3,-436.5 -173.3,-625.9 -296.1,-529.2 -797.9,-653.6 -1376.4,-820.2 -777.3,-223.7 -1611.2,-350.1 -2575.4,-473.7 -3488.3,-445.9 -6912.5,-501.9 -10345.3,16.4 -498.3,75.5 -941.5,118.9 -1482.1,296.1 -326.2,107.2 -626.2,255.5 -857.8,511.7 -212,233.9 -324.2,524.5 -345.4,834.3 -5.8,77.1 -5.8,155.3 0,233.9 30.5,424.8 180.4,887.9 368.5,1235.7 l 16118.7,143.9 c 455.7,-265.6 694.3,-821.8 668.5,-1352.2"
         style="fill:#ff1a61;fill-opacity:1;fill-rule:nonzero;stroke:none"
         id="path48" /><path
         d="m 12109.3,17468.9 c -196.9,-368.3 -330.9,-821 -359.1,-1213.9 -5.8,-77.4 -5.8,-154.9 0,-230.5 21.5,-315.5 138.8,-599.2 339.3,-820.4 198.8,-219.8 468.2,-380.3 847.7,-505 447.9,-146.8 828.4,-201.4 1231.1,-259.1 81.3,-11.6 163.5,-23.5 247.2,-36.1 3229.1,-487.6 6611,-492.9 10338.8,-16.4 1034.1,132.6 1825,258 2571.9,472.9 l 72.4,20.8 c 542.5,155.6 1011.1,289.8 1290,788.4 100.8,180 159.7,392.8 170.3,615.5 26.8,549 -234.7,1081.5 -651.2,1327.6 l -16098.4,-143.8 m 7346.6,-3481.8 c -1738.4,0 -3412.2,123.4 -5047.4,370.3 -83.6,12.7 -165.6,24.4 -246.8,36.1 -404.9,58 -787.3,112.8 -1239.1,260.9 -387.7,127.4 -663.5,292.1 -867.9,518.2 -207.7,229.1 -329.2,522.5 -351.4,848.5 -5.9,77.8 -5.9,157.7 0,237.3 29,403.5 167.8,869 371.2,1245.1 l 6.6,12.2 13.9,0.1 16125.2,144 5.6,-3.3 c 441.2,-257.1 708.2,-796.4 680.1,-1373.6 -11,-229.9 -72,-449.9 -176.3,-636.2 -288.4,-515.5 -765.6,-652.3 -1318.1,-810.6 l -72.3,-20.8 c -749.8,-215.8 -1542.6,-341.5 -2578.9,-474.4 -1844.7,-235.8 -3605.5,-353.8 -5304.4,-353.8"
         style="fill:#390075;fill-opacity:1;fill-rule:nonzero;stroke:none"
         id="path50" /><path
         d="m 19456.2,13854.1 c -1744.8,0 -3425.4,124 -5067.5,372 -82.4,12.4 -163.2,23.9 -243.2,35.4 -411.7,58.9 -800.5,114.6 -1264.3,266.6 -410,134.5 -703.9,310.9 -925.2,555.1 -281.3,310.6 -418.2,731.3 -385.4,1184.7 30.5,421.9 175.2,907.4 387.1,1298.9 l 275.2,-148.9 c -191.8,-354.4 -322.8,-792.8 -350.2,-1172.5 -27,-372.7 78.6,-701.9 305.3,-952.1 183.2,-202.3 434.5,-351 790.8,-467.8 437.6,-143.6 813.3,-197.3 1211,-254.2 80.8,-11.6 162.4,-23.3 245.6,-35.9 3217.5,-485.8 6587.4,-491 10302,-15.8 1026.7,131.3 1811.7,255.6 2552.1,468.8 l 72.2,20.7 c 535.5,153.4 958.4,274.7 1210.9,725.4 328,585.7 115.3,1444.2 -437.6,1766.7 l 157.6,270.3 c 702,-409.4 965.6,-1453.1 553,-2189.9 -315.4,-563.2 -841.1,-713.8 -1397.8,-873.3 l -71.6,-20.6 c -759.7,-218.8 -1557.7,-345.3 -2599,-478.5 -1850.2,-236.7 -3616.3,-355.1 -5321,-355.1"
         style="fill:#390075;fill-opacity:1;fill-rule:nonzero;stroke:none"
         id="path52" /><path
         d="m 21074.5,14202.1 c -180.4,83.5 -358.2,206.3 -540.6,332.4 -330.9,228.7 -672.4,464.7 -1054.6,464.7 -21.6,0 -43.5,-0.8 -65.4,-2.4 -289.5,-20.8 -541.1,-181 -784.3,-336 -229.2,-146.1 -466.2,-297 -731.7,-327.5 -35.7,-4 -71.1,-6 -106,-6 -344,0 -651.7,188.5 -975.7,387.1 -317,194.4 -645,395.4 -1012,403.4 -7.1,0.1 -14.2,0.2 -21.3,0.2 -249,0 -487.6,-88.5 -718.4,-174.3 -65.1,-24.2 -130.1,-48.3 -195.3,-70.5 -189.7,-64.4 -360.1,-96.6 -510.3,-96.6 -155.7,0 -289.6,34.7 -400.6,104 -146.9,91.5 -249.8,241.8 -349.3,387 -106.5,155.4 -216.7,316.2 -382.5,411.3 -176.9,101.4 -381.6,109.2 -582.9,109.2 -18,0 -36,-0.1 -54,-0.1 -15.6,-0.1 -31.3,-0.1 -47.1,-0.1 -117.2,0 -236.6,2.1 -349.3,23.4 -104.5,19.6 -206.1,59.3 -300.1,116.8 -9.1,62.4 -13.9,126.5 -14.5,192.2 88.2,-44.4 182.5,-77 281.1,-95.6 126.5,-23.8 253.4,-26.5 377.3,-26.5 17.6,0 35.3,0.1 52.8,0.1 14.6,0.1 29.1,0.1 43.6,0.1 187.7,0 363.1,-5.1 503.1,-85.3 129.9,-74.6 223.7,-211.5 323.1,-356.5 110.1,-160.7 224,-326.9 403.1,-438.5 140.4,-87.6 306.1,-131.3 495.8,-131.3 170.6,0 360.7,35.4 569,106.4 66.7,22.7 133.3,47.4 199.9,72.1 224.3,83.3 436,162.8 651.6,162.8 7.1,0 14.2,-0.1 21.4,-0.2 318.1,-6.9 611.2,-186.5 921.4,-376.7 332.5,-203.8 675.5,-413.7 1070.6,-413.7 41.5,0 83.5,2.3 126.2,7.2 306.7,35.2 561.5,197.5 807.9,354.5 234.6,149.6 456.2,290.8 700.2,308.3 17.8,1.2 35.5,1.8 53.1,1.8 325.1,0 629.9,-210.4 951.5,-432.6 336,-232.2 681.5,-471 1073.8,-470.9 79.7,0 161.3,9.8 245.1,31.6 342.7,89 586.3,321.7 822,546.9 186,177.8 361.9,345.8 578.3,439.9 100.2,43.6 201.1,61.6 304,61.6 226.2,0 462.4,-87.5 722.9,-183.9 286.5,-106.1 582.8,-215.8 902.8,-215.8 1,0 2,0 3,0 711.2,1.4 1028.3,399.8 1283.1,719.9 128.2,161.2 249.4,313.4 404.5,404 192.6,112.4 437.3,132.8 702.7,132.8 74.2,0 150,-1.6 226.7,-3.2 76.2,-1.6 152.9,-3.1 229.6,-3.1 248.8,0 496.9,16.6 720.6,104.9 26.5,10.4 52.3,21.9 77.4,34.4 0.8,-63.6 -2.7,-127.2 -10.5,-190 -42.9,-26.8 -87.4,-49.2 -133.3,-67.2 -195.9,-77.3 -424.3,-92.5 -656.1,-92.5 -74.7,0 -149.9,1.6 -224.3,3.2 -74.7,1.5 -149.8,3.1 -224.6,3.1 -286.9,0 -569.3,-22.9 -799.4,-157.2 -184.5,-107.7 -315.9,-272.8 -455,-447.6 -254.5,-319.8 -517.7,-650.5 -1141.9,-651.7 h -2.6 c -287.6,0 -568.4,104 -840,204.6 -268.8,99.5 -527.7,195.4 -786.6,195.4 -124.6,0 -249.2,-22.2 -375,-77 -246.1,-106.9 -442,-294.1 -631.5,-475.1 -145,-138.5 -284.9,-272.2 -443.5,-371.2 -311.9,-20.5 -621.5,-37.4 -929,-50.5"
         style="fill:#c81f4e;fill-opacity:1;fill-rule:nonzero;stroke:none"
         id="path54" /><path
         d="m 21505.3,14095.8 c -147.5,0 -290,41.2 -430.8,106.3 307.5,13.1 617.1,30 929,50.5 -91.8,-57.2 -189.8,-102.9 -298.7,-131.1 -67.7,-17.6 -134.1,-25.7 -199.5,-25.7 m -9612.2,1832.3 c -49.9,30.5 -97.7,66 -142.7,106.2 -3.7,53.7 -4.5,108.4 -2.5,163.2 41.8,-28.6 85.5,-54.4 130.7,-77.2 0.6,-65.7 5.4,-129.8 14.5,-192.2 m 16824.2,257.7 c 7.8,62.8 11.3,126.4 10.5,190 45.4,22.5 88.5,48.3 129.5,76.7 3,-52.2 3.4,-104.8 1.1,-157.6 -44.6,-41.9 -91.8,-78.4 -141.1,-109.1"
         style="fill:#3e0c5c;fill-opacity:1;fill-rule:nonzero;stroke:none"
         id="path56" /><path
         d="m 20974.5,14198 c -159.7,82.9 -315.1,190.3 -468.5,296.3 -324.6,224.4 -660.5,456 -1027.3,456 -20.3,0 -40.7,-0.8 -61.3,-2.2 -277.2,-19.9 -523.4,-176.8 -761.5,-328.5 -233.9,-149.1 -475.7,-303.2 -752.4,-334.8 -37,-4.3 -73.7,-6.3 -110.1,-6.3 -360.2,0 -686.3,200.2 -1002.7,394.2 -311.6,191 -633.7,388.5 -987.5,396.1 -7.1,0.2 -14.3,0.3 -21.5,0.3 -240.4,0 -473.8,-87.2 -700.2,-171.2 -65.5,-24.4 -130.9,-48.7 -196.6,-71 -194.7,-66.1 -370.4,-99.1 -526.2,-99.1 -165,0 -307.5,37.1 -426.3,111.3 -155.5,96.9 -261.4,251.5 -363.8,400.9 -108.1,157.8 -210.3,307 -366.5,396.6 -167.1,95.7 -358.2,102.6 -560.6,102.6 -17.2,0 -34.4,-0.1 -51.7,-0.1 -18,-0.1 -36,-0.2 -54.1,-0.2 -117.2,0 -236.8,2.7 -351.5,24.3 -97.1,18.3 -191.6,52.8 -280.4,102.1 -4,20.7 -7.6,41.7 -10.7,62.8 94,-57.5 195.6,-97.2 300.1,-116.8 112.7,-21.3 232.1,-23.4 349.3,-23.4 15.8,0 31.5,0 47.1,0.1 18,0 36,0.1 54,0.1 201.3,0 406,-7.8 582.9,-109.2 165.8,-95.1 276,-255.9 382.5,-411.3 99.5,-145.2 202.4,-295.5 349.3,-387 111,-69.3 244.9,-104 400.6,-104 150.2,0 320.6,32.2 510.3,96.6 65.2,22.2 130.2,46.3 195.3,70.5 230.8,85.8 469.4,174.3 718.4,174.3 7.1,0 14.2,-0.1 21.3,-0.2 367,-8 695,-209 1012,-403.4 324,-198.6 631.7,-387.1 975.7,-387.1 34.9,0 70.3,2 106,6 265.5,30.5 502.5,181.4 731.7,327.5 243.2,155 494.8,315.2 784.3,336 21.9,1.6 43.8,2.4 65.4,2.4 382.2,0 723.7,-236 1054.6,-464.7 182.4,-126.1 360.2,-248.9 540.6,-332.4 -33.3,-1.4 -66.7,-2.8 -100,-4.1"
         style="fill:#c31267;fill-opacity:1;fill-rule:nonzero;stroke:none"
         id="path58" /><path
         d="m 21508.8,14047.5 c -184.8,0 -362,61 -534.3,150.5 33.3,1.3 66.7,2.7 100,4.1 140.8,-65.1 283.3,-106.3 430.8,-106.3 65.4,0 131.8,8.1 199.5,25.7 108.9,28.2 206.9,73.9 298.7,131.1 32.3,2.2 64.6,4.3 96.9,6.5 -115.8,-81.7 -241.3,-148.1 -383.3,-184.9 -70.6,-18.3 -140,-26.7 -208.3,-26.7 m -9605,1817.8 c -68.4,38 -133.4,84.6 -193.5,139.3 l -7.2,6.6 -0.7,9.6 c -5.3,69.3 -5.9,140.1 -1.8,210.9 15.5,-11.8 31.3,-23.2 47.3,-34.2 -2,-54.8 -1.2,-109.5 2.5,-163.2 45,-40.2 92.8,-75.7 142.7,-106.2 3.1,-21.1 6.7,-42.1 10.7,-62.8 m 16804.3,258.2 c 3.5,20.6 6.6,41.4 9.2,62.3 49.3,30.7 96.5,67.2 141.1,109.1 2.3,52.8 1.9,105.4 -1.1,157.6 16,11.2 31.8,22.8 47.2,34.8 4.8,-67.4 5.7,-135.6 2.3,-204.5 l -0.5,-9.8 -7,-6.7 c -59.6,-57.1 -123.6,-104.9 -191.2,-142.8"
         style="fill:#390075;fill-opacity:1;fill-rule:nonzero;stroke:none"
         id="path60" /><path
         d="m 22003.5,14252.6 c 158.6,99 298.5,232.7 443.5,371.2 189.5,181 385.4,368.2 631.5,475.1 125.8,54.8 250.4,77 375,77 258.9,0 517.8,-95.9 786.6,-195.4 271.6,-100.6 552.4,-204.6 840,-204.6 h 2.6 c 624.2,1.2 887.4,331.9 1141.9,651.7 139.1,174.8 270.5,339.9 455,447.6 230.1,134.3 512.5,157.2 799.4,157.2 74.8,0 149.9,-1.6 224.6,-3.1 74.4,-1.6 149.6,-3.2 224.3,-3.2 231.8,0 460.2,15.2 656.1,92.5 45.9,18 90.4,40.4 133.3,67.2 -2.6,-20.9 -5.7,-41.7 -9.2,-62.3 -34.5,-19.4 -70,-36.2 -106.3,-50.4 -203.3,-80.3 -436.9,-95.8 -673.2,-95.8 -75.4,0 -151,1.5 -226.1,3.1 -74,1.5 -148.6,3.1 -222.7,3.1 -280.5,0 -555.5,-22 -775.6,-150.5 -176.5,-103.1 -305.2,-264.7 -441.4,-435.8 -261.7,-328.9 -532.3,-668.9 -1180,-670.2 -0.9,0 -1.9,0 -2.8,0 -296.3,0 -581.2,105.5 -856.9,207.6 -264.1,97.9 -518.3,191.9 -769.8,191.9 -118.8,0 -237,-20.9 -355.3,-72.4 -238.2,-103.5 -430.9,-287.6 -617.3,-465.6 -120.8,-115.5 -243.8,-233.1 -380.3,-329.4 -32.3,-2.2 -64.6,-4.3 -96.9,-6.5"
         style="fill:#c31267;fill-opacity:1;fill-rule:nonzero;stroke:none"
         id="path62" /><path
         d="m 28593,16487 c -263.6,-104 -577,-97.5 -889.9,-91 -363.7,7.6 -726.9,15.1 -1011.1,-150.7 -518.7,-302.8 -633.7,-1100.8 -1609.3,-1102.7 -286.8,-0.6 -563.2,99.5 -833.8,199.7 -394.8,146.1 -777,292.2 -1160.7,125.3 -529.6,-230 -818.6,-833.9 -1377.2,-978.6 -432.2,-112.3 -814.7,156.5 -1203.8,425.3 -345.5,238.7 -696.2,477.5 -1091.5,449.3 -555.5,-39.9 -961.5,-600 -1515,-663.4 -754.1,-86.4 -1338.1,767.8 -2096.9,784.3 -321.2,6.6 -622.4,-139.7 -926.7,-243.3 -304.3,-103.3 -659.1,-160.4 -931.7,9.7 -308.7,192.5 -415.4,616.9 -731.1,798 -187.1,107.1 -404.8,106.4 -624.6,105.8 -135.1,-0.5 -270.9,-0.9 -401,23.7 -501.1,94.6 -860.5,613.3 -819.1,1121.8 31.3,389.2 213.2,690 469.8,929.4 267.9,250.7 617.2,434.6 962.2,583.6 l 14698.5,333.7 c 415.8,-57.9 844.1,-119.4 1206.3,-331.4 28.2,-16.4 55.5,-34.4 81.8,-53.1 309.4,-221.4 473.6,-591.9 510,-977.2 36.8,-385.2 -182.3,-1092.1 -705.2,-1298.2"
         style="fill:#13e23a;fill-opacity:1;fill-rule:nonzero;stroke:none"
         id="path64" /><path
         d="m 19479.3,15389.4 c 381.9,0 723.2,-235.9 1054,-464.5 388.1,-268.2 754.7,-521.5 1171.8,-413.1 297.2,77 513.5,283.6 742.5,502.5 189.5,181 385.3,368.1 631.3,474.9 386.7,168.3 762.7,29 1160.9,-118.5 271.6,-100.6 552.5,-204.6 840.3,-204.6 h 2.6 c 624.7,1.3 888,332.1 1142.6,652.1 139.1,174.7 270.4,339.8 454.8,447.4 289.9,169.2 662.9,161.3 1023.4,153.9 305.7,-6.4 621.6,-12.9 880.8,89.4 h 0.1 c 503.9,198.6 728.1,879.4 690.4,1274.1 -38.7,410.4 -221.1,760.4 -500.3,960.2 -26.7,19.1 -53.6,36.7 -80,52.1 -362,211.9 -786.8,271.1 -1197.6,328.3 l -14690.1,-333.8 c -424.4,-183.7 -726.8,-367.2 -951.3,-577.4 -283,-263.9 -434.2,-562.9 -462.4,-914.1 -41.2,-504.8 325.2,-1007.1 800,-1096.8 127.8,-24.2 264.3,-23.6 396.5,-23.3 218.2,0.5 443.8,1.3 636.4,-108.9 165.6,-95 275.8,-255.7 382.2,-411.1 99.6,-145.3 202.6,-295.6 349.6,-387.3 218.2,-136.1 525,-138.7 911.7,-7.5 65.1,22.2 130.1,46.3 195.1,70.5 237.4,88.2 481.4,179.4 739.6,174.1 366.8,-8 694.6,-208.9 1011.6,-403.3 357,-218.9 694.9,-425.5 1082.2,-381.2 265.8,30.5 502.8,181.5 732.1,327.6 243.1,154.9 494.5,315.1 783.9,335.9 21.9,1.6 43.7,2.4 65.3,2.4 m 2029.5,-949.8 c -355.9,0 -683.6,226.5 -1002.2,446.6 -342.8,236.9 -696.8,482 -1089.3,454 -277.4,-19.9 -523.8,-176.9 -761.9,-328.7 -233.8,-149 -475.5,-303 -752,-334.7 -404.1,-45.9 -764,174.4 -1112.2,387.8 -311.7,191.1 -633.9,388.7 -987.9,396.4 -247,5.6 -489,-84.5 -722.3,-171.2 -65.5,-24.3 -130.8,-48.6 -196.3,-70.9 -400.9,-135.9 -721,-131.8 -951.8,12.1 -155.3,96.9 -261.1,251.3 -363.5,400.7 -103.4,151 -210.4,307.1 -366.8,396.9 -181.6,103.9 -391.5,103.7 -612.9,102.5 -134.4,-0.3 -273.1,-0.8 -405.3,24.2 -506,95.6 -882,610.1 -838.2,1146.8 28.8,358.4 189.4,676.2 477.2,944.7 229.3,214.6 537.2,401.5 968.9,588 l 8.8,1.9 14698.4,333.6 c 399.8,-55.3 848.7,-117.8 1218.7,-334.5 27.7,-16.1 55.8,-34.4 83.6,-54.4 290.3,-207.7 479.8,-570 519.8,-994 39.1,-409 -194.9,-1115.2 -720,-1322.3 -268,-105.7 -588.8,-99.1 -899.1,-92.6 -353.7,7.4 -720.2,15 -998.7,-147.6 -176.8,-103.1 -305.5,-264.8 -441.7,-436 -261.6,-328.7 -532,-668.5 -1179.3,-669.8 -0.9,0 -1.9,0 -2.8,0 -296.1,0 -581,105.5 -856.5,207.6 -389.1,144 -756.5,280 -1125.9,119.4 -238.3,-103.5 -431.1,-287.7 -617.5,-465.8 -223.3,-213.4 -454.1,-434 -763.2,-514.1 -70.5,-18.3 -139.9,-26.6 -208.1,-26.6"
         style="fill:#390075;fill-opacity:1;fill-rule:nonzero;stroke:none"
         id="path66" /><path
         d="m 21509.2,14619.6 c -300.1,0 -592.8,202.3 -900,414.6 -347.4,240 -706.7,488.2 -1127.4,488.2 -25.6,0 -51.4,-0.9 -77.4,-2.8 -323.1,-23.1 -589,-192.6 -846.1,-356.5 -226.4,-144.3 -440.3,-280.6 -675.4,-307.5 -29.9,-3.5 -59.5,-5.1 -89.1,-5.1 -308.9,0 -600.9,179 -908.5,367.5 -332,203.6 -675.4,414.1 -1078.2,422.8 -7.9,0.1 -15.8,0.2 -23.6,0.2 -274.8,0 -523,-92.4 -765.1,-182.3 -63.9,-23.8 -127.7,-47.5 -191.7,-69.3 -176.2,-60 -332.2,-89.9 -467.1,-89.9 -130.5,0 -241.3,28 -331.4,84.1 -123.5,77 -214.3,209.6 -310.4,349.8 -114.9,167.7 -233.7,341 -425.6,451.1 -207.2,118.8 -431.6,126.9 -651.4,126.9 -17.3,0 -34.7,-0.1 -51.9,-0.1 -16.8,-0.1 -33.5,-0.1 -50.1,-0.1 -113,0 -220.5,2.1 -321.2,21.1 -313,59 -571.5,326.7 -661.2,645.5 147.4,-218.9 370.4,-383.9 632.3,-433.3 113.2,-21.4 230.9,-23.8 348.5,-23.8 17.5,0 35,0 52.5,0.1 17.3,0 34.7,0.1 52,0.1 202,0 400.3,-7.2 572.6,-105.9 315.7,-181.1 422.4,-605.5 731.1,-797.9 124.8,-77.9 266.9,-108.2 413.4,-108.2 173.5,0 353.3,42.4 518.3,98.4 297.6,101.4 592.2,243.5 905.4,243.5 7.1,0 14.2,-0.1 21.3,-0.2 722.2,-15.6 1286.2,-790.4 1989.2,-790.4 35.5,0 71.4,2 107.7,6.1 553.5,63.4 959.5,623.5 1515,663.4 21.4,1.5 42.7,2.3 63.9,2.3 369.5,0 700.9,-225.8 1027.7,-451.5 326.7,-225.8 648.8,-451.6 999.7,-451.6 66.9,0 134.8,8.2 204,26.2 558.6,144.7 847.6,748.7 1377.2,978.7 121.5,52.8 242.9,74.3 364.6,74.3 262.5,0 526.3,-99.9 796.1,-199.7 269.7,-99.8 545.3,-199.7 831.1,-199.7 0.9,0 1.8,0 2.7,0 975.6,2 1090.6,799.9 1609.3,1102.7 224.8,131.2 499.1,153.9 783.9,153.9 75.2,0 151.2,-1.6 227.2,-3.2 75.9,-1.6 151.9,-3.1 227.2,-3.1 234.9,0 463,15.3 662.7,94.1 204.2,80.5 362.1,237.5 476.5,421.8 -90.1,-266.5 -263,-535.5 -534,-642.4 -175.1,-69.2 -380.8,-83.2 -601.4,-83.2 -74.3,0 -150.3,1.6 -227.4,3.2 -76.2,1.5 -152.9,3.1 -229.5,3.1 -304.4,0 -606.5,-24.9 -864.1,-175.3 -205.8,-120.2 -351.2,-302.8 -491.7,-479.4 -245.9,-308.9 -478.2,-600.8 -1038.9,-601.9 h -2.2 c -264.1,0 -533.6,99.8 -794.2,196.4 -271.5,100.5 -549.2,203.3 -834,203.3 -140.3,0 -282.5,-25 -426.4,-87.5 -267.5,-116.3 -472,-311.7 -669.8,-500.7 -216.2,-206.6 -420.4,-401.7 -684.3,-470.2 -54.4,-14.2 -108.5,-20.7 -162.4,-20.7"
         style="fill:#a1f3b0;fill-opacity:1;fill-rule:nonzero;stroke:none"
         id="path68" /><path
         d="m 21505.1,14305.8 c -392.3,-0.1 -737.8,238.7 -1073.8,470.9 -339,234.2 -659.4,455.4 -1004.6,430.8 -244,-17.5 -465.6,-158.7 -700.2,-308.3 -246.4,-157 -501.2,-319.3 -807.9,-354.5 -449.1,-51.4 -829.4,181.3 -1196.8,406.5 -310.2,190.2 -603.3,369.8 -921.4,376.7 -223,5.5 -441.3,-76.5 -673,-162.6 -66.6,-24.7 -133.2,-49.4 -199.9,-72.1 -439.8,-149.8 -798,-141.5 -1064.8,24.9 -179.1,111.6 -293,277.8 -403.1,438.5 -99.4,145 -193.2,281.9 -323.1,356.5 -150.7,86.4 -342.5,85.6 -546.7,85.2 -140.5,-0.4 -285.5,-0.8 -430.1,26.4 -570.8,107.6 -995.3,685.5 -946.2,1288.1 73.7,904.5 854.3,1353.6 1526.1,1643.9 l 124.1,-287.3 c -591.5,-255.5 -1278.1,-643.6 -1338.3,-1382 -35.9,-440.2 281.1,-877.6 692.2,-955.1 115.4,-21.8 239.9,-21.4 371.3,-21 236.2,0.7 479.8,1.4 703.3,-126.8 191.9,-110.1 310.7,-283.4 425.6,-451.1 96.1,-140.2 186.9,-272.8 310.4,-349.8 183.2,-114 451.9,-112.2 798.5,5.8 64,21.8 127.8,45.5 191.7,69.3 249.1,92.5 504.5,187.6 788.7,182.1 402.8,-8.7 746.2,-219.2 1078.2,-422.8 337,-206.6 655.3,-401.7 997.6,-362.4 235.1,26.9 449,163.2 675.4,307.5 257.1,163.9 523,333.4 846.1,356.5 454.4,33 836.3,-230.8 1204.8,-485.4 362.3,-250.4 704.5,-486.8 1062.4,-393.9 263.9,68.5 468.1,263.6 684.3,470.2 197.8,189 402.3,384.4 669.8,500.7 436,189.4 855,34.2 1260.4,-115.8 260.6,-96.6 530.1,-196.4 794.2,-196.4 h 2.2 c 560.7,1.1 793,293 1038.9,601.9 140.5,176.6 285.9,359.2 491.7,479.4 322.4,188.2 714.6,179.9 1093.6,172.2 305.9,-6.5 594.7,-12.5 828.8,80 459,181 636.6,827.2 607.1,1138.1 -38.9,409.7 -226.6,741.3 -515,909.9 -341.2,199.4 -751.9,256.2 -1149.1,311.2 l 42.9,309.9 c 407.5,-56.3 869.4,-120.3 1264.1,-350.9 376.4,-220.1 620.1,-639.4 668.6,-1150.5 43.8,-461.4 -211.1,-1225.1 -803.7,-1458.8 -292.7,-115.5 -627,-108.4 -950.2,-101.8 -351.1,7.4 -683,14.3 -929.4,-129.6 -155.1,-90.6 -276.3,-242.8 -404.5,-404 -254.8,-320.1 -571.9,-718.5 -1283.1,-719.9 -1,0 -2,0 -3,0 -320,0 -616.3,109.7 -902.8,215.8 -379,140.3 -706.4,261.7 -1026.9,122.3 -216.4,-94.1 -392.3,-262.1 -578.3,-439.9 -235.7,-225.2 -479.3,-457.9 -822,-546.9 -83.8,-21.8 -165.4,-31.6 -245.1,-31.6"
         style="fill:#390075;fill-opacity:1;fill-rule:nonzero;stroke:none"
         id="path70" /><path
         d="m 20704.8,15947.3 c -225,0 -384.5,2.3 -459.1,2.3 -74.6,0 -234.3,-2.3 -459.2,-2.3 -1556.1,0 -6246.7,105.6 -7662,1778.9 -83.9,99.3 -157.5,216.3 -219.8,348.5 8.7,8.7 17.4,17.3 26.3,25.8 62.8,-71.3 131.2,-140 204.8,-205.9 -19.5,7 -38.9,14.1 -58.2,21.3 62.8,-47.6 128.7,-93.6 197.3,-138.1 1602,-1261.4 5199.5,-1477.8 7477.5,-1477.8 94.5,0 186.8,0.4 276.5,1.1 48.5,0.4 86.8,0.6 113.8,0.6 27,0 65.2,-0.2 113.7,-0.6 90,-0.7 182.2,-1.1 276.9,-1.1 2476.3,0 6515.4,256 7849.8,1833.8 121.9,144.2 221.5,316.8 298.9,512.1 25.6,-17.6 50.3,-36.5 74,-56.7 -76.1,-353.2 -208.4,-649.1 -389.5,-863 C 26951.4,16053 22261,15947.3 20704.8,15947.3"
         style="fill:#1e9e4c;fill-opacity:1;fill-rule:nonzero;stroke:none"
         id="path72" /><path
         d="m 11904.7,18074.7 c -18.4,39.1 -35.9,79.6 -52.4,121.3 16.2,-21.3 32.9,-42 49.9,-62.2 9.5,-11.2 19,-22.2 28.8,-33.3 -8.9,-8.5 -17.6,-17.1 -26.3,-25.8 m 16851.3,514.5 c -23.7,20.2 -48.4,39.1 -74,56.7 19.4,49.1 37.5,99.7 54.1,151.6 17.8,-11.3 35.2,-23.1 52.1,-35.1 -9.3,-59.2 -20,-116.9 -32.2,-173.2"
         style="fill:#390075;fill-opacity:1;fill-rule:nonzero;stroke:none"
         id="path74" /><path
         d="m 20245.6,26544.2 c 7978,0 9533,-6639.8 8121,-8309.4 -1619.8,-1915.3 -7530.5,-1776.6 -8121,-1776.6 -590.5,0 -6501.2,-138.7 -8120.9,1776.6 -1412,1669.6 143,8309.4 8120.9,8309.4"
         style="fill:#ff954d;fill-opacity:1;fill-rule:nonzero;stroke:none"
         id="path76" /><path
         d="m 28260.1,22385 c -613.6,1251.7 -2357.6,3751.6 -6620.2,4234 3655.4,-390.4 5711.6,-2307.3 6620.2,-4234"
         style="fill:#aff1ff;fill-opacity:1;fill-rule:nonzero;stroke:none"
         id="path78" /><path
         d="m 11924.5,18697 c -320.8,745.3 -314.4,2053.1 328.2,3438.1 593.2,1278.7 2549.6,4252.6 7890,4252.6 1736.9,0 3116.2,-314.7 4206.7,-783.3 74.6,-52.6 148,-106.3 219.4,-160.7 -1128.8,462.4 -2500.1,744.3 -4144.3,744.3 -1797,0 -3267.4,-337.4 -4452.1,-878.4 -148.9,-243.7 -422.9,-501.3 -776.3,-705.4 -304.9,-176 -614.9,-281 -877.6,-311.1 -2105.6,-1702.8 -2730.2,-4151.3 -2394,-5596.1"
         style="fill:#ffd5b8;fill-opacity:1;fill-rule:nonzero;stroke:none"
         id="path80" /><path
         d="m 20546.1,16612.9 c -0.2,0 -0.7,0 -0.9,0 -94.6,0 -190.5,0.3 -286.4,1.1 -49.5,0.3 -88.5,0.6 -116.1,0.6 -27.6,0 -66.6,-0.3 -116.2,-0.6 -96.1,-0.8 -191.5,-1.1 -286.4,-1.1 -2899.6,0 -5168,343.6 -6525.2,969.7 1840.9,-424.2 3995,-464.5 4956.2,-464.5 225.5,0 385.2,2.2 459.9,2.2 74.8,0 235.1,-2.2 460.8,-2.2 1557.8,0 6245.6,105.8 7660.4,1778.8 944.6,1116.8 561.3,4457.3 -2183.4,6546.8 335.9,-137.6 650.5,-291.2 944.2,-458.1 80.8,-52.3 159.4,-105.4 235.8,-159.2 2739.6,-2089.8 3121.5,-5426.8 2177.6,-6542.8 -336.3,-397.7 -857.8,-706.8 -1478.1,-947 -1381.7,-469.6 -3408.2,-723.7 -5902.2,-723.7"
         style="fill:#c36859;fill-opacity:1;fill-rule:nonzero;stroke:none"
         id="path82" /><path
         d="m 25513,24985.6 c -293.7,166.9 -608.3,320.5 -944.2,458.1 -71.4,54.4 -144.8,108.1 -219.4,160.7 431.8,-185.5 818,-395 1163.6,-618.8"
         style="fill:#c395a4;fill-opacity:1;fill-rule:nonzero;stroke:none"
         id="path84" /><path
         d="m 12274.9,17777.8 c -68.6,44.5 -134.5,90.5 -197.3,138.1 19.3,-7.2 38.7,-14.3 58.2,-21.3 44.5,-39.9 90.9,-78.8 139.1,-116.8"
         style="fill:#266e58;fill-opacity:1;fill-rule:nonzero;stroke:none"
         id="path86" /><path
         d="m 20142.7,16614.6 c 27.6,0 66.6,-0.3 116.1,-0.6 95.9,-0.8 191.8,-1.1 286.4,-1.1 3908.5,-0.1 6669.7,624.1 7598.9,1722.9 516.9,611.3 653.5,2150.5 -111.5,3799.4 -593.3,1278.6 -2549.6,4252.5 -7889.9,4252.5 -5340.4,0 -7296.8,-2973.9 -7890,-4252.6 -765,-1648.8 -628.4,-3188 -111.5,-3799.3 929.1,-1098.7 3690.8,-1722.9 7598.9,-1722.9 94.9,0 190.3,0.3 286.4,1.1 49.6,0.3 88.6,0.6 116.2,0.6 m 390.6,-314.6 c -94.7,0 -186.9,0.4 -276.9,1.1 -48.5,0.4 -86.7,0.6 -113.7,0.6 -27,0 -65.3,-0.2 -113.8,-0.6 -2442,-18.7 -6741.3,194.5 -8126.7,1832.7 -692.5,818.9 -664.5,2557.1 66.6,4133 618.5,1333.1 2653.2,4433.9 8173.9,4433.9 5520.6,0 7555.2,-3100.7 8173.7,-4433.8 731.2,-1575.9 759.3,-3314.2 66.7,-4133.1 C 27048.7,16556 23009.6,16300 20533.3,16300"
         style="fill:#390075;fill-opacity:1;fill-rule:nonzero;stroke:none"
         id="path88" /><path
         d="m 19338.5,20122.9 c 62.6,-125.7 111.7,-235.6 169.2,-333 56.4,-97.2 117.4,-181.4 188.7,-253.6 70.6,-72.3 150.6,-135.9 244.1,-181.8 93.1,-45.5 199.2,-70.3 305.1,-68.1 106,1.8 210.4,28.5 303.1,73.1 92.5,45.4 174.8,105.2 244.6,178.1 71.3,72.2 127.7,158.7 179.8,255.8 54.6,96.9 105,203.9 179.7,329.5 l 0.6,1.1 c 9.2,15.4 29.1,20.4 44.5,11.3 5.1,-3.1 9.2,-7.5 11.9,-12.4 71.4,-131.2 88,-281.6 62,-428.8 -27.9,-146.7 -99.7,-289 -201,-407.2 -102.3,-117.8 -234.8,-209.1 -378.4,-264.4 -143.5,-56.4 -295.8,-81.3 -446.8,-80.5 -151,3.2 -301.6,30 -444.6,85.5 -142.7,54.8 -277.5,142.3 -379,260.8 -101.3,118.1 -168.5,262.8 -192,409.3 -23.2,146.8 -7.9,294.1 51.4,425.3 7.2,15.7 25.7,22.7 41.5,15.6 6.8,-3.1 11.9,-8.3 15,-14.5 l 0.6,-1.1"
         style="fill:#390075;fill-opacity:1;fill-rule:nonzero;stroke:none"
         id="path90" /><path
         d="m 16557.2,18693.1 c 0,-294.7 -458.9,-533.6 -1025.1,-533.6 -566.1,0 -1025,238.9 -1025,533.6 0,294.8 458.9,533.7 1025,533.7 566.2,0 1025.1,-238.9 1025.1,-533.7"
         style="fill:#ff5548;fill-opacity:1;fill-rule:nonzero;stroke:none"
         id="path92" /><path
         d="m 25984.2,18693.1 c 0,-294.7 -458.9,-533.6 -1025.1,-533.6 -566.1,0 -1025,238.9 -1025,533.6 0,294.8 458.9,533.7 1025,533.7 566.2,0 1025.1,-238.9 1025.1,-533.7"
         style="fill:#ff5548;fill-opacity:1;fill-rule:nonzero;stroke:none"
         id="path94" /><path
         d="m 31191.6,17036 c 0,0 1772.2,7031.8 3025.6,9596.3 116.8,239.1 470.3,188.1 514.9,-74.2 194.6,-1144.3 322.1,-3850.6 -1091.6,-8956.2 -103.5,-373.9 -443.5,-629.9 -831.5,-635.7 -193.2,-2.9 -360.3,-38 -379.4,-147 l -1238,216.8"
         style="fill:#b2b2b2;fill-opacity:1;fill-rule:nonzero;stroke:none"
         id="path96" /><path
         d="m 31221.8,17055.5 1190.1,-208.3 c 33.8,91.7 167,139.9 396.7,143.5 382.7,5.7 707.6,254 808.3,617.8 1408.1,5085.5 1288,7787.5 1091.1,8945.5 -18.5,108.9 -100.8,189.4 -209.8,205 -108.7,15.7 -210.6,-38.2 -259.1,-137.4 -1200,-2455.4 -2898.4,-9098.1 -3017.3,-9566.1 m 1227.7,-264.6 -1288,225.5 6.4,25.5 c 17.8,70.4 1787.2,7063.7 3027.3,9601.2 58,118.6 179.7,183.2 310,164.3 130.3,-18.7 228.9,-115 251,-245.2 197.6,-1162 318.5,-3872.1 -1092.1,-8966.8 -106.6,-384.9 -450.1,-647.5 -854.7,-653.7 -152.6,-2.3 -338.1,-26.1 -355.7,-126.7 l -4.2,-24.1"
         style="fill:#390075;fill-opacity:1;fill-rule:nonzero;stroke:none"
         id="path98" /><path
         d="m 31647.6,17153.6 -247.2,60.9 c -30.7,7.6 -61.4,11.2 -91.6,11.2 -14.8,0 -29.6,-0.9 -44.1,-2.6 295.5,1149.5 1852.7,7103.3 2974.4,9398.5 42.9,87.8 127.7,140.1 221.9,140.1 12.3,0 24.7,-0.9 37.2,-2.7 75.5,-10.8 138.2,-52.8 175.8,-113.8 -17,-18.8 -32.1,-40.9 -44.3,-66 -1137.6,-2327.8 -2702.9,-8336.4 -2982.1,-9425.6"
         style="fill:#e0e0e0;fill-opacity:1;fill-rule:nonzero;stroke:none"
         id="path100" /><path
         d="m 31238.5,17219.1 c 287.9,1122.5 1845.3,7094.5 2978.5,9413.3 51.2,104.8 147.8,153.8 244,153.8 89.8,0 179.3,-42.8 230.9,-122.9 -6.2,-5.7 -12.2,-11.7 -17.9,-18.1 -37.6,61 -100.3,103 -175.8,113.8 -12.5,1.8 -24.9,2.7 -37.2,2.7 -94.2,0 -179,-52.3 -221.9,-140.1 -1121.7,-2295.2 -2678.9,-8249 -2974.4,-9398.5 -8.8,-1 -17.5,-2.3 -26.2,-4"
         style="fill:#b099c8;fill-opacity:1;fill-rule:nonzero;stroke:none"
         id="path102" /><path
         d="m 32834.3,16967.2 c 377.3,16.3 704.9,269 806.1,634.9 1413.7,5105.4 1286.2,7811.6 1091.7,8956 -37.8,222.1 -297.2,292.6 -446.7,163.8 156,-1460.2 108.4,-4423.8 -1379,-9575.8 -18.1,-62.9 -42.4,-122.7 -72.1,-178.9"
         style="fill:#ffffff;fill-opacity:1;fill-rule:nonzero;stroke:none"
         id="path104" /><path
         d="m 32572.7,16769.9 c 2.7,2.4 9,10.9 11,22.3 l -308.2,54 c 31.3,178.6 210,271.6 531.1,276.4 323.7,4.9 598.2,214.4 683.1,521.1 1401.3,5060.8 1283.2,7741 1088.2,8888.2 -13.4,78.3 -78.8,93.6 -98.5,96.5 -19.7,2.8 -86.8,6.5 -121.6,-64.7 -1231.9,-2520.6 -2996.8,-9495.8 -3014.5,-9566 l -303.4,76.5 c 72.5,287.8 1790.5,7077 3036.7,9626.9 83.6,171.1 259.3,264.1 447.4,237 188.2,-27.1 330.4,-166 362.4,-353.8 199.4,-1172.8 322.3,-3904.8 -1095.1,-9024.1 -120.5,-435 -523.4,-743.6 -980,-750.4 -193.3,-3 -238.2,-39.5 -238.6,-39.9"
         style="fill:#390075;fill-opacity:1;fill-rule:nonzero;stroke:none"
         id="path106" /><path
         d="m 32537,16542.5 c -54.4,-215.9 -144.7,-575 -250,-995.8 -177.9,-713.1 -398.6,-1604.2 -560.1,-2277.3 -78.2,-326.7 -91.5,-575.4 -76.7,-785.1 32.1,-460.4 197.2,-731.1 92.7,-1216.9 -147,-684.9 -912.5,-922.7 -1520.4,-522.2 -756.1,499.1 -413,1774.3 -273,2253.9 9,31.3 22.3,75.9 38.7,132.2 142.8,487.7 539.8,1842.7 831.6,2837 116.2,397.1 215.9,737 275.8,940.8 33.6,114.6 151.4,182.2 267.1,153.7 l 1011.6,-249.6 c 119.7,-29.3 192.8,-151 162.7,-270.7"
         style="fill:#4089ff;fill-opacity:1;fill-rule:nonzero;stroke:none"
         id="path108" /><path
         d="m 30848.8,10706.9 c -182.1,0 -370.8,57.4 -540,169 -288.6,190.3 -422.1,542.4 -400.2,1051 72.8,-134.7 174.7,-252.8 313.9,-344.6 200.6,-132.2 418.4,-194.8 625.4,-194.8 306.4,0 589.1,137 758.2,388.9 19.7,-145.3 22.8,-294 -16.3,-476.2 -54.1,-252 -208.9,-441.9 -435.9,-534.7 -96.1,-39.3 -199.5,-58.6 -305.1,-58.6"
         style="fill:#3e60d5;fill-opacity:1;fill-rule:nonzero;stroke:none"
         id="path110" /><path
         d="m 31309.3,16912.7 c -28.8,0 -55.2,-18.9 -63.7,-47.8 -227,-774 -1025.9,-3498.7 -1145.8,-3909.6 -315.3,-1080.3 -245,-1779.9 209,-2079.4 267.3,-176.2 583.2,-217.5 845.1,-110.4 227,92.8 381.8,282.7 435.9,534.7 60.6,282.3 20,484.2 -27,718 -63.5,315.8 -135.5,673.8 11.8,1287.7 254,1058.6 651.6,2642.8 810.7,3274.7 5.9,23.3 -2.2,41.6 -7.5,50.4 -5.3,8.9 -17.8,24.6 -41.2,30.4 l -1011.2,249.3 c -5.3,1.4 -10.8,2 -16.1,2 M 30849,10394 c -242.8,0 -491.5,74.9 -712.4,220.7 -582,383.8 -695.5,1200.8 -337.1,2428.3 119.8,410.8 918.9,3135.9 1145.9,3910.1 57.3,195.4 257.3,310.1 455,261.4 l 1011.1,-249.3 c 98.8,-24.3 182.1,-85.8 234.6,-173 52.3,-87.2 67.5,-189.4 42.6,-288 -159,-631.5 -556.2,-2214.3 -809.8,-3271.4 -131.2,-546.8 -69.2,-854.9 -9.3,-1152.9 49.3,-245.6 100.4,-499.5 26.1,-845.3 -75.3,-351 -302.5,-627.6 -623.4,-758.8 -134.1,-54.8 -277.6,-81.8 -423.3,-81.8"
         style="fill:#390075;fill-opacity:1;fill-rule:nonzero;stroke:none"
         id="path112" /><path
         d="m 31669.1,16036.3 c 109.6,-19.2 214.1,54.1 233.2,163.8 19.2,109.6 -54.1,214.1 -163.7,233.3 -109.7,19.2 -214.1,-54.2 -233.3,-163.8 -19.2,-109.6 54.1,-214.1 163.8,-233.3"
         style="fill:#4a2922;fill-opacity:1;fill-rule:nonzero;stroke:none"
         id="path114" /><path
         d="m 31703.4,16412 c -36.1,0 -71.2,-11.1 -101.3,-32.2 -38.7,-27.2 -64.6,-67.8 -72.7,-114.4 -8.2,-46.6 2.3,-93.6 29.5,-132.3 27.2,-38.7 67.8,-64.6 114.4,-72.7 46.8,-8.2 93.6,2.3 132.3,29.5 38.7,27.2 64.5,67.8 72.7,114.4 8.1,46.6 -2.4,93.6 -29.5,132.3 -27.2,38.7 -67.9,64.5 -114.4,72.7 -10.4,1.8 -20.7,2.7 -31,2.7 m 0.9,-403.2 c -13.1,0 -26.3,1.2 -39.4,3.4 -59.5,10.5 -111.3,43.4 -146,92.8 -34.7,49.4 -48.1,109.4 -37.7,168.8 10.4,59.4 43.4,111.3 92.8,146 49.4,34.7 109.2,48.1 168.8,37.6 59.4,-10.4 111.3,-43.3 146,-92.7 34.7,-49.4 48,-109.4 37.6,-168.8 -10.4,-59.5 -43.4,-111.3 -92.7,-146 -38.5,-27 -83.4,-41.1 -129.4,-41.1"
         style="fill:#390075;fill-opacity:1;fill-rule:nonzero;stroke:none"
         id="path116" /><path
         d="m 9085.11,17600.4 -1393.66,-260 -775.55,5106.2 1051.81,196.1 1117.4,-5042.3"
         style="fill:#848484;fill-opacity:1;fill-rule:nonzero;stroke:none"
         id="path118" /><path
         d="m 6943.64,22426.8 768.17,-5057.7 1343.94,250.7 -1106.79,4994.6 -1005.32,-187.6 m 727.44,-5115 -782.91,5154.4 1098.29,204.9 5.13,-23.1 1122.85,-5067 -1443.36,-269.2"
         style="fill:#390075;fill-opacity:1;fill-rule:nonzero;stroke:none"
         id="path120" /><path
         d="m 9085.26,17600.2 -1393.68,-259.7 -643.73,4238.6 c -21.03,138.6 -117.4,254.6 -250.47,298.6 -1922.89,635.3 -1667.62,4379.1 -1594.72,5145.5 3.91,40.6 21.12,77.4 46.94,106 26.21,28.5 61.4,48.9 101.31,56.3 99.35,18.4 194.79,-47 213.19,-146.3 l 479.55,-2571.1 c 32.07,-171.7 181.87,-291.4 350.08,-291.4 21.51,0 43.81,2.4 65.71,6.3 193.62,36 321.14,222.2 284.76,415.8 l -456.47,2447.1 c -3.52,19.1 -5.09,37.9 -5.09,56.7 0,145.9 103.66,275.7 252.29,303.5 167.81,31.3 329.36,-79.4 360.64,-247.2 l 456.1,-2447.1 c 32.07,-171.3 181.89,-291 350.08,-291 21.51,0 43.81,2.4 65.71,6.3 193.63,35.9 321.14,222.1 285.16,415.4 l -479.95,2571.4 c -1.96,11.4 -3.13,22.3 -3.13,33.7 0,86 61.41,162.7 149.43,179.5 80.18,14.9 160.37,-25 196.75,-97.8 344.84,-688.6 1932,-4088.2 367.68,-5373.8 -108.27,-89 -156.32,-232 -125.99,-368.8 l 927.85,-4186.5"
         style="fill:#b2b2b2;fill-opacity:1;fill-rule:nonzero;stroke:none"
         id="path122" /><path
         d="m 5384.36,27164.1 c -9.57,0 -19.28,-0.9 -29,-2.7 -33.88,-6.3 -64.2,-23.1 -87.75,-48.8 -23.24,-25.6 -37.3,-57.4 -40.62,-91.8 -70.8,-744.5 -327.54,-4490.3 1578.08,-5119.9 141.99,-46.9 244.28,-168.8 266.94,-318.1 l 639.94,-4213.6 1343.95,250.4 -922.37,4161.8 c -32.66,147.5 18.81,298.1 134.33,393 1552.49,1275.9 -39.16,4675.4 -374.02,5344 -31.35,62.6 -101.61,97.6 -170.46,84.7 -74.91,-14.3 -129.4,-79.8 -129.4,-155.5 0,-10 1.03,-19.6 2.74,-29.5 L 8076.65,24847 c 18.6,-100 -2.83,-201.2 -60.35,-285 -57.57,-83.9 -144.33,-140.4 -244.34,-159 -24.9,-4.4 -48.43,-6.6 -70.21,-6.6 -183.06,0 -340.39,130.7 -374.12,310.9 l -456.06,2447.1 c -13.96,74.7 -56.2,139.6 -118.94,182.6 -62.8,43 -138.58,59 -213.19,45.1 -134.61,-25.2 -232.33,-142.7 -232.33,-279.5 0,-18.1 1.53,-35.2 4.65,-52.3 l 456.44,-2447 c 18.81,-100.1 -2.48,-201.5 -60.01,-285.4 -57.47,-83.9 -144.24,-140.4 -244.23,-159 -24.91,-4.4 -48.44,-6.6 -70.22,-6.6 -183.06,0 -340.43,130.9 -374.13,311.3 l -479.54,2571.1 c -14.11,76.1 -80.86,129.4 -155.71,129.4 m 2286.87,-9852.2 -647.55,4263.5 c -19.93,131 -109.53,238 -233.94,279.1 -1940.87,641.2 -1682.81,4420 -1611.38,5171 4.3,44.9 22.65,86.4 53.12,120.1 30.43,33.1 71.19,55.8 114.94,63.9 112.84,20.9 221,-53.6 241.71,-165.9 l 479.54,-2571 c 29.39,-157.3 166.5,-271.4 326.07,-271.4 18.9,0 39.56,1.9 61.42,5.8 87.01,16.2 162.61,65.4 212.7,138.5 50.1,73.2 68.71,161.5 52.29,248.8 l -456.43,2447 c -3.72,20.2 -5.52,40.2 -5.52,61.3 0,160.3 114.49,298.1 272.26,327.5 87.41,16.3 176.27,-2.4 249.81,-52.8 73.53,-50.4 123.04,-126.4 139.34,-213.9 l 456.06,-2447.1 c 29.39,-157 166.56,-271 326.08,-271 18.89,0 39.55,1.9 61.42,5.8 87.02,16.2 162.65,65.4 212.8,138.5 50.15,73.1 68.84,161.3 52.63,248.4 l -479.98,2571.4 c -2.24,13.1 -3.56,25.4 -3.56,38.2 0,99.2 71.19,184.8 169.28,203.5 90.44,16.8 182.23,-28.8 223.25,-110.9 337.74,-674.3 1942.53,-4104.1 361.33,-5403.6 -101.22,-83.2 -146.29,-215.2 -117.63,-344.6 l 933.3,-4211.1 -1443.36,-269"
         style="fill:#390075;fill-opacity:1;fill-rule:nonzero;stroke:none"
         id="path124" /><path
         d="m 5940.32,24294.1 c -118.59,39.8 -212.73,141.1 -237.38,273 l -376.3,2017.8 c 10.47,182.5 22.81,328 31.95,423.2 0.68,7.5 4.29,12.9 6.2,15 3.07,3.3 8.44,7.5 16.65,8.6 l 2.04,0.1 c 12.02,0 25.45,-13.7 28.42,-29.6 l 478.03,-2562.7 c 9.56,-51.4 26.61,-100.3 50.39,-145.4"
         style="fill:#e0e0e0;fill-opacity:1;fill-rule:nonzero;stroke:none"
         id="path126" /><path
         d="m 7248.25,24538.2 c -118.54,39.9 -212.64,141 -237.27,272.6 l -454.77,2439.9 c 5.75,1.4 11.78,2.4 18.1,3.2 5.06,0.5 10.11,0.8 15.14,0.8 72.43,0 139.68,-58 154.29,-136.3 l 454.2,-2435 c 9.57,-51.3 26.59,-100.1 50.31,-145.2"
         style="fill:#e0e0e0;fill-opacity:1;fill-rule:nonzero;stroke:none"
         id="path128" /><path
         d="m 8707.04,18583.2 c -52.65,10.4 -106.82,15.9 -161.91,15.9 l -728.38,3286.6 c -30.12,136.9 18,279.7 125.95,368.9 1357.21,1114.9 342.95,3820.7 -174.91,4968 l -41.04,220 c -1.61,8.8 1.36,15.5 4.15,19.6 2.78,4.1 7.96,9.3 16.85,10.9 0.92,0.2 1.87,0.3 2.85,0.3 10.01,0 22.77,-9.2 29.12,-21.9 325.1,-651.4 1872.76,-3962.4 407.18,-5173.2 -155.76,-128.7 -225.09,-332.3 -180.9,-531.5 l 701.04,-3163.6"
         style="fill:#e0e0e0;fill-opacity:1;fill-rule:nonzero;stroke:none"
         id="path130" /><path
         d="m 8286.56,22157.6 h 0.49 -0.49 m -2903.08,4874.2 -2.04,-0.1 c -8.21,-1.1 -13.58,-5.3 -16.65,-8.6 -1.91,-2.1 -5.52,-7.5 -6.2,-15 -69.64,-725.5 -325.44,-4376 1482.95,-4980.5 192.58,-64.3 331.21,-229.5 361.82,-430.9 l 618.65,-4072.9 1075.35,200.5 -891.36,4022.5 c -44.19,199.2 25.14,402.8 180.9,531.5 1465.58,1210.8 -82.08,4521.8 -407.18,5173.2 -6.98,13.9 -21.68,23.7 -31.97,21.6 -8.89,-1.6 -14.07,-6.8 -16.85,-10.9 -2.79,-4.1 -5.76,-10.8 -4.15,-19.6 L 8204,24884.2 c 25.58,-137.4 -5.86,-282.9 -86.29,-399.4 -78.22,-113.2 -193.6,-188.6 -324.9,-212.2 -133.69,-24 -268.9,5 -380.76,81.8 -113.23,78.1 -189.11,194.9 -214.11,329 l -454.2,2435 c -15.62,83.7 -91.46,144.3 -169.43,135.5 -59.91,-7 -93.8,-44.2 -108.69,-65.7 -22.66,-33 -31.15,-73.7 -23.68,-113.9 l 454.04,-2434.1 c 50.83,-272.5 -114.05,-537.7 -375.34,-603.8 -142.87,-36 -294.43,-9.2 -416.21,73.7 -113.66,78.5 -189.55,195.3 -214.5,329.4 l -478.03,2562.7 c -2.97,15.9 -16.4,29.6 -28.42,29.6 m 2177.79,-9875 -667.29,4392.9 c -12.89,84.8 -71,154.2 -151.66,181.2 -871.87,291.4 -1425.73,1183.1 -1646.19,2650.2 -167.48,1114.5 -90.08,2229.4 -49.06,2657 7.07,73.5 37.1,141.3 86.75,196.1 54.75,59.4 127.75,97.3 206.5,107.7 178.43,23.6 345.26,-100.3 379.2,-282.4 l 478.03,-2562.7 c 9.77,-52.3 39.55,-98 83.89,-128.6 47.7,-32.5 105.56,-42.8 162.45,-28.4 99.95,25.3 164.74,134.3 144.48,243.1 L 6134.32,27017 c -22.81,122.4 3.31,246.2 73.53,348.6 76.85,111.2 197.07,183.5 330.18,199.1 241.11,28.2 467.33,-142.6 513.32,-389 l 454.21,-2434.9 c 9.76,-52.4 39.54,-98.1 83.88,-128.7 43.12,-29.5 95.85,-40.8 148.05,-31.5 48.63,8.8 92.24,37.9 122.75,82.1 33.41,48.3 46.58,108.2 36.14,164.1 l -477.25,2558.5 c -16.6,89.1 2.49,179.2 53.67,253.9 51.31,74.9 128.85,125.2 218.2,141.6 147.56,27.2 299.37,-50.6 368.75,-189.6 192.82,-386.4 667.68,-1403.7 910.65,-2501.3 319.19,-1441.7 122.65,-2468.9 -584.18,-3052.9 h -0.05 c -64.64,-53.4 -93.26,-138.7 -74.71,-222.5 l 961.38,-4338.4 -1711.57,-319.3"
         style="fill:#390075;fill-opacity:1;fill-rule:nonzero;stroke:none"
         id="path132" /><path
         d="m 9587.9,11038.2 c -582.83,-108.7 -1139.82,287.1 -1229.01,873.5 l -102.48,651.2 -450.22,2859.4 -339.13,2155.6 c -57.5,365.8 186.19,710.8 549.96,778.4 l 398.19,74.4 c 363.79,67.6 715.43,-166.3 793.67,-527.7 l 409.53,-1896.7 624.69,-2892.6 176.4,-817.9 c 128.3,-578.9 -248.4,-1148.9 -831.6,-1257.6"
         style="fill:#f9db03;fill-opacity:1;fill-rule:nonzero;stroke:none"
         id="path134" /><path
         d="m 8543.06,18419 c -40.73,0 -81.98,-3.7 -123.54,-11.4 l -398.19,-74.4 c -353.71,-65.8 -586.97,-396 -531.1,-751.6 l 891.84,-5666.3 c 42.24,-277.4 191.36,-519.6 419.97,-682 228.52,-162.3 505.95,-223.3 781.55,-172 275.72,51.4 512.71,208.5 667.31,442.3 154.6,233.8 206.3,513.4 145.7,787.1 L 9185.93,17898 c -67.14,310.2 -337.26,521 -642.87,521 m 849.66,-7422.4 c -220.07,0 -434.14,67.9 -617.88,198.4 -239.1,169.9 -395.06,423.1 -439.2,713.1 l -891.8,5666.2 c -59.92,381 189.98,734.6 568.9,805.1 l 398.19,74.3 c 379,70.7 739.4,-169.2 820.89,-545.8 l 1210.68,-5607.2 c 63.4,-286.1 9.3,-578.4 -152.4,-823 -161.7,-244.5 -409.54,-408.8 -697.92,-462.6 -66.6,-12.4 -133.3,-18.5 -199.46,-18.5"
         style="fill:#390075;fill-opacity:1;fill-rule:nonzero;stroke:none"
         id="path136" /><path
         d="m 10167,12227.2 -125.4,581.4 -31.8,147.5 c 33,19.2 64.6,38.3 94.9,57.2 l 136.8,-633.5 c -20.7,-52.9 -45.6,-103.9 -74.5,-152.6 m -925.3,4285.7 -234.27,1085 c -69.15,319.5 -351.93,539.3 -667.87,539.3 -41.49,0 -83.55,-3.8 -125.78,-11.6 l -398.2,-74.4 c -23.28,-4.3 -46.05,-9.7 -68.29,-16.3 75.03,84.4 177.97,145.2 298.4,167.6 l 398.15,74.3 c 33.25,6.2 66.3,9.2 98.83,9.2 244.09,0 459.71,-168.3 513.23,-416.1 l 281.48,-1303.5 c -35.57,-14 -67.6,-32 -95.68,-53.5"
         style="fill:#fdf19a;fill-opacity:1;fill-rule:nonzero;stroke:none"
         id="path138" /><path
         d="m 9393.31,11176.6 c -183.19,0 -361.42,56.5 -514.37,165.2 -198.92,141.3 -328.65,352 -365.47,594.1 l -17.57,111.6 c 194.18,-209 470.42,-335.4 766.81,-335.4 63.88,0 128.62,5.9 193.77,18.1 310.28,57.7 562.12,246.1 710.52,497 l 51.1,-236.5 c 15,-68.2 23.1,-136.3 24.7,-203.5 -24.6,-73.3 -58.9,-143.8 -102.8,-210.2 -134.5,-203.5 -340.79,-340.2 -580.68,-385 -55.42,-10.3 -110.94,-15.4 -166.01,-15.4"
         style="fill:#bf9925;fill-opacity:1;fill-rule:nonzero;stroke:none"
         id="path140" /><path
         d="m 10242.8,11787.2 c -1.6,67.2 -9.7,135.3 -24.7,203.5 l -51.1,236.5 c 28.9,48.7 53.8,99.7 74.5,152.6 l 25.4,-117.7 c 35.6,-160.6 26.7,-323.5 -24.1,-474.9"
         style="fill:#c2a88f;fill-opacity:1;fill-rule:nonzero;stroke:none"
         id="path142" /><path
         d="m 8542.67,18286 c -32.53,0 -65.58,-3 -98.83,-9.2 l -398.15,-74.3 c -282.52,-52.7 -468.84,-316.3 -424.16,-600.2 l 891.94,-5666.4 c 36.82,-242.1 166.55,-452.8 365.47,-594.1 198.93,-141.3 440.63,-194.5 680.38,-149.8 239.89,44.8 446.18,181.5 580.68,385 134.6,203.6 179.7,446.9 126.9,685.1 l -1211,5607.8 c -53.52,247.8 -269.14,416.1 -513.23,416.1 m 849.8,-7422.4 c -247.51,0 -488.18,76.3 -694.77,223.1 -268.71,190.9 -443.95,475.5 -493.46,801.3 l -891.8,5665.7 c -71.19,452.3 225.68,872.5 675.88,956.4 l 398.14,74.4 c 450.35,83.9 878.57,-201 975.3,-648.6 L 10572.6,12329 c 71.1,-321 10.3,-649.6 -171.5,-924.5 -181.8,-275 -460.39,-459.6 -784.37,-520.1 -74.9,-13.9 -149.89,-20.8 -224.26,-20.8"
         style="fill:#390075;fill-opacity:1;fill-rule:nonzero;stroke:none"
         id="path144" /><path
         d="m 8468.96,17206.6 c 145.56,44.6 227.46,198.7 182.92,344.2 -44.54,145.6 -198.64,227.5 -344.19,183 -145.57,-44.6 -227.47,-198.7 -182.93,-344.2 44.54,-145.6 198.64,-227.5 344.2,-183"
         style="fill:#390075;fill-opacity:1;fill-rule:nonzero;stroke:none"
         id="path146" /><path
         d="m 10185.7,14797.1 c 0,0 279.1,-553.2 558.2,-214.3 279.1,338.9 348.8,1221 204.3,1475.2 -139.5,245.3 -902.3,550.5 -1525.12,372.4 -622.81,-178 762.62,-1633.3 762.62,-1633.3"
         style="fill:#ff954d;fill-opacity:1;fill-rule:nonzero;stroke:none"
         id="path148" /><path
         d="m 10549.9,14629.5 c -0.9,0 -1.8,0 -2.6,0.1 -31.2,3.4 -72.7,35.9 -113.4,80.8 -7.2,53.1 -15.3,107.4 -24.2,162.6 0.2,-0.5 0.3,-1 0.4,-1.5 v 0 0 c -16.7,103.6 -36.4,210.3 -59.5,318 7.8,-0.9 15.7,-1.4 23.6,-1.4 61.8,0 127.3,30.4 192.8,109.8 124.9,151.7 207.8,412.2 248.5,676.6 108.1,-208.5 40.8,-1009 -192.4,-1292.2 -16.6,-20.2 -48.6,-52.8 -73.2,-52.8"
         style="fill:#c36859;fill-opacity:1;fill-rule:nonzero;stroke:none"
         id="path150" /><path
         d="m 10325.2,14867.9 c 54.8,-107.3 159.4,-231.4 222.1,-238.3 24.9,-2.5 58.6,31.8 75.8,52.7 235.6,286 301.9,1099.9 189.1,1298.4 -97,170.6 -772.5,463.2 -1346.1,299.3 -38.86,-11.2 -42.19,-23.3 -44.38,-31.4 -53.42,-196.1 410.5,-853 877.28,-1343.6 l 15.9,-16.7 10.3,-20.4 m 226.1,-551.4 c -13.7,0 -26.6,0.8 -38.8,2.1 -240.3,26.8 -404.6,293 -455.2,386.6 -271.13,286.6 -1061.02,1171.9 -937.53,1625.6 33.39,122.8 125.87,211.6 260.3,250 689.03,197 1523.93,-128.7 1704.13,-445.5 179.8,-316.1 91.7,-1274 -219.5,-1651.9 -110.1,-133.6 -225.7,-166.9 -313.4,-166.9"
         style="fill:#390075;fill-opacity:1;fill-rule:nonzero;stroke:none"
         id="path152" /><path
         d="m 8516.85,12538.4 c -32.6,0 -65.33,0.6 -98.51,1.8 l -71.26,452.7 c 10.54,-0.8 21.12,-1.4 31.75,-1.8 33.52,-1.2 66.71,-1.8 99.64,-1.8 176.34,0 344.13,17 502.11,46 372.49,68.4 690.64,203.8 938.32,341.6 l 90.9,-420.8 c -355.22,-206.1 -870.83,-417.7 -1492.95,-417.7"
         style="fill:#bf9925;fill-opacity:1;fill-rule:nonzero;stroke:none"
         id="path154" /><path
         d="m 10009.8,12956.1 -90.9,420.8 c 33.05,18.4 64.82,36.9 95.3,55.2 l 90.5,-418.8 c -30.3,-18.9 -61.9,-38 -94.9,-57.2"
         style="fill:#c2a88f;fill-opacity:1;fill-rule:nonzero;stroke:none"
         id="path156" /><path
         d="m 8418.34,12540.2 c -0.5,0 -1.05,0 -1.55,0 -54.77,2 -108.35,9.8 -160.38,22.7 l -72.46,460.2 c 52.62,-15.6 107.24,-25.9 163.13,-30.2 l 71.26,-452.7 m 1686.36,473.1 -90.5,418.8 c 31.5,18.9 61.7,37.8 90.4,56.3 17.2,11.1 33.9,22.8 50,35 l 88.5,-409.7 c -31.3,-27.4 -64.9,-53.2 -100.5,-76.3 -12.4,-8 -25.1,-16 -37.9,-24.1"
         style="fill:#390075;fill-opacity:1;fill-rule:nonzero;stroke:none"
         id="path158" /><path
         d="m 8378.83,12991.1 c -342.86,12.5 -642.31,248.4 -747.91,587 -146.21,468.7 -301.13,1178.7 -156.47,1787.7 240.25,1011.7 2172.2,1448.9 2517.94,837.3 337.01,-596.1 451.51,-1441.3 490.51,-1955.3 23,-303.5 -122.7,-594.1 -378.4,-759.3 -369.38,-238.6 -974.49,-524.6 -1725.67,-497.4"
         style="fill:#ff954d;fill-opacity:1;fill-rule:nonzero;stroke:none"
         id="path160" /><path
         d="m 7417.75,14913 c 0.01,0.4 0.02,0.7 0.04,1.2 -0.01,-0.4 -0.03,-0.9 -0.04,-1.2 m 0.04,1.2 c 4.17,146.1 20.19,291.2 51.96,431.4 -31.63,-140.1 -47.72,-285.3 -51.96,-431.4 m 84.5,546.1 c 26.44,74.9 62.26,146.3 105.96,214.1 l 0.01,-0.1 c -43.71,-67.7 -79.52,-139.1 -105.97,-214"
         style="fill:#aff1ff;fill-opacity:1;fill-rule:nonzero;stroke:none"
         id="path162" /><path
         d="m 7877.75,15974.5 -0.01,0.1 c 359.71,303 884.78,483.9 1327.99,506.7 0,-0.1 -0.01,-0.1 -0.01,-0.1 -443.17,-22.8 -968.29,-203.6 -1327.97,-506.7"
         style="fill:#fdf19a;fill-opacity:1;fill-rule:nonzero;stroke:none"
         id="path164" /><path
         d="m 7608.26,15674.3 -0.01,0.1 c 71.09,110.1 163.05,210.5 269.49,300.2 l 0.01,-0.1 c -106.45,-89.7 -198.39,-190 -269.49,-300.2"
         style="fill:#b099c8;fill-opacity:1;fill-rule:nonzero;stroke:none"
         id="path166" /><path
         d="m 10350.6,15189.5 h -0.1 c -62.7,291.5 -151.1,590.3 -276,854.6 125,-264.3 213.4,-563.1 276.1,-854.6 m -276.4,855.3 c -0.4,0.8 -0.8,1.7 -1.2,2.5 0.4,-0.9 0.8,-1.7 1.2,-2.5"
         style="fill:#ffd5b8;fill-opacity:1;fill-rule:nonzero;stroke:none"
         id="path168" /><path
         d="m 10410.1,14871.5 c -0.1,0.5 -0.2,1 -0.4,1.5 -16.6,103.1 -36.1,209.3 -59.2,316.5 h 0.1 c 23.1,-107.7 42.8,-214.4 59.5,-318"
         style="fill:#e7c3bd;fill-opacity:1;fill-rule:nonzero;stroke:none"
         id="path170" /><path
         d="m 9205.72,16481.2 c 0,0 0.01,0 0.01,0.1 31.64,1.6 62.9,2.4 93.61,2.4 26.23,0 52.09,-0.6 77.53,-1.8 -25.38,1.2 -51.23,1.8 -77.4,1.8 -30.78,0 -62.05,-0.8 -93.75,-2.5"
         style="fill:#b099c8;fill-opacity:1;fill-rule:nonzero;stroke:none"
         id="path172" /><path
         d="m 7418.16,14740.1 c -1.81,57.6 -2.02,115.3 -0.41,172.9 0.01,0.3 0.03,0.8 0.04,1.2 v 0 c 4.24,146.1 20.33,291.3 51.96,431.4 1.54,6.8 3.12,13.6 4.74,20.3 7.61,32.1 16.91,63.5 27.8,94.4 26.45,74.9 62.26,146.3 105.97,214 71.1,110.2 163.04,210.5 269.49,300.2 359.68,303.1 884.8,483.9 1327.97,506.7 31.7,1.7 62.97,2.5 93.75,2.5 26.17,0 52.02,-0.6 77.4,-1.8 284.61,-13.4 515.85,-102.6 615.48,-278.9 28.45,-50.2 55.25,-102.3 80.65,-155.7 0.4,-0.8 0.8,-1.7 1.2,-2.5 0.1,-0.3 0.2,-0.5 0.3,-0.7 124.9,-264.3 213.3,-563.1 276,-854.6 23.1,-107.2 42.6,-213.4 59.2,-316.5 -0.1,0.6 -0.3,1.2 -0.4,1.8 -56.5,350.4 -147.2,736.5 -292.9,1075.9 32.9,-150.1 58.8,-298.4 79.3,-439.4 -35.9,81.5 -74.9,160.3 -117.3,235.2 -113.55,200.9 -390.69,293.7 -725.1,293.7 -731.14,0 -1736.61,-443.2 -1908.92,-1169.5 -10.18,-43 -19.18,-86.4 -26.22,-130.6"
         style="fill:#ffd5b8;fill-opacity:1;fill-rule:nonzero;stroke:none"
         id="path174" /><path
         d="m 7626.56,13592.1 c -13.3,43 -26.65,87.9 -39.79,134.6 13.16,-46.6 26.5,-91.6 39.79,-134.6 m 2661.04,56.7 v 0.1 c 120.3,141.4 190.9,320.3 197.2,508.6 -6.3,-188.2 -76.9,-367.2 -197.2,-508.7"
         style="fill:#3899d5;fill-opacity:1;fill-rule:nonzero;stroke:none"
         id="path176" /><path
         d="m 10154.6,13523.4 v 0.1 c 49.2,37.2 93.7,79.3 133,125.4 v -0.1 c -39.2,-46.1 -83.7,-88.3 -133,-125.4"
         style="fill:#390075;fill-opacity:1;fill-rule:nonzero;stroke:none"
         id="path178" /><path
         d="m 8980.58,13035.3 c 372.57,68.5 690.69,203.9 938.29,341.8 l 0.03,-0.2 c -247.68,-137.8 -565.83,-273.2 -938.32,-341.6"
         style="fill:#976b3d;fill-opacity:1;fill-rule:nonzero;stroke:none"
         id="path180" /><path
         d="m 9918.9,13376.9 -0.03,0.2 c 33.04,18.4 64.84,36.8 95.33,55.1 v -0.1 c -30.48,-18.3 -62.25,-36.8 -95.3,-55.2"
         style="fill:#997587;fill-opacity:1;fill-rule:nonzero;stroke:none"
         id="path182" /><path
         d="m 10014.2,13432.1 v 0.1 c 31.5,19 61.6,37.8 90.3,56.3 17.2,11.1 33.9,22.8 50.1,35 v -0.1 c -16.1,-12.2 -32.8,-23.9 -50,-35 -28.7,-18.5 -58.9,-37.4 -90.4,-56.3"
         style="fill:#390075;fill-opacity:1;fill-rule:nonzero;stroke:none"
         id="path184" /><path
         d="m 8478.96,12989.4 c -33.1,0 -66.43,0.6 -100.13,1.8 -343.03,12.6 -642.27,248.4 -747.88,586.8 -1.46,4.7 -2.93,9.4 -4.39,14.1 -13.29,43 -26.63,88 -39.79,134.6 -34.11,121.3 -66.88,254.1 -94.29,393.8 142.39,-228.8 386.08,-377.8 656.36,-387.6 33.21,-1.2 66.26,-1.8 98.88,-1.8 705.68,0 1273.97,271.3 1626.9,499.3 255.38,165.1 401.28,455.7 378.28,759.3 -11.3,150.4 -29.1,329.1 -57.2,521.6 88.7,-201 158.5,-418.5 213.6,-636.5 37.5,-232.7 60,-449.7 73.6,-627.2 2.3,-30.2 2.9,-60.2 1.9,-90.1 -6.3,-188.3 -76.9,-367.2 -197.2,-508.6 -39.3,-46.1 -83.8,-88.2 -133,-125.4 -16.2,-12.2 -32.9,-23.9 -50.1,-35 -28.7,-18.5 -58.8,-37.3 -90.3,-56.3 -30.49,-18.3 -62.29,-36.7 -95.33,-55.1 -247.6,-137.9 -565.72,-273.3 -938.29,-341.8 -157.84,-28.9 -325.47,-45.9 -501.62,-45.9"
         style="fill:#c36859;fill-opacity:1;fill-rule:nonzero;stroke:none"
         id="path186" /><path
         d="m 10409.3,14874.8 c -55.1,218 -124.9,435.5 -213.6,636.5 -20.5,141 -46.4,289.3 -79.3,439.4 145.7,-339.4 236.4,-725.5 292.9,-1075.9"
         style="fill:#c395a4;fill-opacity:1;fill-rule:nonzero;stroke:none"
         id="path188" /><path
         d="m 8384.51,13147.5 c 707.13,-25.2 1279.49,242.8 1635.09,472.5 208.1,134.4 325.9,370.4 307.3,616 -34.6,456 -141.7,1308.1 -470.71,1890.1 -94.58,167.2 -413.87,238.8 -814.01,182.1 -608.4,-86.1 -1289.99,-449.9 -1415.48,-978.5 -135.16,-569 8.89,-1241.2 153.56,-1705.1 85.89,-275.3 328.76,-467.1 604.25,-477.1 z m 94.39,-314.6 c -34.92,0 -70.17,0.6 -105.72,1.9 -407.96,14.8 -766.26,294.8 -891.65,696.7 -156.34,501.2 -310.84,1232.6 -159.32,1870.5 165.23,695.8 984.67,1118.2 1676.07,1216.1 544.43,77.3 967.09,-49.2 1130.32,-338 340.9,-603.1 465.7,-1431.6 510.3,-2020.5 27.3,-360 -145,-705.8 -449.5,-902.5 -375.59,-242.6 -970.95,-524.2 -1710.5,-524.2"
         style="fill:#390075;fill-opacity:1;fill-rule:nonzero;stroke:none"
         id="path190" /><path
         d="m 30239.1,14797.1 c 0,0 -279,-553.2 -558.1,-214.3 -279.1,338.9 -348.9,1221 -204.4,1475.2 139.5,245.3 902.4,550.5 1525.2,372.4 622.8,-178 -762.7,-1633.3 -762.7,-1633.3"
         style="fill:#ff954d;fill-opacity:1;fill-rule:nonzero;stroke:none"
         id="path192" /><path
         d="m 29874.8,14629.5 c -24.6,0 -56.5,32.7 -73,52.8 -235.7,286 -302,1099.9 -189.1,1298.4 0.8,1.4 1.7,2.8 2.5,4.3 27.2,-317.3 117.1,-662.7 269,-847.1 47.6,-57.9 95.3,-89.8 141.6,-102.8 -20.2,-117.8 -36.4,-232.2 -49.5,-340.3 -35.8,-36.7 -71.3,-62.2 -98.7,-65.2 -0.9,-0.1 -1.9,-0.1 -2.8,-0.1"
         style="fill:#c36859;fill-opacity:1;fill-rule:nonzero;stroke:none"
         id="path194" /><path
         d="m 30596.1,16328.3 c -465.5,0 -906.5,-212.2 -983.4,-347.6 -112.9,-198.5 -46.6,-1012.4 189.1,-1298.4 17.1,-20.9 50.9,-55.4 75.8,-52.7 62.6,6.9 167.3,131.1 222,238.4 l 10.3,20.2 15.9,16.8 c 466.8,490.6 930.7,1147.5 877.4,1343.6 -2.2,8.1 -5.6,20.2 -44.5,31.4 -118.5,33.9 -241.4,48.3 -362.6,48.3 m -722.6,-2011.8 c -87.7,0 -203.3,33.3 -313.4,166.9 -311.1,377.9 -399.2,1335.8 -219.4,1651.9 180.1,316.9 1015.1,642.6 1704.1,445.5 134.4,-38.4 226.9,-127.2 260.3,-250 123.5,-453.8 -666.4,-1339 -937.5,-1625.6 -50.7,-93.6 -215,-359.8 -455.3,-386.6 -12.2,-1.3 -25.2,-2.1 -38.8,-2.1"
         style="fill:#390075;fill-opacity:1;fill-rule:nonzero;stroke:none"
         id="path196" /><path
         d="m 31492.2,12496.9 c -567.7,61.4 -1026.5,288 -1328.3,483 -16.2,10.4 -32,21.4 -47.3,32.8 31.3,107.2 84,287.2 150.3,513.3 17.2,-13.2 35,-25.7 53.4,-37.6 278.3,-179.8 690.5,-386.5 1198.4,-465.7 -30.8,-203.2 -35.5,-374.6 -26.5,-525.8"
         style="fill:#3e60d5;fill-opacity:1;fill-rule:nonzero;stroke:none"
         id="path198" /><path
         d="m 31650.2,12484.3 c -53.5,2.7 -106.2,7 -158,12.6 -9,151.2 -4.3,322.6 26.5,525.8 24.1,-3.8 48.3,-7.3 72.8,-10.4 27.3,-3.5 54.9,-6.7 82.7,-9.5 -30.9,-201.6 -34.5,-369.9 -24,-518.5 m -1533.6,528.4 c -47.3,35.3 -90.3,75.1 -128.4,118.6 36.1,123.1 88.3,301.5 151,515.4 37.8,-44.2 80.5,-84.8 127.7,-120.7 -66.3,-226.1 -119,-406.1 -150.3,-513.3"
         style="fill:#390075;fill-opacity:1;fill-rule:nonzero;stroke:none"
         id="path200" /><path
         d="m 32046,12991.1 c 342.9,12.5 642.3,248.4 747.9,587 146.2,468.7 301.1,1178.7 156.5,1787.7 -240.3,1011.7 -2172.2,1448.9 -2518,837.3 -336.9,-596.1 -451.5,-1441.3 -490.4,-1955.3 -23,-303.5 122.7,-594.1 378.3,-759.3 369.4,-238.6 974.5,-524.6 1725.7,-497.4"
         style="fill:#ff954d;fill-opacity:1;fill-rule:nonzero;stroke:none"
         id="path202" /><path
         d="m 29941,14234.2 c -1.7,29.3 -1.9,59 -0.4,88.7 2.5,0.5 5,1 7.5,1.6 -2.2,-26.3 -4.3,-51.9 -6.1,-76.7 -0.4,-4.6 -0.7,-9.1 -1,-13.6"
         style="fill:#aff1ff;fill-opacity:1;fill-rule:nonzero;stroke:none"
         id="path204" /><path
         d="m 30042.6,15031.1 c -5.6,1.1 -11.2,2.4 -16.8,4 72.7,424.9 196.4,893.8 406.8,1265.7 3.8,6.9 7.9,13.6 12.2,20.2 31.7,3 63.7,5.1 95.9,6.3 -44.7,-35.2 -81.3,-76.5 -108.3,-124.2 -194.8,-344.7 -315.3,-772.8 -389.8,-1172"
         style="fill:#ffd5b8;fill-opacity:1;fill-rule:nonzero;stroke:none"
         id="path206" /><path
         d="m 29976.3,14694.8 c 13.1,108.1 29.3,222.5 49.5,340.3 5.6,-1.6 11.2,-2.9 16.8,-4 -18.2,-97.1 -33.6,-192.5 -46.7,-284.5 -1.7,-12.2 -3.4,-24.2 -5.1,-36.2 -4.8,-5.4 -9.7,-10.6 -14.5,-15.6"
         style="fill:#e7c3bd;fill-opacity:1;fill-rule:nonzero;stroke:none"
         id="path208" /><path
         d="m 33007.8,14880.9 c -2.8,164.5 -20.1,328 -57.4,484.9 -55.4,233.5 -201,436.3 -396.3,602.7 6.9,27.4 13.6,54.2 20.2,80.5 185.2,-163.1 322.6,-359.9 376.1,-585.3 44.7,-188.1 60.9,-385.6 57.4,-582.8"
         style="fill:#aff1ff;fill-opacity:1;fill-rule:nonzero;stroke:none"
         id="path210" /><path
         d="m 32279.9,16161.3 c -117.9,68.7 -244.4,127.3 -374,174.8 -5,9.9 -10.7,19.4 -17.1,28.6 -34.7,49.4 -86.6,82.3 -146,92.7 -13.2,2.3 -26.5,3.5 -39.6,3.5 -40.2,0 -79.4,-10.8 -114.3,-31.5 -126,28.2 -250.9,45.7 -369.8,51.8 -20.5,20.8 -43.9,39.1 -69.9,54.8 4.5,15.4 8.8,30.3 13.2,45.1 363.1,-7.5 790.4,-126 1138.9,-334.5 -6.9,-27.7 -14.1,-56.2 -21.4,-85.3"
         style="fill:#b3d0ff;fill-opacity:1;fill-rule:nonzero;stroke:none"
         id="path212" /><path
         d="m 32554.1,15968.5 c -83.3,71.1 -175.8,135.5 -274.2,192.8 7.3,29.1 14.5,57.6 21.4,85.3 98.4,-58.8 190.4,-124.8 273,-197.6 -6.6,-26.3 -13.3,-53.1 -20.2,-80.5 m -1404.9,567.5 c -30.1,18.2 -63.7,32.9 -100.6,43.7 25.3,1.2 50.9,1.8 77,1.8 12.2,0 24.4,-0.1 36.8,-0.4 -4.4,-14.8 -8.7,-29.7 -13.2,-45.1"
         style="fill:#b099c8;fill-opacity:1;fill-rule:nonzero;stroke:none"
         id="path214" /><path
         d="m 31824.6,16364.4 c -50.5,16.6 -101.4,31.6 -152.2,44.8 10.2,1.8 20.5,2.8 31,2.8 10.3,0 20.6,-0.9 31,-2.7 34.3,-6 65.3,-21.6 90.2,-44.9"
         style="fill:#b7a9a7;fill-opacity:1;fill-rule:nonzero;stroke:none"
         id="path216" /><path
         d="m 31905.9,16336.1 c -27,10 -54.1,19.3 -81.3,28.3 -24.9,23.3 -55.9,38.9 -90.2,44.9 -10.4,1.8 -20.7,2.7 -31,2.7 -10.5,0 -20.8,-1 -31,-2.8 -27.9,7.3 -55.7,14 -83.5,20.2 34.9,20.7 74.1,31.5 114.3,31.5 13.1,0 26.4,-1.2 39.6,-3.5 59.4,-10.4 111.3,-43.3 146,-92.7 6.4,-9.2 12.1,-18.7 17.1,-28.6"
         style="fill:#b099c8;fill-opacity:1;fill-rule:nonzero;stroke:none"
         id="path218" /><path
         d="m 29940.6,14322.9 c 0.4,7.5 0.9,15 1.5,22.5 7.8,104.5 18.8,222.5 34.2,349.4 4.8,5 9.7,10.2 14.5,15.6 -16,-116.4 -28.2,-226.8 -37.5,-328.2 -1.8,-19.5 -3.5,-38.8 -5.2,-57.7 -2.5,-0.6 -5,-1.1 -7.5,-1.6 m 504.2,1998.1 c 105.6,163 330.2,245.9 603.8,258.7 36.9,-10.8 70.5,-25.5 100.6,-43.7 26,-15.7 49.4,-34 69.9,-54.8 -31.7,1.7 -63,2.5 -93.7,2.5 -240.3,0 -449.5,-50.1 -584.7,-156.4 -32.2,-1.2 -64.2,-3.3 -95.9,-6.3"
         style="fill:#b099c8;fill-opacity:1;fill-rule:nonzero;stroke:none"
         id="path220" /><path
         d="m 29941.1,14233.3 c 0,0.3 0,0.6 -0.1,0.9 0.3,4.5 0.6,9 1,13.6 1.8,24.8 3.9,50.4 6.1,76.7 1.7,18.9 3.4,38.2 5.2,57.7 -4.3,-46.9 -8,-91.8 -11.2,-134.6 -0.4,-4.7 -0.7,-9.5 -1,-14.3 m 111,430.5 c -20.1,34.5 -37.7,70.5 -52.5,107.6 -1.3,-8.3 -2.5,-16.6 -3.7,-24.8 13.1,92 28.5,187.4 46.7,284.5 74.5,399.2 195,827.3 389.8,1172 27,47.7 63.6,89 108.3,124.2 135.2,106.3 344.4,156.4 584.7,156.4 30.7,0 62,-0.8 93.7,-2.5 118.9,-6.1 243.8,-23.6 369.8,-51.8 27.8,-6.2 55.6,-12.9 83.5,-20.2 50.8,-13.2 101.7,-28.2 152.2,-44.8 27.2,-9 54.3,-18.3 81.3,-28.3 129.6,-47.5 256.1,-106.1 374,-174.8 98.4,-57.3 190.9,-121.7 274.2,-192.8 195.3,-166.4 340.9,-369.2 396.3,-602.7 37.3,-156.9 54.6,-320.4 57.4,-484.9 0,-1.4 0,-2.7 -0.1,-4.1 -2,127.2 -12.7,253.8 -34.6,377.3 -11.3,-81.9 -25.1,-162.3 -40.5,-240.5 -207.1,655.7 -1130.1,1053.1 -1807,1053.1 -319.8,0 -584.5,-88.6 -693,-280.7 -186.9,-330.5 -305.4,-737.5 -380.5,-1122.2"
         style="fill:#ffd5b8;fill-opacity:1;fill-rule:nonzero;stroke:none"
         id="path222" /><path
         d="m 32695.1,13366.9 c 41.6,64.3 75.1,135.1 98.8,211.2 70.9,227.2 143.8,511.1 183.7,812.8 -39.8,-301.7 -112.8,-585.8 -183.6,-812.9 -23.7,-76 -57.3,-146.9 -98.9,-211.1"
         style="fill:#3899d5;fill-opacity:1;fill-rule:nonzero;stroke:none"
         id="path224" /><path
         d="m 30139.2,13646.7 c -6.2,7.1 -12.2,14.4 -18,21.7 5.9,-7.3 11.8,-14.6 18,-21.7 v 0"
         style="fill:#390075;fill-opacity:1;fill-rule:nonzero;stroke:none"
         id="path226" /><path
         d="m 31518.7,13022.7 c -507.9,79.2 -920.1,285.9 -1198.4,465.7 -18.4,11.9 -36.2,24.4 -53.4,37.6 0,0 0,0 0,0.1 17.2,-13.2 35,-25.7 53.4,-37.6 278.4,-179.8 690.7,-386.5 1198.4,-465.8 v 0"
         style="fill:#3c43b8;fill-opacity:1;fill-rule:nonzero;stroke:none"
         id="path228" /><path
         d="m 31591.5,13012.3 c -24.5,3.1 -48.7,6.6 -72.8,10.4 v 0 c 24.1,-3.8 48.3,-7.2 72.8,-10.4 m -1324.6,513.7 c -47.2,35.9 -89.9,76.5 -127.7,120.7 v 0 c 37.8,-44.2 80.5,-84.7 127.7,-120.6 0,-0.1 0,-0.1 0,-0.1"
         style="fill:#390075;fill-opacity:1;fill-rule:nonzero;stroke:none"
         id="path230" /><path
         d="m 31945.9,12989.4 c -122.4,0 -240.7,8.2 -354.4,22.9 -24.5,3.2 -48.7,6.6 -72.8,10.4 -507.7,79.3 -920,286 -1198.4,465.8 -18.4,11.9 -36.2,24.4 -53.4,37.6 -47.2,35.9 -89.9,76.4 -127.7,120.6 -6.2,7.1 -12.1,14.4 -18,21.7 -125.9,157.6 -192.2,358 -180.1,564.9 3.1,-51.8 11.3,-102.8 24,-152.3 19.1,177.8 46.8,377.1 87,582.8 64.8,-111.7 155.9,-208.6 268.2,-281.2 352.9,-228 921.3,-499.3 1626.9,-499.3 32.7,0 65.6,0.5 98.9,1.7 342.6,12.5 642.3,248.4 747.9,587.2 49.1,157.5 99.3,342.3 138.6,541.4 6.7,-21.2 12.7,-42.8 17.8,-64.6 22.3,-92.7 37.2,-187.8 46.2,-284 6,70.2 9.8,141 11.1,211.8 2.6,-163.1 -9.1,-326.9 -30.1,-485.9 -39.9,-301.7 -112.8,-585.6 -183.7,-812.8 -23.7,-76.1 -57.2,-146.9 -98.8,-211.2 -143.5,-222 -383.3,-365.9 -649,-375.7 -33.7,-1.2 -67.1,-1.8 -100.2,-1.8"
         style="fill:#c36859;fill-opacity:1;fill-rule:nonzero;stroke:none"
         id="path232" /><path
         d="m 29990.8,14710.4 c 1.7,12 3.4,24 5.1,36.2 -1.7,-12.1 -3.4,-24.2 -5,-36.2 0,0 0,0 -0.1,0"
         style="fill:#b288a7;fill-opacity:1;fill-rule:nonzero;stroke:none"
         id="path234" /><path
         d="m 29953.3,14382.2 c 9.3,101.4 21.5,211.8 37.5,328.2 0.1,0 0.1,0 0.1,0 -15.9,-116.3 -28.2,-226.8 -37.6,-328.2"
         style="fill:#8c6baf;fill-opacity:1;fill-rule:nonzero;stroke:none"
         id="path236" /><path
         d="m 29965.1,14081 c -12.7,49.5 -20.9,100.5 -24,152.3 0.3,4.8 0.6,9.6 1,14.3 3.2,42.8 6.9,87.7 11.2,134.6 9.4,101.4 21.7,211.9 37.6,328.2 1.6,12 3.3,24.1 5,36.2 1.2,8.2 2.4,16.5 3.7,24.8 14.8,-37.1 32.4,-73.1 52.5,-107.6 -40.2,-205.7 -67.9,-405 -87,-582.8 m 3031.5,584 c -9,96.2 -23.9,191.3 -46.2,284 -5.1,21.8 -11.1,43.4 -17.8,64.6 15.4,78.2 29.2,158.6 40.5,240.5 21.9,-123.5 32.6,-250.1 34.6,-377.3 -1.3,-70.8 -5.1,-141.6 -11.1,-211.8"
         style="fill:#c395a4;fill-opacity:1;fill-rule:nonzero;stroke:none"
         id="path238" /><path
         d="m 31123.9,16327.4 c -274.9,0 -482.2,-72.1 -555.3,-201.3 -329,-582 -436.1,-1434.1 -470.7,-1890.1 -18.5,-245.6 99.2,-481.6 307.4,-616 355.5,-229.7 926.4,-497.3 1635,-472.5 275.5,10 518.4,201.8 604.3,477.1 144.6,463.9 288.7,1136.1 153.5,1705.1 -125.5,528.6 -807,892.4 -1415.3,978.5 -91.1,12.9 -177.9,19.2 -258.9,19.2 z m 822,-3494.5 c -739.5,0 -1334.8,281.6 -1710.5,524.2 -304.5,196.6 -476.7,542.5 -449.5,902.5 44.7,588.9 169.4,1417.4 510.4,2020.5 163.2,288.8 585.9,415.3 1130.4,338 691.3,-97.9 1510.7,-520.3 1675.9,-1216.1 151.5,-637.9 -3,-1369.3 -159.3,-1870.5 -125.4,-401.9 -483.7,-681.9 -891.6,-696.7 -35.5,-1.3 -70.9,-1.9 -105.8,-1.9"
         style="fill:#390075;fill-opacity:1;fill-rule:nonzero;stroke:none"
         id="path240" /><path
         d="m 12119.4,17106.6 c 12.6,77 33.1,143.1 61.9,212.1 29,67.8 67,133.6 115.5,194.6 47.7,61.7 109.3,115.9 178.9,159.5 69.3,46.1 149.1,72.5 229.5,93.6 84.3,22.1 170.4,-28.2 192.5,-112.5 22.1,-84.2 -28.3,-170.4 -112.5,-192.4 -10.3,-2.8 -20.7,-4.4 -31,-5 l -8.4,-0.4 c -49.3,-2.5 -100.8,-5 -148,-23.6 -48,-16.5 -95.6,-40.9 -138.2,-76.3 -43.1,-34.5 -83.1,-77 -117.8,-125.3 -34.2,-47.3 -65.6,-104.3 -86.4,-155.4 l -2.7,-6.5 c -14.5,-35.7 -55.2,-52.8 -90.9,-38.3 -30.7,12.5 -47.6,44.5 -42.4,75.9"
         style="fill:#390075;fill-opacity:1;fill-rule:nonzero;stroke:none"
         id="path242" /><path
         d="m 14555.3,15787.5 c -14.6,94.3 -23.1,188 -28.3,283.2 -4.7,95 -5.9,190.9 -0.5,287.8 11.9,193.3 40.9,393.1 141.7,592.9 l 0.7,1.4 c 39.2,77.7 134.1,108.9 211.8,69.7 77.8,-39.2 109,-134 69.8,-211.8 -5.7,-11.3 -13.1,-22.2 -20.9,-31.4 -48.9,-57.2 -92.1,-127.7 -129.2,-204.3 -36.5,-77.3 -65.9,-160.9 -91.5,-246.7 -25.3,-86 -44.9,-174.9 -61.3,-264.9 -15.9,-89.8 -28.7,-181.8 -35.6,-272.8 l -0.1,-0.9 c -1.2,-15.7 -14.9,-27.5 -30.6,-26.3 -13.5,1 -24.1,11.3 -26,24.1"
         style="fill:#390075;fill-opacity:1;fill-rule:nonzero;stroke:none"
         id="path244" /><path
         d="m 17796.6,15632 c -15.9,137.1 -40.1,274.1 -70.6,407 -30.7,132.7 -69.4,262.6 -118.9,380.4 -34,80.7 3.9,173.6 84.6,207.6 80.7,33.9 173.7,-4 207.6,-84.7 6.4,-15.2 10.3,-30.9 11.8,-46.6 l 0.2,-3.1 c 13.6,-151.8 10.2,-297.4 -0.9,-440.6 -11.6,-143.3 -30.2,-283.4 -57.1,-422.9 -2.9,-15.5 -18,-25.7 -33.5,-22.7 -12.6,2.4 -21.7,12.7 -23.1,24.8 l -0.1,0.8"
         style="fill:#390075;fill-opacity:1;fill-rule:nonzero;stroke:none"
         id="path246" /><path
         d="m 25301.5,15777.3 c -22.9,85.8 -53.1,171.6 -86.7,254 -33.9,82.6 -72.6,162.6 -115.3,238.9 -41.9,76.9 -91.2,148.2 -142.6,215.1 -51.7,66.9 -110.4,125.1 -170.1,177.8 l -2.2,2 c -65.3,57.6 -71.4,157.2 -13.8,222.5 57.6,65.3 157.3,71.5 222.6,13.8 9.1,-8 17.5,-17.6 24.3,-27.1 59.7,-84.4 112,-170.9 152.6,-260.9 40.3,-90 75,-180.6 100.2,-272.9 26,-92 46.2,-184.4 60.8,-277 14.3,-93 24,-185 26.6,-279.3 0.4,-15.8 -12,-28.9 -27.8,-29.3 -13.4,-0.4 -25,8.7 -28.3,21.1 l -0.3,1.3"
         style="fill:#390075;fill-opacity:1;fill-rule:nonzero;stroke:none"
         id="path248" /><path
         d="m 28700.2,17234.6 c -13.7,81.4 -41.1,163.9 -76.4,238.3 -35.6,74.7 -81.3,142.7 -134.4,200.6 -25,30.2 -56,54.6 -84.3,79.9 -31.7,22 -60.7,45.7 -95,62.3 -64.2,38.5 -137.2,59.9 -208.1,78.9 l -6.5,1.7 c -84.3,22.6 -134.2,109.3 -111.6,193.5 22.5,84.3 109.2,134.2 193.4,111.6 12.1,-3.2 24.1,-8.2 34.6,-13.8 89.7,-48.9 176.6,-102.3 249.1,-174 38.1,-32.9 69.4,-73 101.4,-110.8 28.4,-41 57.8,-80.6 79.3,-124.5 46.3,-85.8 78.3,-176.4 97,-267.9 18.2,-92 25.5,-182.6 18.3,-275.8 -1.2,-15.7 -14.8,-27.4 -30.5,-26.2 -13.2,1 -23.7,11 -25.8,23.6 l -0.5,2.6"
         style="fill:#390075;fill-opacity:1;fill-rule:nonzero;stroke:none"
         id="path250" /><path
         d="m 26051.3,16275.9 c -7.5,64 -21.4,129 -39.3,190.3 -17.9,61.6 -41.2,120.7 -70.8,172.6 -29.7,51.3 -63.9,98.1 -104,126.2 -39.8,28.7 -80.8,40.5 -121.3,43.6 -76.5,5.7 -133.8,72.4 -128.1,148.9 5.8,76.5 72.5,133.9 149,128.1 13.6,-1 26.7,-4 38.9,-8.6 l 8.3,-3.2 c 87.8,-33.9 163.6,-92.8 214.1,-162.1 51.6,-69.2 76.8,-144.6 94.7,-216.6 17.3,-72.6 23.6,-144 23.9,-214.1 0.2,-70.3 -4.5,-138.5 -15.8,-207.4 -2.2,-13.7 -15,-22.9 -28.7,-20.7 -11.2,1.9 -19.5,10.9 -20.8,21.7 l -0.1,1.3"
         style="fill:#390075;fill-opacity:1;fill-rule:nonzero;stroke:none"
         id="path252" /><path
         d="m 22348.4,21044.3 c 64.1,-931 713.7,-1554.4 1450.8,-1392.3 737.1,162 1282.7,1048 1218.6,1979 -64.1,931 -713.6,1554.4 -1450.8,1392.3 -737.1,-162 -1282.7,-1048 -1218.6,-1979"
         style="fill:#000072;fill-opacity:1;fill-rule:nonzero;stroke:none"
         id="path254" /><path
         d="m 22932.5,21791.8 c -50.1,-323.6 68.4,-600.6 264.7,-618.8 196.3,-18.1 396,229.5 446.1,553.1 50.1,323.5 -68.4,600.6 -264.7,618.7 -196.3,18.1 -396,-229.5 -446.1,-553"
         style="fill:#ffffff;fill-opacity:1;fill-rule:nonzero;stroke:none"
         id="path256" /><path
         d="m 24052.3,20783.7 c -16.7,-163 49.4,-299.8 147.6,-305.5 98.2,-5.7 191.3,121.8 207.9,284.8 16.7,163.1 -49.4,299.9 -147.6,305.6 -98.2,5.7 -191.3,-121.8 -207.9,-284.9"
         style="fill:#ffffff;fill-opacity:1;fill-rule:nonzero;stroke:none"
         id="path258" /><path
         d="m 17743.9,24342 c -37,0 -73.3,24.4 -82.3,66.4 -74.4,345.3 68.9,559.7 172.9,664.4 17.1,17.2 38.6,25.2 59.6,25.2 35.1,0 69.2,-22.2 80.4,-61 40.9,-141.8 63.6,-398.7 -167.4,-665.8 -17.3,-20 -40.4,-29.2 -63.2,-29.2"
         style="fill:#ffdfc9;fill-opacity:1;fill-rule:nonzero;stroke:none"
         id="path260" /><path
         d="m 22718.7,24415.6 c -26.6,0 -53.4,12.4 -70.2,38.3 -192.6,296.1 -135.1,547.4 -75.3,682.3 14.6,33 45.4,50.3 76.5,50.3 24.8,0 49.8,-11 67,-33.8 88.8,-117.9 201.6,-349.8 81,-681.7 -13.1,-36.2 -45.9,-55.4 -79,-55.4"
         style="fill:#ffdfc9;fill-opacity:1;fill-rule:nonzero;stroke:none"
         id="path262" /><path
         d="m 19325,23854.6 c -34,0 -67.7,20.4 -80,58.1 -109.7,335.6 10.5,563.7 103.1,678.7 17.3,21.5 41.4,31.7 65.3,31.7 32.1,0 63.6,-18.5 77.6,-52.8 55.4,-136.8 104.7,-389.9 -97.3,-679.6 -17.1,-24.5 -43,-36.1 -68.7,-36.1"
         style="fill:#ffdfc9;fill-opacity:1;fill-rule:nonzero;stroke:none"
         id="path264" /><path
         d="m 21541.6,23822.1 c -26.7,0.1 -53.7,12.6 -70.5,38.8 -190.6,297.3 -131.6,548.3 -71,682.8 14.8,32.7 45.4,49.9 76.4,49.9 24.9,0 50,-11.2 67.3,-34.3 88,-118.4 199.4,-351 76.7,-682.2 -13.3,-35.9 -46,-55 -78.9,-55"
         style="fill:#ffdfc9;fill-opacity:1;fill-rule:nonzero;stroke:none"
         id="path266" /><path
         d="m 15747.7,21044.3 c 64.1,-931 713.6,-1554.4 1450.7,-1392.3 737.2,162 1282.8,1048 1218.7,1979 -64.2,931 -713.7,1554.4 -1450.8,1392.3 -737.1,-162 -1282.7,-1048 -1218.6,-1979"
         style="fill:#000072;fill-opacity:1;fill-rule:nonzero;stroke:none"
         id="path268" /><path
         d="m 16331.8,21791.8 c -50.1,-323.6 68.4,-600.6 264.7,-618.8 196.2,-18.1 396,229.5 446,553.1 50.1,323.5 -68.4,600.6 -264.7,618.7 -196.2,18.1 -395.9,-229.5 -446,-553"
         style="fill:#ffffff;fill-opacity:1;fill-rule:nonzero;stroke:none"
         id="path270" /><path
         d="m 17451.5,20783.7 c -16.6,-163 49.5,-299.8 147.7,-305.5 98.1,-5.7 191.2,121.8 207.9,284.8 16.7,163.1 -49.4,299.9 -147.6,305.6 -98.2,5.7 -191.3,-121.8 -208,-284.9"
         style="fill:#ffffff;fill-opacity:1;fill-rule:nonzero;stroke:none"
         id="path272" /></g></g></svg>
