<?xml version="1.0" encoding="UTF-8" standalone="no"?>
<svg
   xmlns:dc="http://purl.org/dc/elements/1.1/"
   xmlns:cc="http://creativecommons.org/ns#"
   xmlns:rdf="http://www.w3.org/1999/02/22-rdf-syntax-ns#"
   xmlns:svg="http://www.w3.org/2000/svg"
   xmlns="http://www.w3.org/2000/svg"
   xmlns:sodipodi="http://sodipodi.sourceforge.net/DTD/sodipodi-0.dtd"
   xmlns:inkscape="http://www.inkscape.org/namespaces/inkscape"
   version="1.1"
   id="svg2"
   xml:space="preserve"
   width="5333.3335"
   height="5333.3335"
   viewBox="0 0 5333.3335 5333.3335"
   sodipodi:docname="burguer-kawai.svg"
   inkscape:version="1.0.2-2 (e86c870879, 2021-01-15)"><metadata
     id="metadata8"><rdf:RDF><cc:Work
         rdf:about=""><dc:format>image/svg+xml</dc:format><dc:type
           rdf:resource="http://purl.org/dc/dcmitype/StillImage" /><dc:title></dc:title></cc:Work></rdf:RDF></metadata><defs
     id="defs6" /><sodipodi:namedview
     pagecolor="#ffffff"
     bordercolor="#666666"
     borderopacity="1"
     objecttolerance="10"
     gridtolerance="10"
     guidetolerance="10"
     inkscape:pageopacity="0"
     inkscape:pageshadow="2"
     inkscape:window-width="1920"
     inkscape:window-height="1009"
     id="namedview4"
     inkscape:document-rotation="0"
     showgrid="false"
     inkscape:zoom="0.126"
     inkscape:cx="2964.7181"
     inkscape:cy="1770.3876"
     inkscape:window-x="-8"
     inkscape:window-y="-8"
     inkscape:window-maximized="1"
     inkscape:current-layer="g10" /><g
     id="g10"
     inkscape:groupmode="layer"
     inkscape:label="ink_ext_XXXXXX"
     transform="matrix(1.3333333,0,0,-1.3333333,0,5333.3333)"><path
       d="m 2809.02,1353.54 c 0,0 99.12,-155.11 -10.3,-276.11 -114.77,-126.93 -534.63,-122.29 -784.45,-122.29 -249.83,0 -669.69,-4.64 -784.46,122.29 -109.42,121 -10.3,276.11 -10.3,276.11 h 1589.51"
       style="fill:#ff954d;fill-opacity:1;fill-rule:nonzero;stroke:none;stroke-width:0.1"
       id="path16" /><path
       d="m 1303.96,1044.29 c -26.02,12.36 -47.31,26.78 -62.55,43.63 -56.35,62.32 -53.12,134.24 -38.91,186.19 4.38,-4.15 9.03,-7.93 13.95,-11.27 8.63,-5.85 18.96,-11.42 31.07,-16.74 -12.71,-54.81 -12.33,-127.14 44.69,-190.2 3.62,-3.99 7.54,-7.86 11.75,-11.61"
       style="fill:#ffd5b8;fill-opacity:1;fill-rule:nonzero;stroke:none;stroke-width:0.1"
       id="path18" /><path
       d="m 1288.39,1017.25 c -31.36,12.23 -57.99,26.8 -78.32,44.12 6.18,-1.82 12.5,-3.59 18.94,-5.28 16.06,-14.73 36.11,-27.6 59.38,-38.84"
       style="fill:#3899d5;fill-opacity:1;fill-rule:nonzero;stroke:none;stroke-width:0.1"
       id="path20" /><path
       d="m 2067.88,970.77 c -9.54,0 -18.91,0 -28.02,0.01 l -25.59,0.01 -25.6,-0.01 c -6.83,0 -13.79,0 -20.88,0 -198.82,0 -492.73,2 -647.95,66.47 152.18,-24.56 339.89,-25.93 486.96,-25.93 18.43,0 36.21,0.02 53.21,0.02 17.06,0 34.94,-0.02 53.44,-0.02 252.34,0 624.1,4.04 731.02,122.3 23.06,25.5 36.86,52.52 44.28,79.29 21.93,6.54 42.22,13.67 60.18,21.38 20.11,8.63 40.92,18.54 60.35,30.94 12.63,-54.77 12.13,-126.94 -44.8,-189.89 -8.79,-9.72 -19.37,-18.67 -31.52,-26.91 -145.29,-74.59 -455.32,-77.66 -665.08,-77.66"
       style="fill:#c36859;fill-opacity:1;fill-rule:nonzero;stroke:none;stroke-width:0.1"
       id="path22" /><path
       d="m 2068.34,939.48 c -9.67,0 -19.15,0 -28.5,0.01 l -25.57,0.01 -25.58,-0.01 c -260.73,-0.29 -654.88,-0.39 -770.49,127.45 -116.08,128.37 -12.93,293.37 -11.87,295.02 l 26.36,-16.84 c -3.76,-5.93 -91.22,-146.68 8.72,-257.2 106.28,-117.53 507.56,-117.22 747.26,-117.14 l 25.6,0.01 25.59,-0.01 c 239.78,-0.17 640.98,-0.38 747.26,117.14 100.25,110.86 9.65,255.75 8.72,257.2 l 26.37,16.84 c 1.05,-1.65 104.2,-166.65 -11.88,-295.02 C 2698.86,943.67 2328.48,939.48 2068.34,939.48"
       style="fill:#390075;fill-opacity:1;fill-rule:nonzero;stroke:none;stroke-width:0.1"
       id="path24" /><path
       d="m 2868.18,1352.52 c -22.89,-52.61 -73.46,-81.56 -125.41,-103.85 -41.58,-17.84 -97.44,-32.94 -158.81,-44.87 -85.11,-16.47 -180.87,-26.75 -263.95,-29.34 -0.59,-0.04 -1.17,-0.08 -1.76,-0.08 -327.24,-9.89 -611.41,-16.23 -951.88,53.44 -41.97,8.56 -105.49,23.82 -141.13,47.95 -35.67,24.18 -56.13,76.47 -59.57,119.93 -0.39,4.97 -0.47,11.11 -0.19,17.99 1.44,34.82 12.16,88.09 37.7,99.71 l 1632.57,9.39 c 15.02,-28.95 29.02,-56.88 36.49,-84.45 7.75,-28.71 8.45,-57.03 -4.06,-85.82"
       style="fill:#c14d56;fill-opacity:1;fill-rule:nonzero;stroke:none;stroke-width:0.1"
       id="path26" /><path
       d="m 1203.71,1511.05 c -22.31,-10.69 -34.24,-57.88 -35.88,-97.45 -0.27,-6.65 -0.2,-12.78 0.19,-17.71 3.27,-41.29 22.64,-93.85 58.54,-118.17 26.59,-18.01 73.79,-34.02 140.28,-47.6 349.79,-71.57 642,-62.73 951.34,-53.39 0.6,0 1.14,0.04 1.67,0.08 85,2.64 181.07,13.32 263.67,29.29 64.71,12.59 119.45,28.05 158.32,44.72 48.36,20.76 100.93,49.18 124.18,102.64 11.23,25.84 12.49,52.62 3.95,84.27 -7.23,26.7 -20.4,53.29 -35.64,82.7 l -1630.62,-9.38 m 805.8,-345.24 c -203.66,0 -410.84,12.08 -643.6,59.71 -68.05,13.89 -114.49,29.69 -141.99,48.31 -37.19,25.2 -57.23,79.27 -60.59,121.69 -0.4,5.12 -0.47,11.44 -0.2,18.27 1.32,31.79 11.03,88.99 39.08,101.75 l 0.96,0.21 1634.01,9.4 0.66,-1.28 c 15.65,-30.16 29.21,-57.37 36.67,-84.92 8.83,-32.73 7.51,-60.49 -4.18,-87.37 -23.9,-54.95 -77.43,-83.95 -126.63,-105.07 -39.17,-16.81 -94.26,-32.38 -159.29,-45.02 -82.83,-16.02 -179.17,-26.73 -264.33,-29.38 -0.56,-0.04 -1.19,-0.07 -1.83,-0.07 -103.88,-3.14 -205.88,-6.23 -308.74,-6.23"
       style="fill:#390075;fill-opacity:1;fill-rule:nonzero;stroke:none;stroke-width:0.1"
       id="path28" /><path
       d="m 2009.64,1183.82 c -202.76,0 -408.93,12.02 -640.12,59.31 -49.72,10.17 -88.13,21.57 -114.64,34 10.59,-2.5 20.69,-4.67 29.78,-6.52 230.26,-47.11 434.77,-59.46 644.28,-59.46 85.19,0 171.21,2.04 260.11,4.62 -91.68,28.2 -183.06,53.82 -243.8,61.1 -271.9,32.54 -427.03,13.22 -676.35,73.73 -27.82,6.76 -67.21,22.38 -86.74,37.92 -0.38,2.87 -0.68,5.68 -0.9,8.43 -0.3,3.83 -0.41,8.03 -0.34,12.47 25.57,-16.82 63.84,-29.94 84.29,-34.9 156.5,-37.98 273.78,-44.65 409.57,-52.37 81.79,-4.65 166.35,-9.46 268.61,-21.7 83.77,-10.03 231.37,-57.03 349.97,-94.8 16.51,-5.26 31.99,-10.18 46.5,-14.76 -7.52,-0.35 -14.89,-0.63 -22.08,-0.85 -103.71,-3.14 -205.49,-6.22 -308.14,-6.22 m 575.5,36.12 c 1.61,1.91 3.25,3.87 4.93,5.87 48.89,58.34 115.86,138.24 184.79,174.16 33.96,17.71 60.15,31.96 79.27,44.16 9.9,-30.1 11.78,-57.59 -0.31,-85.38 -21.4,-49.19 -71.27,-75.98 -117.22,-95.7 -40.7,-17.46 -93.97,-31.84 -151.46,-43.11 m 226.51,165.63 c -4.7,-2.47 -9.41,-4.9 -14.11,-7.37 -45.22,-23.6 -89.23,-61.17 -129.75,-102.17 57.34,24.77 104.74,21.64 143.86,109.54"
       style="fill:#98365f;fill-opacity:1;fill-rule:nonzero;stroke:none;stroke-width:0.1"
       id="path30" /><path
       d="m 2009.24,1152.52 c -204.3,0 -412.19,12.13 -645.99,59.96 -69.87,14.29 -117.89,30.76 -146.8,50.36 -40.85,27.68 -62.77,86.06 -66.38,131.64 -2.2,27.69 5.02,114.23 46.64,133.15 l 12.95,-28.49 c -19.11,-8.69 -31.03,-68.95 -28.4,-102.19 2.92,-36.88 20.67,-86.47 52.75,-108.21 25.08,-17 70.67,-32.34 135.51,-45.61 348.24,-71.24 639.69,-62.43 948.26,-53.09 128.85,3.9 314.86,28.41 418.82,73.01 45.95,19.72 95.82,46.51 117.22,95.7 20.94,48.13 -0.04,95.36 -31.96,156.82 l 27.78,14.42 c 28.77,-55.4 61.38,-118.2 32.87,-183.72 -25.76,-59.22 -81.98,-89.83 -133.58,-111.98 -107.7,-46.21 -298.5,-71.54 -430.2,-75.53 -104.14,-3.15 -206.37,-6.24 -309.49,-6.24"
       style="fill:#390075;fill-opacity:1;fill-rule:nonzero;stroke:none;stroke-width:0.1"
       id="path32" /><path
       d="m 2877.76,1484.37 c -9.9,-17.32 -58.87,-43.8 -110.15,-70.52 -118.99,-62.04 -227.38,-244.12 -261.25,-249.71 -44.99,-7.43 -404.61,133.11 -561.11,151.84 -271.9,32.55 -427.03,13.22 -676.35,73.74 -34.62,8.41 -87.15,30.55 -97.05,49.16 -14.55,27.35 -22.18,65.25 -1.33,114.89 l 3.76,0.08 1674.1,28.51 c 10.21,-9.04 20.27,-25.43 26.76,-42.87 7.47,-20.22 10.17,-41.89 2.62,-55.12"
       style="fill:#f9db03;fill-opacity:1;fill-rule:nonzero;stroke:none;stroke-width:0.1"
       id="path34" /><path
       d="m 1172.1,1551.45 c -16.62,-40.45 -16.01,-77.95 1.83,-111.46 8.91,-16.77 57.5,-38.76 95.52,-47.99 154.91,-37.6 271.44,-44.22 406.36,-51.89 82.06,-4.66 166.91,-9.49 269.71,-21.79 85.45,-10.24 233.91,-57.51 353.2,-95.5 100.52,-32.01 187.26,-59.66 207.26,-56.37 12.6,2.08 38.07,32.47 70.31,70.93 49.86,59.49 118.14,140.97 190.24,178.56 50.01,26.05 99.64,52.89 109.19,69.6 6.4,11.22 5.36,31.08 -2.79,53.14 -6.29,16.9 -15.98,32.62 -25.43,41.32 l -1675.4,-28.55 m 1330.24,-389.94 c -26.59,0 -106.03,25.3 -205.05,56.83 -119.1,37.93 -267.32,85.14 -352.33,95.31 -102.65,12.29 -187.43,17.11 -269.41,21.77 -135.16,7.68 -251.88,14.32 -407.21,52.01 -34.57,8.4 -88.05,30.57 -98.56,50.35 -18.74,35.21 -19.22,74.54 -1.43,116.9 l 0.59,1.41 5.29,0.11 1675.03,28.53 0.68,-0.61 c 10.37,-9.17 20.61,-25.55 27.4,-43.81 8.75,-23.69 9.65,-44.5 2.46,-57.1 -10.19,-17.83 -58.37,-43.97 -111.1,-71.44 -71.26,-37.16 -139.2,-118.22 -188.81,-177.41 -34.15,-40.74 -58.82,-70.18 -73.15,-72.54 -1.25,-0.21 -2.72,-0.31 -4.4,-0.31"
       style="fill:#390075;fill-opacity:1;fill-rule:nonzero;stroke:none;stroke-width:0.1"
       id="path36" /><path
       d="m 2501.27,1179.4 c -22.5,0 -115.72,29.73 -198.41,56.06 -126.11,40.16 -269.03,85.68 -355.75,96.06 -103.22,12.36 -188.29,17.2 -270.55,21.87 -134.27,7.64 -250.23,14.23 -403.96,51.54 -39.48,9.58 -81.5,31.08 -86.94,41.3 -3.42,6.44 -5.95,15.28 -7.28,25.79 17.77,-16.58 60.76,-33.93 90.52,-41.15 249.32,-60.52 404.45,-41.19 676.35,-73.74 152.48,-18.25 497.83,-152.16 557.05,-152.16 1.55,0 2.9,0.09 4.06,0.28 33.87,5.59 142.26,187.71 261.25,249.71 7.68,4.01 15.31,8.01 22.76,11.97 19.84,7.46 37.83,16.63 53.22,30.16 8.83,5.56 16.44,10.84 22.35,15.73 1.25,-8.65 0.85,-16.1 -1.77,-20.7 -8.37,-14.67 -72.81,-48.26 -103.78,-64.4 -74.44,-38.8 -143.72,-121.46 -194.31,-181.81 -23.65,-28.23 -53.1,-63.35 -62.28,-66.34 -0.7,-0.11 -1.55,-0.17 -2.53,-0.17"
       style="fill:#fdf19a;fill-opacity:1;fill-rule:nonzero;stroke:none;stroke-width:0.1"
       id="path38" /><path
       d="m 2502.66,1148.25 c -27.68,0 -93.41,20.49 -209.3,57.4 -118.6,37.77 -266.2,84.77 -349.97,94.8 -102.26,12.24 -186.82,17.05 -268.61,21.7 -135.79,7.72 -253.07,14.39 -409.57,52.37 -28.79,6.99 -92.88,30.12 -107.18,57.02 -18.06,33.96 -15.63,93.5 5.9,144.79 l 28.86,-12.11 c -20.02,-47.69 -18.62,-96.38 -7.13,-117.99 5.44,-10.22 47.46,-31.72 86.94,-41.3 153.73,-37.31 269.69,-43.9 403.96,-51.54 82.26,-4.67 167.33,-9.51 270.55,-21.87 86.72,-10.38 229.64,-55.9 355.75,-96.06 86.31,-27.48 184.09,-58.66 200.94,-55.89 9.18,2.99 38.63,38.11 62.28,66.34 50.59,60.35 119.87,143.01 194.31,181.81 30.97,16.14 95.41,49.73 103.78,64.4 8.62,15.13 -6.77,61.36 -26.14,78.52 l 20.75,23.42 c 26.11,-23.13 51.09,-84.94 32.58,-117.43 -10.93,-19.17 -47.81,-40.85 -116.5,-76.66 -68.93,-35.92 -135.9,-115.82 -184.79,-174.16 -42.98,-51.28 -62.76,-74.08 -81.17,-77.11 -1.81,-0.3 -3.89,-0.45 -6.24,-0.45"
       style="fill:#390075;fill-opacity:1;fill-rule:nonzero;stroke:none;stroke-width:0.1"
       id="path40" /><path
       d="m 1949.51,1376.64 c -170.01,0 -341.48,9.62 -508.49,34.84 -49.83,7.55 -93.03,10.38 -147.09,28.1 -32.62,10.72 -63.56,19.02 -86.72,44.64 -11.57,12.75 -20.16,27.2 -25.92,42.72 4.25,-6.56 9.03,-12.78 14.31,-18.62 22.13,-24.42 51.52,-42.06 92.52,-55.51 46.38,-15.2 85.26,-20.77 126.43,-26.66 8,-1.15 16.08,-2.3 24.32,-3.54 164.21,-24.8 332.27,-37.2 506.75,-37.2 170.47,0 347.08,11.84 532.1,35.51 104.13,13.32 183.93,25.97 259.9,47.85 l 7.16,2.06 c 44.13,12.65 86.32,24.74 117.63,57.26 0.77,-2.49 1.44,-4.96 2.02,-7.39 -6.25,-9.15 -13.22,-16.91 -20.84,-23.61 -14.98,-9.43 -33.49,-19.67 -53.22,-30.16 -17.74,-6.66 -36.96,-11.95 -57.1,-17.76 -77.73,-22.37 -160.68,-39.09 -257.54,-47.37 -168.99,-14.43 -346.79,-25.16 -526.22,-25.16"
       style="fill:#bf9925;fill-opacity:1;fill-rule:nonzero;stroke:none;stroke-width:0.1"
       id="path42" /><path
       d="m 2790.37,1466.93 c 19.73,10.49 38.24,20.73 53.22,30.16 -15.39,-13.53 -33.38,-22.7 -53.22,-30.16"
       style="fill:#c2a88f;fill-opacity:1;fill-rule:nonzero;stroke:none;stroke-width:0.1"
       id="path44" /><path
       d="m 2864.43,1520.7 c -0.58,2.43 -1.25,4.9 -2.02,7.39 4.11,4.28 8.04,8.91 11.76,13.94 0.33,-0.85 0.65,-1.69 0.97,-2.54 -1.29,-2.82 -2.7,-5.59 -4.23,-8.29 -2.06,-3.69 -4.22,-7.18 -6.48,-10.5"
       style="fill:#390075;fill-opacity:1;fill-rule:nonzero;stroke:none;stroke-width:0.1"
       id="path46" /><path
       d="m 2888.24,1628.4 c -1.05,-22.06 -6.73,-43.65 -17.33,-62.59 -29.61,-52.92 -79.79,-65.36 -137.64,-82.02 -77.73,-22.37 -161.12,-35.01 -257.54,-47.37 -348.83,-44.59 -691.25,-50.19 -1034.53,1.64 -49.83,7.55 -94.15,11.89 -148.21,29.61 -32.62,10.72 -62.62,25.55 -85.78,51.17 -21.2,23.39 -32.42,52.45 -34.54,83.43 -0.58,7.71 -0.58,15.53 0,23.39 3.05,42.48 18.04,88.79 36.85,123.57 l 1611.87,14.39 c 45.57,-26.56 69.43,-82.18 66.85,-135.22"
       style="fill:#ff1a61;fill-opacity:1;fill-rule:nonzero;stroke:none;stroke-width:0.1"
       id="path48" /><path
       d="m 1210.93,1746.89 c -19.69,-36.83 -33.09,-82.1 -35.91,-121.39 -0.58,-7.74 -0.58,-15.49 0,-23.05 2.15,-31.55 13.88,-59.92 33.93,-82.04 19.88,-21.98 46.82,-38.03 84.77,-50.5 44.79,-14.68 82.84,-20.14 123.11,-25.91 8.13,-1.16 16.35,-2.35 24.72,-3.61 322.91,-48.76 661.1,-49.29 1033.88,-1.64 103.41,13.26 182.5,25.8 257.19,47.29 l 7.24,2.08 c 54.25,15.56 101.11,28.98 129,78.84 10.08,18 15.97,39.28 17.03,61.55 2.68,54.9 -23.47,108.15 -65.12,132.76 l -1609.84,-14.38 m 734.66,-348.18 c -173.84,0 -341.22,12.34 -504.74,37.03 -8.36,1.27 -16.56,2.44 -24.68,3.61 -40.49,5.8 -78.73,11.28 -123.91,26.09 -38.77,12.74 -66.35,29.21 -86.79,51.82 -20.77,22.91 -32.92,52.25 -35.14,84.85 -0.59,7.78 -0.59,15.77 0,23.73 2.9,40.35 16.78,86.9 37.12,124.51 l 0.66,1.22 1.39,0.01 1612.52,14.4 0.56,-0.33 c 44.12,-25.71 70.82,-79.64 68.01,-137.36 -1.1,-22.99 -7.2,-44.99 -17.63,-63.62 -28.84,-51.55 -76.56,-65.23 -131.81,-81.06 l -7.23,-2.08 c -74.98,-21.58 -154.26,-34.15 -257.89,-47.44 -184.47,-23.58 -360.55,-35.38 -530.44,-35.38"
       style="fill:#390075;fill-opacity:1;fill-rule:nonzero;stroke:none;stroke-width:0.1"
       id="path50" /><path
       d="m 1945.62,1385.41 c -174.48,0 -342.54,12.4 -506.75,37.2 -8.24,1.24 -16.32,2.39 -24.32,3.54 -41.17,5.89 -80.05,11.46 -126.43,26.66 -41,13.45 -70.39,31.09 -92.52,55.51 -28.13,31.06 -41.82,73.13 -38.54,118.47 3.05,42.19 17.52,90.74 38.71,129.89 l 27.52,-14.89 c -19.18,-35.44 -32.28,-79.28 -35.02,-117.25 -2.7,-37.27 7.86,-70.19 30.53,-95.21 18.32,-20.23 43.45,-35.1 79.08,-46.78 43.76,-14.36 81.33,-19.73 121.1,-25.42 8.08,-1.16 16.24,-2.33 24.56,-3.59 321.75,-48.58 658.74,-49.1 1030.2,-1.58 102.67,13.13 181.17,25.56 255.21,46.88 l 7.22,2.07 c 53.55,15.34 95.84,27.47 121.09,72.54 32.8,58.57 11.53,144.42 -43.76,176.67 l 15.76,27.03 c 70.2,-40.94 96.56,-145.31 55.3,-218.99 -31.54,-56.32 -84.11,-71.38 -139.78,-87.33 l -7.16,-2.06 c -75.97,-21.88 -155.77,-34.53 -259.9,-47.85 -185.02,-23.67 -361.63,-35.51 -532.1,-35.51"
       style="fill:#390075;fill-opacity:1;fill-rule:nonzero;stroke:none;stroke-width:0.1"
       id="path52" /><path
       d="m 2107.45,1420.21 c -18.04,8.35 -35.82,20.63 -54.06,33.24 -33.09,22.87 -67.24,46.47 -105.46,46.47 -2.16,0 -4.35,-0.08 -6.54,-0.24 -28.95,-2.08 -54.11,-18.1 -78.43,-33.6 -22.92,-14.61 -46.62,-29.7 -73.17,-32.75 -3.57,-0.4 -7.11,-0.6 -10.6,-0.6 -34.4,0 -65.17,18.85 -97.57,38.71 -31.7,19.44 -64.5,39.54 -101.2,40.34 -0.71,0.01 -1.42,0.02 -2.13,0.02 -24.9,0 -48.76,-8.85 -71.84,-17.43 -6.51,-2.42 -13.01,-4.83 -19.53,-7.05 -18.97,-6.44 -36.01,-9.66 -51.03,-9.66 -15.57,0 -28.96,3.47 -40.06,10.4 -14.69,9.15 -24.98,24.18 -34.93,38.7 -10.65,15.54 -21.67,31.62 -38.25,41.13 -17.69,10.14 -38.16,10.92 -58.29,10.92 -1.8,0 -3.6,-0.01 -5.4,-0.01 -1.56,-0.01 -3.13,-0.01 -4.71,-0.01 -11.72,0 -23.66,0.21 -34.93,2.34 -10.45,1.96 -20.61,5.93 -30.01,11.68 -0.91,6.24 -1.39,12.65 -1.45,19.22 8.82,-4.44 18.25,-7.7 28.11,-9.56 12.65,-2.38 25.34,-2.65 37.73,-2.65 1.76,0 3.53,0.01 5.28,0.01 1.46,0.01 2.91,0.01 4.36,0.01 18.77,0 36.31,-0.51 50.31,-8.53 12.99,-7.46 22.37,-21.15 32.31,-35.65 11.01,-16.07 22.4,-32.69 40.31,-43.85 14.04,-8.76 30.61,-13.13 49.58,-13.13 17.06,0 36.07,3.54 56.9,10.64 6.67,2.27 13.33,4.74 19.99,7.21 22.43,8.33 43.6,16.28 65.16,16.28 0.71,0 1.42,-0.01 2.14,-0.02 31.81,-0.69 61.12,-18.65 92.14,-37.67 33.25,-20.38 67.55,-41.37 107.06,-41.37 4.15,0 8.35,0.23 12.62,0.72 30.67,3.52 56.15,19.75 80.79,35.45 23.46,14.96 45.62,29.08 70.02,30.83 1.78,0.12 3.55,0.18 5.31,0.18 32.51,0 62.99,-21.04 95.15,-43.26 33.6,-23.22 68.15,-47.1 107.38,-47.09 7.97,0 16.13,0.98 24.51,3.16 34.27,8.9 58.63,32.17 82.2,54.69 18.6,17.78 36.19,34.58 57.83,43.99 10.02,4.36 20.11,6.16 30.4,6.16 22.62,0 46.24,-8.75 72.29,-18.39 28.65,-10.61 58.28,-21.58 90.28,-21.58 0.1,0 0.2,0 0.3,0 71.12,0.14 102.83,39.98 128.31,71.99 12.82,16.12 24.94,31.34 40.45,40.4 19.26,11.24 43.73,13.28 70.27,13.28 7.42,0 15,-0.16 22.67,-0.32 7.62,-0.16 15.29,-0.31 22.96,-0.31 24.88,0 49.69,1.66 72.06,10.49 2.65,1.04 5.23,2.19 7.74,3.44 0.08,-6.36 -0.27,-12.72 -1.05,-19 -4.29,-2.68 -8.74,-4.92 -13.33,-6.72 -19.59,-7.73 -42.43,-9.25 -65.61,-9.25 -7.47,0 -14.99,0.16 -22.43,0.32 -7.47,0.15 -14.98,0.31 -22.46,0.31 -28.69,0 -56.93,-2.29 -79.94,-15.72 -18.45,-10.77 -31.59,-27.28 -45.5,-44.76 -25.45,-31.98 -51.77,-65.05 -114.19,-65.17 h -0.26 c -28.76,0 -56.84,10.4 -84,20.46 -26.88,9.95 -52.77,19.54 -78.66,19.54 -12.46,0 -24.92,-2.22 -37.5,-7.7 -24.61,-10.69 -44.2,-29.41 -63.15,-47.51 -14.5,-13.85 -28.49,-27.22 -44.35,-37.12 -31.19,-2.05 -62.15,-3.74 -92.9,-5.05"
       style="fill:#c81f4e;fill-opacity:1;fill-rule:nonzero;stroke:none;stroke-width:0.1"
       id="path54" /><path
       d="m 2150.53,1409.58 c -14.75,0 -29,4.12 -43.08,10.63 30.75,1.31 61.71,3 92.9,5.05 -9.18,-5.72 -18.98,-10.29 -29.87,-13.11 -6.77,-1.76 -13.41,-2.57 -19.95,-2.57 m -961.22,183.23 c -4.99,3.05 -9.77,6.6 -14.27,10.62 -0.37,5.37 -0.45,10.84 -0.25,16.32 4.18,-2.86 8.55,-5.44 13.07,-7.72 0.06,-6.57 0.54,-12.98 1.45,-19.22 m 1682.42,25.77 c 0.78,6.28 1.13,12.64 1.05,19 4.54,2.25 8.85,4.83 12.95,7.67 0.3,-5.22 0.34,-10.48 0.11,-15.76 -4.46,-4.19 -9.18,-7.84 -14.11,-10.91"
       style="fill:#3e0c5c;fill-opacity:1;fill-rule:nonzero;stroke:none;stroke-width:0.1"
       id="path56" /><path
       d="m 2097.45,1419.8 c -15.97,8.29 -31.51,19.03 -46.85,29.63 -32.46,22.44 -66.05,45.6 -102.73,45.6 -2.03,0 -4.07,-0.08 -6.13,-0.22 -27.72,-1.99 -52.34,-17.68 -76.15,-32.85 -23.39,-14.91 -47.57,-30.32 -75.24,-33.48 -3.7,-0.43 -7.37,-0.63 -11.01,-0.63 -36.02,0 -68.63,20.02 -100.27,39.42 -31.16,19.1 -63.37,38.85 -98.75,39.61 -0.71,0.02 -1.43,0.03 -2.15,0.03 -24.04,0 -47.38,-8.72 -70.02,-17.12 -6.55,-2.44 -13.09,-4.87 -19.66,-7.1 -19.47,-6.61 -37.04,-9.91 -52.62,-9.91 -16.5,0 -30.75,3.71 -42.63,11.13 -15.55,9.69 -26.14,25.15 -36.38,40.09 -10.81,15.78 -21.03,30.7 -36.65,39.66 -16.71,9.57 -35.82,10.26 -56.06,10.26 -1.72,0 -3.44,-0.01 -5.17,-0.01 -1.8,-0.01 -3.6,-0.02 -5.41,-0.02 -11.72,0 -23.68,0.27 -35.15,2.43 -9.71,1.83 -19.16,5.28 -28.04,10.21 -0.4,2.07 -0.76,4.17 -1.07,6.28 9.4,-5.75 19.56,-9.72 30.01,-11.68 11.27,-2.13 23.21,-2.34 34.93,-2.34 1.58,0 3.15,0 4.71,0.01 1.8,0 3.6,0.01 5.4,0.01 20.13,0 40.6,-0.78 58.29,-10.92 16.58,-9.51 27.6,-25.59 38.25,-41.13 9.95,-14.52 20.24,-29.55 34.93,-38.7 11.1,-6.93 24.49,-10.4 40.06,-10.4 15.02,0 32.06,3.22 51.03,9.66 6.52,2.22 13.02,4.63 19.53,7.05 23.08,8.58 46.94,17.43 71.84,17.43 0.71,0 1.42,-0.01 2.13,-0.02 36.7,-0.8 69.5,-20.9 101.2,-40.34 32.4,-19.86 63.17,-38.71 97.57,-38.71 3.49,0 7.03,0.2 10.6,0.6 26.55,3.05 50.25,18.14 73.17,32.75 24.32,15.5 49.48,31.52 78.43,33.6 2.19,0.16 4.38,0.24 6.54,0.24 38.22,0 72.37,-23.6 105.46,-46.47 18.24,-12.61 36.02,-24.89 54.06,-33.24 -3.33,-0.14 -6.67,-0.28 -10,-0.41"
       style="fill:#c31267;fill-opacity:1;fill-rule:nonzero;stroke:none;stroke-width:0.1"
       id="path58" /><path
       d="m 2150.88,1404.75 c -18.48,0 -36.2,6.1 -53.43,15.05 3.33,0.13 6.67,0.27 10,0.41 14.08,-6.51 28.33,-10.63 43.08,-10.63 6.54,0 13.18,0.81 19.95,2.57 10.89,2.82 20.69,7.39 29.87,13.11 3.23,0.22 6.46,0.43 9.69,0.65 -11.58,-8.17 -24.13,-14.81 -38.33,-18.49 -7.06,-1.83 -14,-2.67 -20.83,-2.67 m -960.5,181.78 c -6.84,3.8 -13.34,8.46 -19.35,13.93 l -0.72,0.66 -0.07,0.96 c -0.53,6.93 -0.59,14.01 -0.18,21.09 1.55,-1.18 3.13,-2.32 4.73,-3.42 -0.2,-5.48 -0.12,-10.95 0.25,-16.32 4.5,-4.02 9.28,-7.57 14.27,-10.62 0.31,-2.11 0.67,-4.21 1.07,-6.28 m 1680.43,25.82 c 0.35,2.06 0.66,4.14 0.92,6.23 4.93,3.07 9.65,6.72 14.11,10.91 0.23,5.28 0.19,10.54 -0.11,15.76 1.6,1.12 3.18,2.28 4.72,3.48 0.48,-6.74 0.57,-13.56 0.23,-20.45 l -0.05,-0.98 -0.7,-0.67 c -5.96,-5.71 -12.36,-10.49 -19.12,-14.28"
       style="fill:#390075;fill-opacity:1;fill-rule:nonzero;stroke:none;stroke-width:0.1"
       id="path60" /><path
       d="m 2200.35,1425.26 c 15.86,9.9 29.85,23.27 44.35,37.12 18.95,18.1 38.54,36.82 63.15,47.51 12.58,5.48 25.04,7.7 37.5,7.7 25.89,0 51.78,-9.59 78.66,-19.54 27.16,-10.06 55.24,-20.46 84,-20.46 h 0.26 c 62.42,0.12 88.74,33.19 114.19,65.17 13.91,17.48 27.05,33.99 45.5,44.76 23.01,13.43 51.25,15.72 79.94,15.72 7.48,0 14.99,-0.16 22.46,-0.31 7.44,-0.16 14.96,-0.32 22.43,-0.32 23.18,0 46.02,1.52 65.61,9.25 4.59,1.8 9.04,4.04 13.33,6.72 -0.26,-2.09 -0.57,-4.17 -0.92,-6.23 -3.45,-1.94 -7,-3.62 -10.63,-5.04 -20.33,-8.03 -43.69,-9.58 -67.32,-9.58 -7.54,0 -15.1,0.15 -22.61,0.31 -7.4,0.15 -14.86,0.31 -22.27,0.31 -28.05,0 -55.55,-2.2 -77.56,-15.05 -17.65,-10.31 -30.52,-26.47 -44.14,-43.58 -26.17,-32.89 -53.23,-66.89 -118,-67.02 -0.09,0 -0.19,0 -0.28,0 -29.63,0 -58.12,10.55 -85.69,20.76 -26.41,9.79 -51.83,19.19 -76.98,19.19 -11.88,0 -23.7,-2.09 -35.53,-7.24 -23.82,-10.35 -43.09,-28.76 -61.73,-46.56 -12.08,-11.55 -24.38,-23.31 -38.03,-32.94 -3.23,-0.22 -6.46,-0.43 -9.69,-0.65"
       style="fill:#c31267;fill-opacity:1;fill-rule:nonzero;stroke:none;stroke-width:0.1"
       id="path62" /><path
       d="m 2859.3,1648.7 c -26.36,-10.4 -57.7,-9.75 -88.99,-9.1 -36.37,0.76 -72.69,1.51 -101.11,-15.07 -51.87,-30.28 -63.37,-110.08 -160.93,-110.27 -28.68,-0.06 -56.32,9.95 -83.38,19.97 -39.48,14.61 -77.7,29.22 -116.07,12.53 -52.96,-23 -81.86,-83.39 -137.72,-97.86 -43.22,-11.23 -81.47,15.65 -120.38,42.53 -34.55,23.87 -69.62,47.75 -109.15,44.93 -55.55,-3.99 -96.15,-60 -151.5,-66.34 -75.41,-8.64 -133.81,76.78 -209.69,78.43 -32.12,0.66 -62.24,-13.97 -92.67,-24.33 -30.43,-10.33 -65.91,-16.04 -93.17,0.97 -30.87,19.25 -41.54,61.69 -73.11,79.8 -18.71,10.71 -40.48,10.64 -62.46,10.58 -13.51,-0.05 -27.09,-0.09 -40.1,2.37 -50.11,9.46 -86.05,61.33 -81.91,112.18 3.13,38.92 21.32,69 46.98,92.94 26.79,25.07 61.72,43.46 96.22,58.36 l 1469.85,33.37 c 41.58,-5.79 84.41,-11.94 120.63,-33.14 2.82,-1.64 5.55,-3.44 8.18,-5.31 30.94,-22.14 47.36,-59.19 51,-97.72 3.68,-38.52 -18.23,-109.21 -70.52,-129.82"
       style="fill:#13e23a;fill-opacity:1;fill-rule:nonzero;stroke:none;stroke-width:0.1"
       id="path64" /><path
       d="m 1947.93,1538.94 c 38.19,0 72.32,-23.59 105.4,-46.45 38.81,-26.82 75.47,-52.15 117.18,-41.31 29.72,7.7 51.35,28.36 74.25,50.25 18.95,18.1 38.53,36.81 63.13,47.49 38.67,16.83 76.27,2.9 116.09,-11.85 27.16,-10.06 55.25,-20.46 84.03,-20.46 h 0.26 c 62.47,0.13 88.8,33.21 114.26,65.21 13.91,17.47 27.04,33.98 45.48,44.74 28.99,16.92 66.29,16.13 102.34,15.39 30.57,-0.64 62.16,-1.29 88.08,8.94 h 0.01 c 50.39,19.86 72.81,87.94 69.04,127.41 -3.87,41.04 -22.11,76.04 -50.03,96.02 -2.67,1.91 -5.36,3.67 -8,5.21 -36.2,21.19 -78.68,27.11 -119.76,32.83 l -1469.01,-33.38 c -42.44,-18.37 -72.68,-36.72 -95.13,-57.74 -28.3,-26.39 -43.42,-56.29 -46.24,-91.41 -4.12,-50.48 32.52,-100.71 80,-109.68 12.78,-2.42 26.43,-2.36 39.65,-2.33 21.82,0.05 44.38,0.13 63.64,-10.89 16.56,-9.5 27.58,-25.57 38.22,-41.11 9.96,-14.53 20.26,-29.56 34.96,-38.73 21.82,-13.61 52.5,-13.87 91.17,-0.75 6.51,2.22 13.01,4.63 19.51,7.05 23.74,8.82 48.14,17.94 73.96,17.41 36.68,-0.8 69.46,-20.89 101.16,-40.33 35.7,-21.89 69.49,-42.55 108.22,-38.12 26.58,3.05 50.28,18.15 73.21,32.76 24.31,15.49 49.45,31.51 78.39,33.59 2.19,0.16 4.37,0.24 6.53,0.24 m 202.95,-94.98 c -35.59,0 -68.36,22.65 -100.22,44.66 -34.28,23.69 -69.68,48.2 -108.93,45.4 -27.74,-1.99 -52.38,-17.69 -76.19,-32.87 -23.38,-14.9 -47.55,-30.3 -75.2,-33.47 -40.41,-4.59 -76.4,17.44 -111.22,38.78 -31.17,19.11 -63.39,38.87 -98.79,39.64 -24.7,0.56 -48.9,-8.45 -72.23,-17.12 -6.55,-2.43 -13.08,-4.86 -19.63,-7.09 -40.09,-13.59 -72.1,-13.18 -95.18,1.21 -15.53,9.69 -26.11,25.13 -36.35,40.07 -10.34,15.1 -21.04,30.71 -36.68,39.69 -18.16,10.39 -39.15,10.37 -61.29,10.25 -13.44,-0.03 -27.31,-0.08 -40.53,2.42 -50.6,9.56 -88.2,61.01 -83.82,114.68 2.88,35.84 18.94,67.62 47.72,94.47 22.93,21.46 53.72,40.15 96.89,58.8 l 0.88,0.19 1469.84,33.36 c 39.98,-5.53 84.87,-11.78 121.87,-33.45 2.77,-1.61 5.58,-3.44 8.36,-5.44 29.03,-20.77 47.98,-57 51.98,-99.4 3.91,-40.9 -19.49,-111.52 -72,-132.23 -26.8,-10.57 -58.88,-9.91 -89.91,-9.26 -35.37,0.74 -72.02,1.5 -99.87,-14.76 -17.68,-10.31 -30.55,-26.48 -44.17,-43.6 -26.16,-32.87 -53.2,-66.85 -117.93,-66.98 -0.09,0 -0.19,0 -0.28,0 -29.61,0 -58.1,10.55 -85.65,20.76 -38.91,14.4 -75.65,28 -112.59,11.94 -23.83,-10.35 -43.11,-28.77 -61.75,-46.58 -22.33,-21.34 -45.41,-43.4 -76.32,-51.41 -7.05,-1.83 -13.99,-2.66 -20.81,-2.66"
       style="fill:#390075;fill-opacity:1;fill-rule:nonzero;stroke:none;stroke-width:0.1"
       id="path66" /><path
       d="m 2150.92,1461.96 c -30.01,0 -59.28,20.23 -90,41.46 -34.74,24 -70.67,48.82 -112.74,48.82 -2.56,0 -5.14,-0.09 -7.74,-0.28 -32.31,-2.31 -58.9,-19.26 -84.61,-35.65 -22.64,-14.43 -44.03,-28.06 -67.54,-30.75 -2.99,-0.35 -5.95,-0.51 -8.91,-0.51 -30.89,0 -60.09,17.9 -90.85,36.75 -33.2,20.36 -67.54,41.41 -107.82,42.28 -0.79,0.01 -1.58,0.02 -2.36,0.02 -27.48,0 -52.3,-9.24 -76.51,-18.23 -6.39,-2.38 -12.77,-4.75 -19.17,-6.93 -17.62,-6 -33.22,-8.99 -46.71,-8.99 -13.05,0 -24.13,2.8 -33.14,8.41 -12.35,7.7 -21.43,20.96 -31.04,34.98 -11.49,16.77 -23.37,34.1 -42.56,45.11 -20.72,11.88 -43.16,12.69 -65.14,12.69 -1.73,0 -3.47,-0.01 -5.19,-0.01 -1.68,-0.01 -3.35,-0.01 -5.01,-0.01 -11.3,0 -22.05,0.21 -32.12,2.11 -31.3,5.9 -57.15,32.67 -66.12,64.55 14.74,-21.89 37.04,-38.39 63.23,-43.33 11.32,-2.14 23.09,-2.38 34.85,-2.38 1.75,0 3.5,0 5.25,0.01 1.73,0 3.47,0.01 5.2,0.01 20.2,0 40.03,-0.72 57.26,-10.59 31.57,-18.11 42.24,-60.55 73.11,-79.79 12.48,-7.79 26.69,-10.82 41.34,-10.82 17.35,0 35.33,4.24 51.83,9.84 29.76,10.14 59.22,24.35 90.54,24.35 0.71,0 1.42,-0.01 2.13,-0.02 72.22,-1.56 128.62,-79.04 198.92,-79.04 3.55,0 7.14,0.2 10.77,0.61 55.35,6.34 95.95,62.35 151.5,66.34 2.14,0.15 4.27,0.23 6.39,0.23 36.95,0 70.09,-22.58 102.77,-45.15 32.67,-22.58 64.88,-45.16 99.97,-45.16 6.69,0 13.48,0.82 20.4,2.62 55.86,14.47 84.76,74.87 137.72,97.87 12.15,5.28 24.29,7.43 36.46,7.43 26.25,0 52.63,-9.99 79.61,-19.97 26.97,-9.98 54.53,-19.97 83.11,-19.97 0.09,0 0.18,0 0.27,0 97.56,0.2 109.06,79.99 160.93,110.27 22.48,13.12 49.91,15.39 78.39,15.39 7.52,0 15.12,-0.16 22.72,-0.32 7.59,-0.16 15.19,-0.31 22.72,-0.31 23.49,0 46.3,1.53 66.27,9.41 20.42,8.05 36.21,23.75 47.65,42.18 -9.01,-26.65 -26.3,-53.55 -53.4,-64.24 -17.51,-6.92 -38.08,-8.32 -60.14,-8.32 -7.43,0 -15.03,0.16 -22.74,0.32 -7.62,0.15 -15.29,0.31 -22.95,0.31 -30.44,0 -60.65,-2.49 -86.41,-17.53 -20.58,-12.02 -35.12,-30.28 -49.17,-47.94 -24.59,-30.89 -47.82,-60.08 -103.89,-60.19 h -0.22 c -26.41,0 -53.36,9.98 -79.42,19.64 -27.15,10.05 -54.92,20.33 -83.4,20.33 -14.03,0 -28.25,-2.5 -42.64,-8.75 -26.75,-11.63 -47.2,-31.17 -66.98,-50.07 -21.62,-20.66 -42.04,-40.17 -68.43,-47.02 -5.44,-1.42 -10.85,-2.07 -16.24,-2.07"
       style="fill:#a1f3b0;fill-opacity:1;fill-rule:nonzero;stroke:none;stroke-width:0.1"
       id="path68" /><path
       d="m 2150.51,1430.58 c -39.23,-0.01 -73.78,23.87 -107.38,47.09 -33.9,23.42 -65.94,45.54 -100.46,43.08 -24.4,-1.75 -46.56,-15.87 -70.02,-30.83 -24.64,-15.7 -50.12,-31.93 -80.79,-35.45 -44.91,-5.14 -82.94,18.13 -119.68,40.65 -31.02,19.02 -60.33,36.98 -92.14,37.67 -22.3,0.55 -44.13,-7.65 -67.3,-16.26 -6.66,-2.47 -13.32,-4.94 -19.99,-7.21 -43.98,-14.98 -79.8,-14.15 -106.48,2.49 -17.91,11.16 -29.3,27.78 -40.31,43.85 -9.94,14.5 -19.32,28.19 -32.31,35.65 -15.07,8.64 -34.25,8.56 -54.67,8.52 -14.05,-0.04 -28.55,-0.08 -43.01,2.64 -57.08,10.76 -99.53,68.55 -94.62,128.81 7.37,90.45 85.43,135.36 152.61,164.39 l 12.41,-28.73 c -59.15,-25.55 -127.81,-64.36 -133.83,-138.2 -3.59,-44.02 28.11,-87.76 69.22,-95.51 11.54,-2.18 23.99,-2.14 37.13,-2.1 23.62,0.07 47.98,0.14 70.33,-12.68 19.19,-11.01 31.07,-28.34 42.56,-45.11 9.61,-14.02 18.69,-27.28 31.04,-34.98 18.32,-11.4 45.19,-11.22 79.85,0.58 6.4,2.18 12.78,4.55 19.17,6.93 24.91,9.25 50.45,18.76 78.87,18.21 40.28,-0.87 74.62,-21.92 107.82,-42.28 33.7,-20.66 65.53,-40.17 99.76,-36.24 23.51,2.69 44.9,16.32 67.54,30.75 25.71,16.39 52.3,33.34 84.61,35.65 45.44,3.3 83.63,-23.08 120.48,-48.54 36.23,-25.04 70.45,-48.68 106.24,-39.39 26.39,6.85 46.81,26.36 68.43,47.02 19.78,18.9 40.23,38.44 66.98,50.07 43.6,18.94 85.5,3.42 126.04,-11.58 26.06,-9.66 53.01,-19.64 79.42,-19.64 h 0.22 c 56.07,0.11 79.3,29.3 103.89,60.19 14.05,17.66 28.59,35.92 49.17,47.94 32.24,18.82 71.46,17.99 109.36,17.22 30.59,-0.65 59.47,-1.25 82.88,8 45.9,18.1 63.66,82.72 60.71,113.81 -3.89,40.97 -22.66,74.13 -51.5,90.99 -34.12,19.94 -75.19,25.62 -114.91,31.12 l 4.29,30.99 c 40.75,-5.63 86.94,-12.03 126.41,-35.09 37.64,-22.01 62.01,-63.94 66.86,-115.05 4.38,-46.14 -21.11,-122.51 -80.37,-145.88 -29.27,-11.55 -62.7,-10.84 -95.02,-10.18 -35.11,0.74 -68.3,1.43 -92.94,-12.96 -15.51,-9.06 -27.63,-24.28 -40.45,-40.4 -25.48,-32.01 -57.19,-71.85 -128.31,-71.99 -0.1,0 -0.2,0 -0.3,0 -32,0 -61.63,10.97 -90.28,21.58 -37.9,14.03 -70.64,26.17 -102.69,12.23 -21.64,-9.41 -39.23,-26.21 -57.83,-43.99 -23.57,-22.52 -47.93,-45.79 -82.2,-54.69 -8.38,-2.18 -16.54,-3.16 -24.51,-3.16"
       style="fill:#390075;fill-opacity:1;fill-rule:nonzero;stroke:none;stroke-width:0.1"
       id="path70" /><path
       d="m 2070.48,1594.73 c -22.5,0 -38.45,0.23 -45.91,0.23 -7.46,0 -23.43,-0.23 -45.92,-0.23 -155.61,0 -624.67,10.56 -766.2,177.89 -8.39,9.93 -15.75,21.63 -21.98,34.85 0.87,0.87 1.74,1.73 2.63,2.58 6.28,-7.13 13.12,-14 20.48,-20.59 -1.95,0.7 -3.89,1.41 -5.82,2.13 6.28,-4.76 12.87,-9.36 19.73,-13.81 160.2,-126.14 519.95,-147.78 747.75,-147.78 9.45,0 18.68,0.04 27.65,0.11 4.85,0.04 8.68,0.06 11.38,0.06 2.7,0 6.52,-0.02 11.37,-0.06 9,-0.07 18.22,-0.11 27.69,-0.11 247.63,0 651.54,25.6 784.98,183.38 12.19,14.42 22.15,31.68 29.89,51.21 2.56,-1.76 5.03,-3.65 7.4,-5.67 -7.61,-35.32 -20.84,-64.91 -38.95,-86.3 -141.51,-167.32 -610.55,-177.89 -766.17,-177.89"
       style="fill:#1e9e4c;fill-opacity:1;fill-rule:nonzero;stroke:none;stroke-width:0.1"
       id="path72" /><path
       d="m 1190.47,1807.47 c -1.84,3.91 -3.59,7.96 -5.24,12.13 1.62,-2.13 3.29,-4.2 4.99,-6.22 0.95,-1.12 1.9,-2.22 2.88,-3.33 -0.89,-0.85 -1.76,-1.71 -2.63,-2.58 m 1685.13,51.45 c -2.37,2.02 -4.84,3.91 -7.4,5.67 1.94,4.91 3.75,9.97 5.41,15.16 1.78,-1.13 3.52,-2.31 5.21,-3.51 -0.93,-5.92 -2,-11.69 -3.22,-17.32"
       style="fill:#390075;fill-opacity:1;fill-rule:nonzero;stroke:none;stroke-width:0.1"
       id="path74" /><path
       d="m 2024.56,2654.42 c 797.8,0 953.3,-663.98 812.1,-830.94 -161.98,-191.53 -753.05,-177.66 -812.1,-177.66 -59.05,0 -650.12,-13.87 -812.09,177.66 -141.2,166.96 14.3,830.94 812.09,830.94"
       style="fill:#ff954d;fill-opacity:1;fill-rule:nonzero;stroke:none;stroke-width:0.1"
       id="path76" /><path
       d="m 2826.01,2238.5 c -61.36,125.17 -235.76,375.16 -662.02,423.4 365.54,-39.04 571.16,-230.73 662.02,-423.4"
       style="fill:#aff1ff;fill-opacity:1;fill-rule:nonzero;stroke:none;stroke-width:0.1"
       id="path78" /><path
       d="m 1192.45,1869.7 c -32.08,74.53 -31.44,205.31 32.82,343.81 59.32,127.87 254.96,425.26 789,425.26 173.69,0 311.62,-31.47 420.67,-78.33 7.46,-5.26 14.8,-10.63 21.94,-16.07 -112.88,46.24 -250.01,74.43 -414.43,74.43 -179.7,0 -326.74,-33.74 -445.21,-87.84 -14.89,-24.37 -42.29,-50.13 -77.63,-70.54 -30.49,-17.6 -61.49,-28.1 -87.76,-31.11 -210.56,-170.28 -273.02,-415.13 -239.4,-559.61"
       style="fill:#ffd5b8;fill-opacity:1;fill-rule:nonzero;stroke:none;stroke-width:0.1"
       id="path80" /><path
       d="m 2054.61,1661.29 c -0.02,0 -0.07,0 -0.09,0 -9.46,0 -19.05,0.03 -28.64,0.11 -4.95,0.03 -8.85,0.06 -11.61,0.06 -2.76,0 -6.66,-0.03 -11.62,-0.06 -9.61,-0.08 -19.15,-0.11 -28.64,-0.11 -289.96,0 -516.8,34.36 -652.52,96.97 184.09,-42.42 399.5,-46.45 495.62,-46.45 22.55,0 38.52,0.22 45.99,0.22 7.48,0 23.51,-0.22 46.08,-0.22 155.78,0 624.56,10.58 766.04,177.88 94.46,111.68 56.13,445.73 -218.34,654.68 33.59,-13.76 65.05,-29.12 94.42,-45.81 8.08,-5.23 15.94,-10.54 23.58,-15.92 273.96,-208.98 312.15,-542.68 217.76,-654.28 -33.63,-39.77 -85.78,-70.68 -147.81,-94.7 -138.17,-46.96 -340.82,-72.37 -590.22,-72.37"
       style="fill:#c36859;fill-opacity:1;fill-rule:nonzero;stroke:none;stroke-width:0.1"
       id="path82" /><path
       d="m 2551.3,2498.56 c -29.37,16.69 -60.83,32.05 -94.42,45.81 -7.14,5.44 -14.48,10.81 -21.94,16.07 43.18,-18.55 81.8,-39.5 116.36,-61.88"
       style="fill:#c395a4;fill-opacity:1;fill-rule:nonzero;stroke:none;stroke-width:0.1"
       id="path84" /><path
       d="m 1227.49,1777.78 c -6.86,4.45 -13.45,9.05 -19.73,13.81 1.93,-0.72 3.87,-1.43 5.82,-2.13 4.45,-3.99 9.09,-7.88 13.91,-11.68"
       style="fill:#266e58;fill-opacity:1;fill-rule:nonzero;stroke:none;stroke-width:0.1"
       id="path86" /><path
       d="m 2014.27,1661.46 c 2.76,0 6.66,-0.03 11.61,-0.06 9.59,-0.08 19.18,-0.11 28.64,-0.11 390.85,-0.01 666.97,62.41 759.89,172.29 51.69,61.13 65.35,215.05 -11.15,379.94 -59.33,127.86 -254.96,425.25 -788.99,425.25 -534.04,0 -729.68,-297.39 -789,-425.26 -76.5,-164.88 -62.84,-318.8 -11.15,-379.93 92.91,-109.87 369.08,-172.29 759.89,-172.29 9.49,0 19.03,0.03 28.64,0.11 4.96,0.03 8.86,0.06 11.62,0.06 m 39.06,-31.46 c -9.47,0 -18.69,0.04 -27.69,0.11 -4.85,0.04 -8.67,0.06 -11.37,0.06 -2.7,0 -6.53,-0.02 -11.38,-0.06 -244.2,-1.87 -674.13,19.45 -812.67,183.27 -69.25,81.89 -66.45,255.71 6.66,413.3 61.85,133.31 265.32,443.39 817.39,443.39 552.06,0 755.52,-310.07 817.37,-443.38 73.12,-157.59 75.93,-331.42 6.67,-413.31 C 2704.87,1655.6 2300.96,1630 2053.33,1630"
       style="fill:#390075;fill-opacity:1;fill-rule:nonzero;stroke:none;stroke-width:0.1"
       id="path88" /><path
       d="m 1862.2414,1975.2209 c 10.6647,-21.4146 19.0296,-40.1375 28.8255,-56.7309 9.6084,-16.5593 20.0006,-30.9039 32.1475,-43.2041 12.0276,-12.3172 25.6567,-23.1523 41.5856,-30.972 15.8608,-7.7515 33.9363,-11.9765 51.9778,-11.6017 18.0585,0.3066 35.8444,4.8553 51.6371,12.4535 15.7586,7.7345 29.7794,17.9222 41.6708,30.3417 12.1469,12.3002 21.7554,27.0366 30.6313,43.5789 9.3018,16.5082 17.8881,34.737 30.6142,56.1346 l 0.1022,0.1874 c 1.5674,2.6236 4.9576,3.4754 7.5812,1.9251 0.8689,-0.5281 1.5673,-1.2777 2.0273,-2.1125 12.164,-22.3516 14.992,-47.9742 10.5625,-73.0517 -4.7531,-24.9923 -16.9852,-49.2349 -34.2429,-69.3719 -17.4282,-20.0687 -40.0013,-35.6229 -64.4655,-45.044 -24.4471,-9.6084 -50.3934,-13.8505 -76.1182,-13.7142 -25.7248,0.5452 -51.3815,5.1109 -75.7434,14.566 -24.3109,9.3359 -47.2758,24.2427 -64.5677,44.4308 -17.2578,20.1198 -28.7062,44.7714 -32.7097,69.7296 -3.9524,25.0093 -1.3459,50.1038 8.7567,72.4554 1.2266,2.6747 4.3783,3.8673 7.07,2.6577 1.1585,-0.5281 2.0274,-1.414 2.5555,-2.4703 l 0.1022,-0.1874"
       style="fill:#390075;fill-opacity:1;fill-rule:nonzero;stroke:none;stroke-width:0.170363"
       id="path90" /><path
       d="m 1655.72,1869.31 c 0,-29.47 -45.89,-53.36 -102.51,-53.36 -56.61,0 -102.5,23.89 -102.5,53.36 0,29.48 45.89,53.37 102.5,53.37 56.62,0 102.51,-23.89 102.51,-53.37"
       style="fill:#ff5548;fill-opacity:1;fill-rule:nonzero;stroke:none;stroke-width:0.1"
       id="path92" /><path
       d="m 2598.42,1869.31 c 0,-29.47 -45.89,-53.36 -102.51,-53.36 -56.61,0 -102.5,23.89 -102.5,53.36 0,29.48 45.89,53.37 102.5,53.37 56.62,0 102.51,-23.89 102.51,-53.37"
       style="fill:#ff5548;fill-opacity:1;fill-rule:nonzero;stroke:none;stroke-width:0.1"
       id="path94" /><path
       d="m 3119.16,1703.6 c 0,0 177.22,703.18 302.56,959.63 11.68,23.91 47.03,18.81 51.49,-7.42 19.46,-114.43 32.21,-385.06 -109.16,-895.62 -10.35,-37.39 -44.35,-62.99 -83.15,-63.57 -19.32,-0.29 -36.03,-3.8 -37.94,-14.7 l -123.8,21.68"
       style="fill:#b2b2b2;fill-opacity:1;fill-rule:nonzero;stroke:none;stroke-width:0.1"
       id="path96" /><path
       d="m 3122.18,1705.55 119.01,-20.83 c 3.38,9.17 16.7,13.99 39.67,14.35 38.27,0.57 70.76,25.4 80.83,61.78 140.81,508.55 128.8,778.75 109.11,894.55 -1.85,10.89 -10.08,18.94 -20.98,20.5 -10.87,1.57 -21.06,-3.82 -25.91,-13.74 -120,-245.54 -289.84,-909.81 -301.73,-956.61 m 122.77,-26.46 -128.8,22.55 0.64,2.55 c 1.78,7.04 178.72,706.37 302.73,960.12 5.8,11.86 17.97,18.32 31,16.43 13.03,-1.87 22.89,-11.5 25.1,-24.52 19.76,-116.2 31.85,-387.21 -109.21,-896.68 -10.66,-38.49 -45.01,-64.75 -85.47,-65.37 -15.26,-0.23 -33.81,-2.61 -35.57,-12.67 l -0.42,-2.41"
       style="fill:#390075;fill-opacity:1;fill-rule:nonzero;stroke:none;stroke-width:0.1"
       id="path98" /><path
       d="m 3164.76,1715.36 -24.72,6.09 c -3.07,0.76 -6.14,1.12 -9.16,1.12 -1.48,0 -2.96,-0.09 -4.41,-0.26 29.55,114.95 185.27,710.33 297.44,939.85 4.29,8.78 12.77,14.01 22.19,14.01 1.23,0 2.47,-0.09 3.72,-0.27 7.55,-1.08 13.82,-5.28 17.58,-11.38 -1.7,-1.88 -3.21,-4.09 -4.43,-6.6 -113.76,-232.78 -270.29,-833.64 -298.21,-942.56"
       style="fill:#e0e0e0;fill-opacity:1;fill-rule:nonzero;stroke:none;stroke-width:0.1"
       id="path100" /><path
       d="m 3123.85,1721.91 c 28.79,112.25 184.53,709.45 297.85,941.33 5.12,10.48 14.78,15.38 24.4,15.38 8.98,0 17.93,-4.28 23.09,-12.29 -0.62,-0.57 -1.22,-1.17 -1.79,-1.81 -3.76,6.1 -10.03,10.3 -17.58,11.38 -1.25,0.18 -2.49,0.27 -3.72,0.27 -9.42,0 -17.9,-5.23 -22.19,-14.01 -112.17,-229.52 -267.89,-824.9 -297.44,-939.85 -0.88,-0.1 -1.75,-0.23 -2.62,-0.4"
       style="fill:#b099c8;fill-opacity:1;fill-rule:nonzero;stroke:none;stroke-width:0.1"
       id="path102" /><path
       d="m 3283.43,1696.72 c 37.73,1.63 70.49,26.9 80.61,63.49 141.37,510.54 128.62,781.16 109.17,895.6 -3.78,22.21 -29.72,29.26 -44.67,16.38 15.6,-146.02 10.84,-442.38 -137.9,-957.58 -1.81,-6.29 -4.24,-12.27 -7.21,-17.89"
       style="fill:#ffffff;fill-opacity:1;fill-rule:nonzero;stroke:none;stroke-width:0.1"
       id="path104" /><path
       d="m 3257.27,1676.99 c 0.27,0.24 0.9,1.09 1.1,2.23 l -30.82,5.4 c 3.13,17.86 21,27.16 53.11,27.64 32.37,0.49 59.82,21.44 68.31,52.11 140.13,506.08 128.32,774.1 108.82,888.82 -1.34,7.83 -7.88,9.36 -9.85,9.65 -1.97,0.28 -8.68,0.65 -12.16,-6.47 -123.19,-252.06 -299.68,-949.58 -301.45,-956.6 l -30.34,7.65 c 7.25,28.78 179.05,707.7 303.67,962.69 8.36,17.11 25.93,26.41 44.74,23.7 18.82,-2.71 33.04,-16.6 36.24,-35.38 19.94,-117.28 32.23,-390.48 -109.51,-902.41 -12.05,-43.5 -52.34,-74.36 -98,-75.04 -19.33,-0.3 -23.82,-3.95 -23.86,-3.99"
       style="fill:#390075;fill-opacity:1;fill-rule:nonzero;stroke:none;stroke-width:0.1"
       id="path106" /><path
       d="m 3253.7,1654.25 c -5.44,-21.59 -14.47,-57.5 -25,-99.58 -17.79,-71.31 -39.86,-160.42 -56.01,-227.73 -7.82,-32.67 -9.15,-57.54 -7.67,-78.51 3.21,-46.04 19.72,-73.11 9.27,-121.69 -14.7,-68.49 -91.25,-92.27 -152.04,-52.22 -75.61,49.91 -41.3,177.43 -27.3,225.39 0.9,3.13 2.23,7.59 3.87,13.22 14.28,48.77 53.98,184.27 83.16,283.7 11.62,39.71 21.59,73.7 27.58,94.08 3.36,11.46 15.14,18.22 26.71,15.37 l 101.16,-24.96 c 11.97,-2.93 19.28,-15.1 16.27,-27.07"
       style="fill:#4089ff;fill-opacity:1;fill-rule:nonzero;stroke:none;stroke-width:0.1"
       id="path108" /><path
       d="m 3084.88,1070.69 c -18.21,0 -37.08,5.74 -54,16.9 -28.86,19.03 -42.21,54.24 -40.02,105.1 7.28,-13.47 17.47,-25.28 31.39,-34.46 20.06,-13.22 41.84,-19.48 62.54,-19.48 30.64,0 58.91,13.7 75.82,38.89 1.97,-14.53 2.28,-29.4 -1.63,-47.62 -5.41,-25.2 -20.89,-44.19 -43.59,-53.47 -9.61,-3.93 -19.95,-5.86 -30.51,-5.86"
       style="fill:#3e60d5;fill-opacity:1;fill-rule:nonzero;stroke:none;stroke-width:0.1"
       id="path110" /><path
       d="m 3130.93,1691.27 c -2.88,0 -5.52,-1.89 -6.37,-4.78 -22.7,-77.4 -102.59,-349.87 -114.58,-390.96 -31.53,-108.03 -24.5,-177.99 20.9,-207.94 26.73,-17.62 58.32,-21.75 84.51,-11.04 22.7,9.28 38.18,28.27 43.59,53.47 6.06,28.23 2,48.42 -2.7,71.8 -6.35,31.58 -13.55,67.38 1.18,128.77 25.4,105.86 65.16,264.28 81.07,327.47 0.59,2.33 -0.22,4.16 -0.75,5.04 -0.53,0.89 -1.78,2.46 -4.12,3.04 l -101.12,24.93 c -0.53,0.14 -1.08,0.2 -1.61,0.2 M 3084.9,1039.4 c -24.28,0 -49.15,7.49 -71.24,22.07 -58.2,38.38 -69.55,120.08 -33.71,242.83 11.98,41.08 91.89,313.59 114.59,391.01 5.73,19.54 25.73,31.01 45.5,26.14 l 101.11,-24.93 c 9.88,-2.43 18.21,-8.58 23.46,-17.3 5.23,-8.72 6.75,-18.94 4.26,-28.8 -15.9,-63.15 -55.62,-221.43 -80.98,-327.14 -13.12,-54.68 -6.92,-85.49 -0.93,-115.29 4.93,-24.56 10.04,-49.95 2.61,-84.53 -7.53,-35.1 -30.25,-62.76 -62.34,-75.88 -13.41,-5.48 -27.76,-8.18 -42.33,-8.18"
       style="fill:#390075;fill-opacity:1;fill-rule:nonzero;stroke:none;stroke-width:0.1"
       id="path112" /><path
       d="m 3166.91,1603.63 c 10.96,-1.92 21.41,5.41 23.32,16.38 1.92,10.96 -5.41,21.41 -16.37,23.33 -10.97,1.92 -21.41,-5.42 -23.33,-16.38 -1.92,-10.96 5.41,-21.41 16.38,-23.33"
       style="fill:#4a2922;fill-opacity:1;fill-rule:nonzero;stroke:none;stroke-width:0.1"
       id="path114" /><path
       d="m 3170.34,1641.2 c -3.61,0 -7.12,-1.11 -10.13,-3.22 -3.87,-2.72 -6.46,-6.78 -7.27,-11.44 -0.82,-4.66 0.23,-9.36 2.95,-13.23 2.72,-3.87 6.78,-6.46 11.44,-7.27 4.68,-0.82 9.36,0.23 13.23,2.95 3.87,2.72 6.45,6.78 7.27,11.44 0.81,4.66 -0.24,9.36 -2.95,13.23 -2.72,3.87 -6.79,6.45 -11.44,7.27 -1.04,0.18 -2.07,0.27 -3.1,0.27 m 0.09,-40.32 c -1.31,0 -2.63,0.12 -3.94,0.34 -5.95,1.05 -11.13,4.34 -14.6,9.28 -3.47,4.94 -4.81,10.94 -3.77,16.88 1.04,5.94 4.34,11.13 9.28,14.6 4.94,3.47 10.92,4.81 16.88,3.76 5.94,-1.04 11.13,-4.33 14.6,-9.27 3.47,-4.94 4.8,-10.94 3.76,-16.88 -1.04,-5.95 -4.34,-11.13 -9.27,-14.6 -3.85,-2.7 -8.34,-4.11 -12.94,-4.11"
       style="fill:#390075;fill-opacity:1;fill-rule:nonzero;stroke:none;stroke-width:0.1"
       id="path116" /><path
       d="m 908.511,1760.04 -139.366,-26 -77.555,510.62 105.181,19.61 111.74,-504.23"
       style="fill:#848484;fill-opacity:1;fill-rule:nonzero;stroke:none;stroke-width:0.1"
       id="path118" /><path
       d="m 694.364,2242.68 76.817,-505.77 134.394,25.07 -110.679,499.46 -100.532,-18.76 m 72.744,-511.5 -78.291,515.44 109.829,20.49 0.513,-2.31 112.285,-506.7 -144.336,-26.92"
       style="fill:#390075;fill-opacity:1;fill-rule:nonzero;stroke:none;stroke-width:0.1"
       id="path120" /><path
       d="m 908.526,1760.02 -139.368,-25.97 -64.373,423.86 c -2.103,13.86 -11.74,25.46 -25.047,29.86 -192.289,63.53 -166.762,437.91 -159.472,514.55 0.391,4.06 2.112,7.74 4.694,10.6 2.621,2.85 6.14,4.89 10.131,5.63 9.935,1.84 19.479,-4.7 21.319,-14.63 l 47.955,-257.11 c 3.207,-17.17 18.187,-29.14 35.008,-29.14 2.151,0 4.381,0.24 6.571,0.63 19.362,3.6 32.114,22.22 28.476,41.58 l -45.647,244.71 c -0.352,1.91 -0.509,3.79 -0.509,5.67 0,14.59 10.366,27.57 25.229,30.35 16.781,3.13 32.936,-7.94 36.064,-24.72 l 45.61,-244.71 c 3.207,-17.13 18.189,-29.1 35.008,-29.1 2.151,0 4.381,0.24 6.571,0.63 19.363,3.59 32.114,22.21 28.516,41.54 l -47.995,257.14 c -0.196,1.14 -0.313,2.23 -0.313,3.37 0,8.6 6.141,16.27 14.943,17.95 8.018,1.49 16.037,-2.5 19.675,-9.78 34.484,-68.86 193.2,-408.82 36.768,-537.38 -10.827,-8.9 -15.632,-23.2 -12.599,-36.88 l 92.785,-418.65"
       style="fill:#b2b2b2;fill-opacity:1;fill-rule:nonzero;stroke:none;stroke-width:0.1"
       id="path122" /><path
       d="m 538.436,2716.41 c -0.957,0 -1.928,-0.09 -2.9,-0.27 -3.388,-0.63 -6.42,-2.31 -8.775,-4.88 -2.324,-2.56 -3.73,-5.74 -4.062,-9.18 -7.08,-74.45 -32.754,-449.03 157.808,-511.99 14.199,-4.69 24.428,-16.88 26.694,-31.81 l 63.994,-421.36 134.395,25.04 -92.237,416.18 c -3.266,14.75 1.881,29.81 13.433,39.3 155.249,127.59 -3.916,467.54 -37.402,534.4 -3.135,6.26 -10.161,9.76 -17.046,8.47 -7.491,-1.43 -12.94,-7.98 -12.94,-15.55 0,-1 0.103,-1.96 0.274,-2.95 l 47.993,-257.11 c 1.86,-10 -0.283,-20.12 -6.035,-28.5 -5.757,-8.39 -14.433,-14.04 -24.434,-15.9 -2.49,-0.44 -4.843,-0.66 -7.021,-0.66 -18.306,0 -34.039,13.07 -37.412,31.09 l -45.606,244.71 c -1.396,7.47 -5.62,13.96 -11.894,18.26 -6.28,4.3 -13.858,5.9 -21.319,4.51 -13.461,-2.52 -23.233,-14.27 -23.233,-27.95 0,-1.81 0.153,-3.52 0.465,-5.23 l 45.644,-244.7 c 1.881,-10.01 -0.248,-20.15 -6.001,-28.54 -5.747,-8.39 -14.424,-14.04 -24.423,-15.9 -2.491,-0.44 -4.844,-0.66 -7.022,-0.66 -18.306,0 -34.043,13.09 -37.413,31.13 l -47.954,257.11 c -1.411,7.61 -8.086,12.94 -15.571,12.94 m 228.687,-985.22 -64.755,426.35 c -1.993,13.1 -10.953,23.8 -23.394,27.91 -194.087,64.12 -168.281,442 -161.138,517.1 0.43,4.49 2.265,8.64 5.312,12.01 3.043,3.31 7.119,5.58 11.494,6.39 11.284,2.09 22.1,-5.36 24.171,-16.59 l 47.954,-257.1 c 2.939,-15.73 16.65,-27.14 32.607,-27.14 1.89,0 3.956,0.19 6.142,0.58 8.701,1.62 16.261,6.54 21.27,13.85 5.01,7.32 6.871,16.15 5.229,24.88 l -45.643,244.7 c -0.372,2.02 -0.552,4.02 -0.552,6.13 0,16.03 11.449,29.81 27.226,32.75 8.741,1.63 17.627,-0.24 24.981,-5.28 7.353,-5.04 12.304,-12.64 13.934,-21.39 l 45.606,-244.71 c 2.939,-15.7 16.656,-27.1 32.608,-27.1 1.889,0 3.955,0.19 6.142,0.58 8.702,1.62 16.265,6.54 21.28,13.85 5.015,7.31 6.884,16.13 5.263,24.84 l -47.998,257.14 c -0.224,1.31 -0.356,2.54 -0.356,3.82 0,9.92 7.119,18.48 16.928,20.35 9.044,1.68 18.223,-2.88 22.325,-11.09 33.774,-67.43 194.253,-410.41 36.133,-540.36 -10.122,-8.32 -14.629,-21.52 -11.763,-34.46 l 93.33,-421.11 -144.336,-26.9"
       style="fill:#390075;fill-opacity:1;fill-rule:nonzero;stroke:none;stroke-width:0.1"
       id="path124" /><path
       d="m 594.032,2429.41 c -11.859,3.98 -21.273,14.11 -23.738,27.3 l -37.63,201.78 c 1.047,18.25 2.281,32.8 3.195,42.32 0.068,0.75 0.429,1.29 0.62,1.5 0.307,0.33 0.844,0.75 1.665,0.86 l 0.204,0.01 c 1.202,0 2.545,-1.37 2.842,-2.96 l 47.803,-256.27 c 0.956,-5.14 2.661,-10.03 5.039,-14.54"
       style="fill:#e0e0e0;fill-opacity:1;fill-rule:nonzero;stroke:none;stroke-width:0.1"
       id="path126" /><path
       d="m 724.825,2453.82 c -11.854,3.99 -21.264,14.1 -23.727,27.26 l -45.477,243.99 c 0.575,0.14 1.178,0.24 1.81,0.32 0.506,0.05 1.011,0.08 1.514,0.08 7.243,0 13.968,-5.8 15.429,-13.63 l 45.42,-243.5 c 0.957,-5.13 2.659,-10.01 5.031,-14.52"
       style="fill:#e0e0e0;fill-opacity:1;fill-rule:nonzero;stroke:none;stroke-width:0.1"
       id="path128" /><path
       d="m 870.704,1858.32 c -5.265,1.04 -10.682,1.59 -16.191,1.59 l -72.838,328.66 c -3.012,13.69 1.8,27.97 12.595,36.89 135.721,111.49 34.295,382.07 -17.491,496.8 l -4.104,22 c -0.161,0.88 0.136,1.55 0.415,1.96 0.278,0.41 0.796,0.93 1.685,1.09 0.092,0.02 0.187,0.03 0.285,0.03 1.001,0 2.277,-0.92 2.912,-2.19 32.51,-65.14 187.276,-396.24 40.718,-517.32 -15.576,-12.87 -22.509,-33.23 -18.09,-53.15 l 70.104,-316.36"
       style="fill:#e0e0e0;fill-opacity:1;fill-rule:nonzero;stroke:none;stroke-width:0.1"
       id="path130" /><path
       d="m 828.656,2215.76 h 0.049 -0.049 m -290.308,487.42 -0.204,-0.01 c -0.821,-0.11 -1.358,-0.53 -1.665,-0.86 -0.191,-0.21 -0.552,-0.75 -0.62,-1.5 -6.964,-72.55 -32.544,-437.6 148.295,-498.05 19.258,-6.43 33.121,-22.95 36.182,-43.09 l 61.865,-407.29 107.535,20.05 -89.136,402.25 c -4.419,19.92 2.514,40.28 18.09,53.15 146.558,121.08 -8.208,452.18 -40.718,517.32 -0.698,1.39 -2.168,2.37 -3.197,2.16 -0.889,-0.16 -1.407,-0.68 -1.685,-1.09 -0.279,-0.41 -0.576,-1.08 -0.415,-1.96 L 820.4,2488.42 c 2.558,-13.74 -0.586,-28.29 -8.629,-39.94 -7.822,-11.32 -19.36,-18.86 -32.49,-21.22 -13.369,-2.4 -26.89,0.5 -38.076,8.18 -11.323,7.81 -18.911,19.49 -21.411,32.9 l -45.42,243.5 c -1.562,8.37 -9.146,14.43 -16.943,13.55 -5.991,-0.7 -9.38,-4.42 -10.869,-6.57 -2.266,-3.3 -3.115,-7.37 -2.368,-11.39 l 45.404,-243.41 c 5.083,-27.25 -11.405,-53.77 -37.534,-60.38 -14.287,-3.6 -29.443,-0.92 -41.621,7.37 -11.366,7.85 -18.955,19.53 -21.45,32.94 l -47.803,256.27 c -0.297,1.59 -1.64,2.96 -2.842,2.96 m 217.779,-987.5 -66.729,439.29 c -1.289,8.48 -7.1,15.42 -15.166,18.12 -87.187,29.14 -142.573,118.31 -164.619,265.02 -16.748,111.45 -9.008,222.94 -4.906,265.7 0.707,7.35 3.71,14.13 8.675,19.61 5.475,5.94 12.775,9.73 20.65,10.77 17.843,2.36 34.526,-10.03 37.92,-28.24 l 47.803,-256.27 c 0.977,-5.23 3.955,-9.8 8.389,-12.86 4.77,-3.25 10.556,-4.28 16.245,-2.84 9.995,2.53 16.474,13.43 14.448,24.31 l -45.405,243.41 c -2.281,12.24 0.331,24.62 7.353,34.86 7.685,11.12 19.707,18.35 33.018,19.91 24.111,2.82 46.733,-14.26 51.332,-38.9 l 45.421,-243.49 c 0.976,-5.24 3.954,-9.81 8.388,-12.87 4.312,-2.95 9.585,-4.08 14.805,-3.15 4.863,0.88 9.224,3.79 12.275,8.21 3.341,4.83 4.658,10.82 3.614,16.41 l -47.725,255.85 c -1.66,8.91 0.249,17.92 5.367,25.39 5.131,7.49 12.885,12.52 21.82,14.16 14.756,2.72 29.937,-5.06 36.875,-18.96 19.282,-38.64 66.768,-140.37 91.065,-250.13 31.919,-144.17 12.265,-246.89 -58.418,-305.29 h -0.005 c -6.464,-5.34 -9.326,-13.87 -7.471,-22.25 l 96.138,-433.84 -171.157,-31.93"
       style="fill:#390075;fill-opacity:1;fill-rule:nonzero;stroke:none;stroke-width:0.1"
       id="path132" /><path
       d="m 958.79,1103.82 c -58.283,-10.87 -113.982,28.71 -122.901,87.35 l -10.248,65.12 -45.022,285.94 -33.913,215.56 c -5.75,36.58 18.619,71.08 54.996,77.84 l 39.819,7.44 c 36.379,6.76 71.543,-16.63 79.367,-52.77 l 40.953,-189.67 62.469,-289.26 17.64,-81.79 c 12.83,-57.89 -24.84,-114.89 -83.16,-125.76"
       style="fill:#f9db03;fill-opacity:1;fill-rule:nonzero;stroke:none;stroke-width:0.1"
       id="path134" /><path
       d="m 854.306,1841.9 c -4.073,0 -8.198,-0.37 -12.354,-1.14 l -39.819,-7.44 c -35.371,-6.58 -58.697,-39.6 -53.11,-75.16 l 89.184,-566.63 c 4.224,-27.74 19.136,-51.96 41.997,-68.2 22.852,-16.23 50.595,-22.33 78.155,-17.2 27.572,5.14 51.271,20.85 66.731,44.23 15.46,23.38 20.63,51.34 14.57,78.71 L 918.593,1789.8 c -6.714,31.02 -33.726,52.1 -64.287,52.1 m 84.966,-742.24 c -22.007,0 -43.414,6.79 -61.788,19.84 -23.91,16.99 -39.506,42.31 -43.92,71.31 l -89.18,566.62 c -5.992,38.1 18.998,73.46 56.89,80.51 l 39.819,7.43 c 37.9,7.07 73.94,-16.92 82.089,-54.58 l 121.068,-560.72 c 6.34,-28.61 0.93,-57.84 -15.24,-82.3 -16.17,-24.45 -40.954,-40.88 -69.792,-46.26 -6.66,-1.24 -13.33,-1.85 -19.946,-1.85"
       style="fill:#390075;fill-opacity:1;fill-rule:nonzero;stroke:none;stroke-width:0.1"
       id="path136" /><path
       d="m 1016.7,1222.72 -12.54,58.14 -3.18,14.75 c 3.3,1.92 6.46,3.83 9.49,5.72 l 13.68,-63.35 c -2.07,-5.29 -4.56,-10.39 -7.45,-15.26 m -92.53,428.57 -23.427,108.5 c -6.915,31.95 -35.193,53.93 -66.787,53.93 -4.149,0 -8.355,-0.38 -12.578,-1.16 l -39.82,-7.44 c -2.328,-0.43 -4.605,-0.97 -6.829,-1.63 7.503,8.44 17.797,14.52 29.84,16.76 l 39.815,7.43 c 3.325,0.62 6.63,0.92 9.883,0.92 24.409,0 45.971,-16.83 51.323,-41.61 l 28.148,-130.35 c -3.557,-1.4 -6.76,-3.2 -9.568,-5.35"
       style="fill:#fdf19a;fill-opacity:1;fill-rule:nonzero;stroke:none;stroke-width:0.1"
       id="path138" /><path
       d="m 939.331,1117.66 c -18.319,0 -36.142,5.65 -51.437,16.52 -19.892,14.13 -32.865,35.2 -36.547,59.41 l -1.757,11.16 c 19.418,-20.9 47.042,-33.54 76.681,-33.54 6.388,0 12.862,0.59 19.377,1.81 31.028,5.77 56.212,24.61 71.052,49.7 l 5.11,-23.65 c 1.5,-6.82 2.31,-13.63 2.47,-20.35 -2.46,-7.33 -5.89,-14.38 -10.28,-21.02 -13.45,-20.35 -34.079,-34.02 -58.068,-38.5 -5.542,-1.03 -11.094,-1.54 -16.601,-1.54"
       style="fill:#bf9925;fill-opacity:1;fill-rule:nonzero;stroke:none;stroke-width:0.1"
       id="path140" /><path
       d="m 1024.28,1178.72 c -0.16,6.72 -0.97,13.53 -2.47,20.35 l -5.11,23.65 c 2.89,4.87 5.38,9.97 7.45,15.26 l 2.54,-11.77 c 3.56,-16.06 2.67,-32.35 -2.41,-47.49"
       style="fill:#c2a88f;fill-opacity:1;fill-rule:nonzero;stroke:none;stroke-width:0.1"
       id="path142" /><path
       d="m 854.267,1828.6 c -3.253,0 -6.558,-0.3 -9.883,-0.92 l -39.815,-7.43 c -28.252,-5.27 -46.884,-31.63 -42.416,-60.02 l 89.194,-566.64 c 3.682,-24.21 16.655,-45.28 36.547,-59.41 19.893,-14.13 44.063,-19.45 68.038,-14.98 23.989,4.48 44.618,18.15 58.068,38.5 13.46,20.36 17.97,44.69 12.69,68.51 l -121.1,560.78 c -5.352,24.78 -26.914,41.61 -51.323,41.61 m 84.98,-742.24 c -24.751,0 -48.818,7.63 -69.477,22.31 -26.871,19.09 -44.395,47.55 -49.346,80.13 l -89.18,566.57 c -7.119,45.23 22.568,87.25 67.588,95.64 l 39.814,7.44 c 45.035,8.39 87.857,-20.1 97.53,-64.86 L 1057.26,1232.9 c 7.11,-32.1 1.03,-64.96 -17.15,-92.45 -18.18,-27.5 -46.039,-45.96 -78.437,-52.01 -7.49,-1.39 -14.989,-2.08 -22.426,-2.08"
       style="fill:#390075;fill-opacity:1;fill-rule:nonzero;stroke:none;stroke-width:0.1"
       id="path144" /><path
       d="m 846.896,1720.66 c 14.556,4.46 22.746,19.87 18.292,34.42 -4.454,14.56 -19.864,22.75 -34.419,18.3 -14.557,-4.46 -22.747,-19.87 -18.293,-34.42 4.454,-14.56 19.864,-22.75 34.42,-18.3"
       style="fill:#390075;fill-opacity:1;fill-rule:nonzero;stroke:none;stroke-width:0.1"
       id="path146" /><path
       d="m 1018.57,1479.71 c 0,0 27.91,-55.32 55.82,-21.43 27.91,33.89 34.88,122.1 20.43,147.52 -13.95,24.53 -90.23,55.05 -152.512,37.24 -62.281,-17.8 76.262,-163.33 76.262,-163.33"
       style="fill:#ff954d;fill-opacity:1;fill-rule:nonzero;stroke:none;stroke-width:0.1"
       id="path148" /><path
       d="m 1054.99,1462.95 c -0.09,0 -0.18,0 -0.26,0.01 -3.12,0.34 -7.27,3.59 -11.34,8.08 -0.72,5.31 -1.53,10.74 -2.42,16.26 0.02,-0.05 0.03,-0.1 0.04,-0.15 v 0 0 c -1.67,10.36 -3.64,21.03 -5.95,31.8 0.78,-0.09 1.57,-0.14 2.36,-0.14 6.18,0 12.73,3.04 19.28,10.98 12.49,15.17 20.78,41.22 24.85,67.66 10.81,-20.85 4.08,-100.9 -19.24,-129.22 -1.66,-2.02 -4.86,-5.28 -7.32,-5.28"
       style="fill:#c36859;fill-opacity:1;fill-rule:nonzero;stroke:none;stroke-width:0.1"
       id="path150" /><path
       d="m 1032.52,1486.79 c 5.48,-10.73 15.94,-23.14 22.21,-23.83 2.49,-0.25 5.86,3.18 7.58,5.27 23.56,28.6 30.19,109.99 18.91,129.84 -9.7,17.06 -77.25,46.32 -134.61,29.93 -3.886,-1.12 -4.219,-2.33 -4.438,-3.14 -5.342,-19.61 41.05,-85.3 87.728,-134.36 l 1.59,-1.67 1.03,-2.04 m 22.61,-55.14 c -1.37,0 -2.66,0.08 -3.88,0.21 -24.03,2.68 -40.46,29.3 -45.52,38.66 -27.113,28.66 -106.102,117.19 -93.753,162.56 3.339,12.28 12.587,21.16 26.03,25 68.903,19.7 152.393,-12.87 170.413,-44.55 17.98,-31.61 9.17,-127.4 -21.95,-165.19 -11.01,-13.36 -22.57,-16.69 -31.34,-16.69"
       style="fill:#390075;fill-opacity:1;fill-rule:nonzero;stroke:none;stroke-width:0.1"
       id="path152" /><path
       d="m 851.685,1253.84 c -3.26,0 -6.533,0.06 -9.851,0.18 l -7.126,45.27 c 1.054,-0.08 2.112,-0.14 3.175,-0.18 3.352,-0.12 6.671,-0.18 9.964,-0.18 17.634,0 34.413,1.7 50.211,4.6 37.249,6.84 69.064,20.38 93.832,34.16 l 9.09,-42.08 C 965.458,1275 913.897,1253.84 851.685,1253.84"
       style="fill:#bf9925;fill-opacity:1;fill-rule:nonzero;stroke:none;stroke-width:0.1"
       id="path154" /><path
       d="m 1000.98,1295.61 -9.09,42.08 c 3.305,1.84 6.482,3.69 9.53,5.52 l 9.05,-41.88 c -3.03,-1.89 -6.19,-3.8 -9.49,-5.72"
       style="fill:#c2a88f;fill-opacity:1;fill-rule:nonzero;stroke:none;stroke-width:0.1"
       id="path156" /><path
       d="m 841.834,1254.02 c -0.05,0 -0.105,0 -0.155,0 -5.477,0.2 -10.835,0.98 -16.038,2.27 l -7.246,46.02 c 5.262,-1.56 10.724,-2.59 16.313,-3.02 l 7.126,-45.27 m 168.636,47.31 -9.05,41.88 c 3.15,1.89 6.17,3.78 9.04,5.63 1.72,1.11 3.39,2.28 5,3.5 l 8.85,-40.97 c -3.13,-2.74 -6.49,-5.32 -10.05,-7.63 -1.24,-0.8 -2.51,-1.6 -3.79,-2.41"
       style="fill:#390075;fill-opacity:1;fill-rule:nonzero;stroke:none;stroke-width:0.1"
       id="path158" /><path
       d="m 837.883,1299.11 c -34.286,1.25 -64.231,24.84 -74.791,58.7 -14.621,46.87 -30.113,117.87 -15.647,178.77 24.025,101.17 217.22,144.89 251.794,83.73 33.701,-59.61 45.151,-144.13 49.051,-195.53 2.3,-30.35 -12.27,-59.41 -37.84,-75.93 -36.938,-23.86 -97.449,-52.46 -172.567,-49.74"
       style="fill:#ff954d;fill-opacity:1;fill-rule:nonzero;stroke:none;stroke-width:0.1"
       id="path160" /><path
       d="m 741.775,1491.3 c 10e-4,0.04 0.002,0.07 0.004,0.12 -10e-4,-0.04 -0.003,-0.09 -0.004,-0.12 m 0.004,0.12 c 0.417,14.61 2.019,29.12 5.196,43.14 -3.163,-14.01 -4.772,-28.53 -5.196,-43.14 m 8.45,54.61 c 2.644,7.49 6.226,14.63 10.596,21.41 l 10e-4,-0.01 c -4.371,-6.77 -7.952,-13.91 -10.597,-21.4"
       style="fill:#aff1ff;fill-opacity:1;fill-rule:nonzero;stroke:none;stroke-width:0.1"
       id="path162" /><path
       d="m 787.775,1597.45 -10e-4,0.01 c 35.971,30.3 88.478,48.39 132.799,50.67 0,-0.01 -10e-4,-0.01 -10e-4,-0.01 -44.317,-2.28 -96.829,-20.36 -132.797,-50.67"
       style="fill:#fdf19a;fill-opacity:1;fill-rule:nonzero;stroke:none;stroke-width:0.1"
       id="path164" /><path
       d="m 760.826,1567.43 -10e-4,0.01 c 7.109,11.01 16.305,21.05 26.949,30.02 l 10e-4,-0.01 c -10.645,-8.97 -19.839,-19 -26.949,-30.02"
       style="fill:#b099c8;fill-opacity:1;fill-rule:nonzero;stroke:none;stroke-width:0.1"
       id="path166" /><path
       d="m 1035.06,1518.95 h -0.01 c -6.27,29.15 -15.11,59.03 -27.6,85.46 12.5,-26.43 21.34,-56.31 27.61,-85.46 m -27.64,85.53 c -0.04,0.08 -0.08,0.17 -0.12,0.25 0.04,-0.09 0.08,-0.17 0.12,-0.25"
       style="fill:#ffd5b8;fill-opacity:1;fill-rule:nonzero;stroke:none;stroke-width:0.1"
       id="path168" /><path
       d="m 1041.01,1487.15 c -0.01,0.05 -0.02,0.1 -0.04,0.15 -1.66,10.31 -3.61,20.93 -5.92,31.65 h 0.01 c 2.31,-10.77 4.28,-21.44 5.95,-31.8"
       style="fill:#e7c3bd;fill-opacity:1;fill-rule:nonzero;stroke:none;stroke-width:0.1"
       id="path170" /><path
       d="m 920.572,1648.12 c 0,0 10e-4,0 10e-4,0.01 3.164,0.16 6.29,0.24 9.361,0.24 2.623,0 5.209,-0.06 7.753,-0.18 -2.538,0.12 -5.123,0.18 -7.74,0.18 -3.078,0 -6.205,-0.08 -9.375,-0.25"
       style="fill:#b099c8;fill-opacity:1;fill-rule:nonzero;stroke:none;stroke-width:0.1"
       id="path172" /><path
       d="m 741.816,1474.01 c -0.181,5.76 -0.202,11.53 -0.041,17.29 10e-4,0.03 0.003,0.08 0.004,0.12 v 0 c 0.424,14.61 2.033,29.13 5.196,43.14 0.154,0.68 0.312,1.36 0.474,2.03 0.761,3.21 1.691,6.35 2.78,9.44 2.645,7.49 6.226,14.63 10.597,21.4 7.11,11.02 16.304,21.05 26.949,30.02 35.968,30.31 88.48,48.39 132.797,50.67 3.17,0.17 6.297,0.25 9.375,0.25 2.617,0 5.202,-0.06 7.74,-0.18 28.461,-1.34 51.585,-10.26 61.548,-27.89 2.845,-5.02 5.525,-10.23 8.065,-15.57 0.04,-0.08 0.08,-0.17 0.12,-0.25 0.01,-0.03 0.02,-0.05 0.03,-0.07 12.49,-26.43 21.33,-56.31 27.6,-85.46 2.31,-10.72 4.26,-21.34 5.92,-31.65 -0.01,0.06 -0.03,0.12 -0.04,0.18 -5.65,35.04 -14.72,73.65 -29.29,107.59 3.29,-15.01 5.88,-29.84 7.93,-43.94 -3.59,8.15 -7.49,16.03 -11.73,23.52 -11.355,20.09 -39.069,29.37 -72.51,29.37 -73.114,0 -173.661,-44.32 -190.892,-116.95 -1.018,-4.3 -1.918,-8.64 -2.622,-13.06"
       style="fill:#ffd5b8;fill-opacity:1;fill-rule:nonzero;stroke:none;stroke-width:0.1"
       id="path174" /><path
       d="m 762.656,1359.21 c -1.33,4.3 -2.665,8.79 -3.979,13.46 1.316,-4.66 2.65,-9.16 3.979,-13.46 m 266.104,5.67 v 0.01 c 12.03,14.14 19.09,32.03 19.72,50.86 -0.63,-18.82 -7.69,-36.72 -19.72,-50.87"
       style="fill:#3899d5;fill-opacity:1;fill-rule:nonzero;stroke:none;stroke-width:0.1"
       id="path176" /><path
       d="m 1015.46,1352.34 v 0.01 c 4.92,3.72 9.37,7.93 13.3,12.54 v -0.01 c -3.92,-4.61 -8.37,-8.83 -13.3,-12.54"
       style="fill:#390075;fill-opacity:1;fill-rule:nonzero;stroke:none;stroke-width:0.1"
       id="path178" /><path
       d="m 898.058,1303.53 c 37.257,6.85 69.069,20.39 93.829,34.18 l 0.003,-0.02 c -24.768,-13.78 -56.583,-27.32 -93.832,-34.16"
       style="fill:#976b3d;fill-opacity:1;fill-rule:nonzero;stroke:none;stroke-width:0.1"
       id="path180" /><path
       d="m 991.89,1337.69 -0.003,0.02 c 3.304,1.84 6.484,3.68 9.533,5.51 v -0.01 c -3.048,-1.83 -6.225,-3.68 -9.53,-5.52"
       style="fill:#997587;fill-opacity:1;fill-rule:nonzero;stroke:none;stroke-width:0.1"
       id="path182" /><path
       d="m 1001.42,1343.21 v 0.01 c 3.15,1.9 6.16,3.78 9.03,5.63 1.72,1.11 3.39,2.28 5.01,3.5 v -0.01 c -1.61,-1.22 -3.28,-2.39 -5,-3.5 -2.87,-1.85 -5.89,-3.74 -9.04,-5.63"
       style="fill:#390075;fill-opacity:1;fill-rule:nonzero;stroke:none;stroke-width:0.1"
       id="path184" /><path
       d="m 847.896,1298.94 c -3.31,0 -6.643,0.06 -10.013,0.18 -34.303,1.26 -64.227,24.84 -74.788,58.68 -0.146,0.47 -0.293,0.94 -0.439,1.41 -1.329,4.3 -2.663,8.8 -3.979,13.46 -3.411,12.13 -6.688,25.41 -9.429,39.38 14.239,-22.88 38.608,-37.78 65.636,-38.76 3.321,-0.12 6.626,-0.18 9.888,-0.18 70.568,0 127.397,27.13 162.69,49.93 25.538,16.51 40.128,45.57 37.828,75.93 -1.13,15.04 -2.91,32.91 -5.72,52.16 8.87,-20.1 15.85,-41.85 21.36,-63.65 3.75,-23.27 6,-44.97 7.36,-62.72 0.23,-3.02 0.29,-6.02 0.19,-9.01 -0.63,-18.83 -7.69,-36.72 -19.72,-50.86 -3.93,-4.61 -8.38,-8.82 -13.3,-12.54 -1.62,-1.22 -3.29,-2.39 -5.01,-3.5 -2.87,-1.85 -5.88,-3.73 -9.03,-5.63 -3.049,-1.83 -6.229,-3.67 -9.533,-5.51 -24.76,-13.79 -56.572,-27.33 -93.829,-34.18 -15.784,-2.89 -32.547,-4.59 -50.162,-4.59"
       style="fill:#c36859;fill-opacity:1;fill-rule:nonzero;stroke:none;stroke-width:0.1"
       id="path186" /><path
       d="m 1040.93,1487.48 c -5.51,21.8 -12.49,43.55 -21.36,63.65 -2.05,14.1 -4.64,28.93 -7.93,43.94 14.57,-33.94 23.64,-72.55 29.29,-107.59"
       style="fill:#c395a4;fill-opacity:1;fill-rule:nonzero;stroke:none;stroke-width:0.1"
       id="path188" /><path
       d="m 838.451,1314.75 c 70.713,-2.52 127.949,24.28 163.509,47.25 20.81,13.44 32.59,37.04 30.73,61.6 -3.46,45.6 -14.17,130.81 -47.071,189.01 -9.458,16.72 -41.387,23.88 -81.401,18.21 -60.84,-8.61 -128.999,-44.99 -141.548,-97.85 -13.516,-56.9 0.889,-124.12 15.356,-170.51 8.589,-27.53 32.876,-46.71 60.425,-47.71 z m 9.439,-31.46 c -3.492,0 -7.017,0.06 -10.572,0.19 -40.796,1.48 -76.626,29.48 -89.165,69.67 -15.634,50.12 -31.084,123.26 -15.932,187.05 16.523,69.58 98.467,111.82 167.607,121.61 54.443,7.73 96.709,-4.92 113.032,-33.8 34.09,-60.31 46.57,-143.16 51.03,-202.05 2.73,-36 -14.5,-70.58 -44.95,-90.25 -37.559,-24.26 -97.095,-52.42 -171.05,-52.42"
       style="fill:#390075;fill-opacity:1;fill-rule:nonzero;stroke:none;stroke-width:0.1"
       id="path190" /><path
       d="m 3023.91,1479.71 c 0,0 -27.9,-55.32 -55.81,-21.43 -27.91,33.89 -34.89,122.1 -20.44,147.52 13.95,24.53 90.24,55.05 152.52,37.24 62.28,-17.8 -76.27,-163.33 -76.27,-163.33"
       style="fill:#ff954d;fill-opacity:1;fill-rule:nonzero;stroke:none;stroke-width:0.1"
       id="path192" /><path
       d="m 2987.48,1462.95 c -2.46,0 -5.65,3.27 -7.3,5.28 -23.57,28.6 -30.2,109.99 -18.91,129.84 0.08,0.14 0.17,0.28 0.25,0.43 2.72,-31.73 11.71,-66.27 26.9,-84.71 4.76,-5.79 9.53,-8.98 14.16,-10.28 -2.02,-11.78 -3.64,-23.22 -4.95,-34.03 -3.58,-3.67 -7.13,-6.22 -9.87,-6.52 -0.09,-0.01 -0.19,-0.01 -0.28,-0.01"
       style="fill:#c36859;fill-opacity:1;fill-rule:nonzero;stroke:none;stroke-width:0.1"
       id="path194" /><path
       d="m 3059.61,1632.83 c -46.55,0 -90.65,-21.22 -98.34,-34.76 -11.29,-19.85 -4.66,-101.24 18.91,-129.84 1.71,-2.09 5.09,-5.54 7.58,-5.27 6.26,0.69 16.73,13.11 22.2,23.84 l 1.03,2.02 1.59,1.68 c 46.68,49.06 93.07,114.75 87.74,134.36 -0.22,0.81 -0.56,2.02 -4.45,3.14 -11.85,3.39 -24.14,4.83 -36.26,4.83 m -72.26,-201.18 c -8.77,0 -20.33,3.33 -31.34,16.69 -31.11,37.79 -39.92,133.58 -21.94,165.19 18.01,31.69 101.51,64.26 170.41,44.55 13.44,-3.84 22.69,-12.72 26.03,-25 12.35,-45.38 -66.64,-133.9 -93.75,-162.56 -5.07,-9.36 -21.5,-35.98 -45.53,-38.66 -1.22,-0.13 -2.52,-0.21 -3.88,-0.21"
       style="fill:#390075;fill-opacity:1;fill-rule:nonzero;stroke:none;stroke-width:0.1"
       id="path196" /><path
       d="m 3149.22,1249.69 c -56.77,6.14 -102.65,28.8 -132.83,48.3 -1.62,1.04 -3.2,2.14 -4.73,3.28 3.13,10.72 8.4,28.72 15.03,51.33 1.72,-1.32 3.5,-2.57 5.34,-3.76 27.83,-17.98 69.05,-38.65 119.84,-46.57 -3.08,-20.32 -3.55,-37.46 -2.65,-52.58"
       style="fill:#3e60d5;fill-opacity:1;fill-rule:nonzero;stroke:none;stroke-width:0.1"
       id="path198" /><path
       d="m 3165.02,1248.43 c -5.35,0.27 -10.62,0.7 -15.8,1.26 -0.9,15.12 -0.43,32.26 2.65,52.58 2.41,-0.38 4.83,-0.73 7.28,-1.04 2.73,-0.35 5.49,-0.67 8.27,-0.95 -3.09,-20.16 -3.45,-36.99 -2.4,-51.85 m -153.36,52.84 c -4.73,3.53 -9.03,7.51 -12.84,11.86 3.61,12.31 8.83,30.15 15.1,51.54 3.78,-4.42 8.05,-8.48 12.77,-12.07 -6.63,-22.61 -11.9,-40.61 -15.03,-51.33"
       style="fill:#390075;fill-opacity:1;fill-rule:nonzero;stroke:none;stroke-width:0.1"
       id="path200" /><path
       d="m 3204.6,1299.11 c 34.29,1.25 64.23,24.84 74.79,58.7 14.62,46.87 30.11,117.87 15.65,178.77 -24.03,101.17 -217.22,144.89 -251.8,83.73 -33.69,-59.61 -45.15,-144.13 -49.04,-195.53 -2.3,-30.35 12.27,-59.41 37.83,-75.93 36.94,-23.86 97.45,-52.46 172.57,-49.74"
       style="fill:#ff954d;fill-opacity:1;fill-rule:nonzero;stroke:none;stroke-width:0.1"
       id="path202" /><path
       d="m 2994.1,1423.42 c -0.17,2.93 -0.19,5.9 -0.04,8.87 0.25,0.05 0.5,0.1 0.75,0.16 -0.22,-2.63 -0.43,-5.19 -0.61,-7.67 -0.04,-0.46 -0.07,-0.91 -0.1,-1.36"
       style="fill:#aff1ff;fill-opacity:1;fill-rule:nonzero;stroke:none;stroke-width:0.1"
       id="path204" /><path
       d="m 3004.26,1503.11 c -0.56,0.11 -1.12,0.24 -1.68,0.4 7.27,42.49 19.64,89.38 40.68,126.57 0.38,0.69 0.79,1.36 1.22,2.02 3.17,0.3 6.37,0.51 9.59,0.63 -4.47,-3.52 -8.13,-7.65 -10.83,-12.42 -19.48,-34.47 -31.53,-77.28 -38.98,-117.2"
       style="fill:#ffd5b8;fill-opacity:1;fill-rule:nonzero;stroke:none;stroke-width:0.1"
       id="path206" /><path
       d="m 2997.63,1469.48 c 1.31,10.81 2.93,22.25 4.95,34.03 0.56,-0.16 1.12,-0.29 1.68,-0.4 -1.82,-9.71 -3.36,-19.25 -4.67,-28.45 -0.17,-1.22 -0.34,-2.42 -0.51,-3.62 -0.48,-0.54 -0.97,-1.06 -1.45,-1.56"
       style="fill:#e7c3bd;fill-opacity:1;fill-rule:nonzero;stroke:none;stroke-width:0.1"
       id="path208" /><path
       d="m 3300.78,1488.09 c -0.28,16.45 -2.01,32.8 -5.74,48.49 -5.54,23.35 -20.1,43.63 -39.63,60.27 0.69,2.74 1.36,5.42 2.02,8.05 18.52,-16.31 32.26,-35.99 37.61,-58.53 4.47,-18.81 6.09,-38.56 5.74,-58.28"
       style="fill:#aff1ff;fill-opacity:1;fill-rule:nonzero;stroke:none;stroke-width:0.1"
       id="path210" /><path
       d="m 3227.99,1616.13 c -11.79,6.87 -24.44,12.73 -37.4,17.48 -0.5,0.99 -1.07,1.94 -1.71,2.86 -3.47,4.94 -8.66,8.23 -14.6,9.27 -1.32,0.23 -2.65,0.35 -3.96,0.35 -4.02,0 -7.94,-1.08 -11.43,-3.15 -12.6,2.82 -25.09,4.57 -36.98,5.18 -2.05,2.08 -4.39,3.91 -6.99,5.48 0.45,1.54 0.88,3.03 1.32,4.51 36.31,-0.75 79.04,-12.6 113.89,-33.45 -0.69,-2.77 -1.41,-5.62 -2.14,-8.53"
       style="fill:#b3d0ff;fill-opacity:1;fill-rule:nonzero;stroke:none;stroke-width:0.1"
       id="path212" /><path
       d="m 3255.41,1596.85 c -8.33,7.11 -17.58,13.55 -27.42,19.28 0.73,2.91 1.45,5.76 2.14,8.53 9.84,-5.88 19.04,-12.48 27.3,-19.76 -0.66,-2.63 -1.33,-5.31 -2.02,-8.05 m -140.49,56.75 c -3.01,1.82 -6.37,3.29 -10.06,4.37 2.53,0.12 5.09,0.18 7.7,0.18 1.22,0 2.44,-0.01 3.68,-0.04 -0.44,-1.48 -0.87,-2.97 -1.32,-4.51"
       style="fill:#b099c8;fill-opacity:1;fill-rule:nonzero;stroke:none;stroke-width:0.1"
       id="path214" /><path
       d="m 3182.46,1636.44 c -5.05,1.66 -10.14,3.16 -15.22,4.48 1.02,0.18 2.05,0.28 3.1,0.28 1.03,0 2.06,-0.09 3.1,-0.27 3.43,-0.6 6.53,-2.16 9.02,-4.49"
       style="fill:#b7a9a7;fill-opacity:1;fill-rule:nonzero;stroke:none;stroke-width:0.1"
       id="path216" /><path
       d="m 3190.59,1633.61 c -2.7,1 -5.41,1.93 -8.13,2.83 -2.49,2.33 -5.59,3.89 -9.02,4.49 -1.04,0.18 -2.07,0.27 -3.1,0.27 -1.05,0 -2.08,-0.1 -3.1,-0.28 -2.79,0.73 -5.57,1.4 -8.35,2.02 3.49,2.07 7.41,3.15 11.43,3.15 1.31,0 2.64,-0.12 3.96,-0.35 5.94,-1.04 11.13,-4.33 14.6,-9.27 0.64,-0.92 1.21,-1.87 1.71,-2.86"
       style="fill:#b099c8;fill-opacity:1;fill-rule:nonzero;stroke:none;stroke-width:0.1"
       id="path218" /><path
       d="m 2994.06,1432.29 c 0.04,0.75 0.09,1.5 0.15,2.25 0.78,10.45 1.88,22.25 3.42,34.94 0.48,0.5 0.97,1.02 1.45,1.56 -1.6,-11.64 -2.82,-22.68 -3.75,-32.82 -0.18,-1.95 -0.35,-3.88 -0.52,-5.77 -0.25,-0.06 -0.5,-0.11 -0.75,-0.16 m 50.42,199.81 c 10.56,16.3 33.02,24.59 60.38,25.87 3.69,-1.08 7.05,-2.55 10.06,-4.37 2.6,-1.57 4.94,-3.4 6.99,-5.48 -3.17,0.17 -6.3,0.25 -9.37,0.25 -24.03,0 -44.95,-5.01 -58.47,-15.64 -3.22,-0.12 -6.42,-0.33 -9.59,-0.63"
       style="fill:#b099c8;fill-opacity:1;fill-rule:nonzero;stroke:none;stroke-width:0.1"
       id="path220" /><path
       d="m 2994.11,1423.33 c 0,0.03 0,0.06 -0.01,0.09 0.03,0.45 0.06,0.9 0.1,1.36 0.18,2.48 0.39,5.04 0.61,7.67 0.17,1.89 0.34,3.82 0.52,5.77 -0.43,-4.69 -0.8,-9.18 -1.12,-13.46 -0.04,-0.47 -0.07,-0.95 -0.1,-1.43 m 11.1,43.05 c -2.01,3.45 -3.77,7.05 -5.25,10.76 -0.13,-0.83 -0.25,-1.66 -0.37,-2.48 1.31,9.2 2.85,18.74 4.67,28.45 7.45,39.92 19.5,82.73 38.98,117.2 2.7,4.77 6.36,8.9 10.83,12.42 13.52,10.63 34.44,15.64 58.47,15.64 3.07,0 6.2,-0.08 9.37,-0.25 11.89,-0.61 24.38,-2.36 36.98,-5.18 2.78,-0.62 5.56,-1.29 8.35,-2.02 5.08,-1.32 10.17,-2.82 15.22,-4.48 2.72,-0.9 5.43,-1.83 8.13,-2.83 12.96,-4.75 25.61,-10.61 37.4,-17.48 9.84,-5.73 19.09,-12.17 27.42,-19.28 19.53,-16.64 34.09,-36.92 39.63,-60.27 3.73,-15.69 5.46,-32.04 5.74,-48.49 0,-0.14 0,-0.27 -0.01,-0.41 -0.2,12.72 -1.27,25.38 -3.46,37.73 -1.13,-8.19 -2.51,-16.23 -4.05,-24.05 -20.71,65.57 -113.01,105.31 -180.7,105.31 -31.98,0 -58.45,-8.86 -69.3,-28.07 -18.69,-33.05 -30.54,-73.75 -38.05,-112.22"
       style="fill:#ffd5b8;fill-opacity:1;fill-rule:nonzero;stroke:none;stroke-width:0.1"
       id="path222" /><path
       d="m 3269.51,1336.69 c 4.16,6.43 7.51,13.51 9.88,21.12 7.09,22.72 14.38,51.11 18.37,81.28 -3.98,-30.17 -11.28,-58.58 -18.36,-81.29 -2.37,-7.6 -5.73,-14.69 -9.89,-21.11"
       style="fill:#3899d5;fill-opacity:1;fill-rule:nonzero;stroke:none;stroke-width:0.1"
       id="path224" /><path
       d="m 3013.92,1364.67 c -0.62,0.71 -1.22,1.44 -1.8,2.17 0.59,-0.73 1.18,-1.46 1.8,-2.17 v 0"
       style="fill:#390075;fill-opacity:1;fill-rule:nonzero;stroke:none;stroke-width:0.1"
       id="path226" /><path
       d="m 3151.87,1302.27 c -50.79,7.92 -92.01,28.59 -119.84,46.57 -1.84,1.19 -3.62,2.44 -5.34,3.76 0,0 0,0 0,0.01 1.72,-1.32 3.5,-2.57 5.34,-3.76 27.84,-17.98 69.07,-38.65 119.84,-46.58 v 0"
       style="fill:#3c43b8;fill-opacity:1;fill-rule:nonzero;stroke:none;stroke-width:0.1"
       id="path228" /><path
       d="m 3159.15,1301.23 c -2.45,0.31 -4.87,0.66 -7.28,1.04 v 0 c 2.41,-0.38 4.83,-0.72 7.28,-1.04 m -132.46,51.37 c -4.72,3.59 -8.99,7.65 -12.77,12.07 v 0 c 3.78,-4.42 8.05,-8.47 12.77,-12.06 0,-0.01 0,-0.01 0,-0.01"
       style="fill:#390075;fill-opacity:1;fill-rule:nonzero;stroke:none;stroke-width:0.1"
       id="path230" /><path
       d="m 3194.59,1298.94 c -12.24,0 -24.07,0.82 -35.44,2.29 -2.45,0.32 -4.87,0.66 -7.28,1.04 -50.77,7.93 -92,28.6 -119.84,46.58 -1.84,1.19 -3.62,2.44 -5.34,3.76 -4.72,3.59 -8.99,7.64 -12.77,12.06 -0.62,0.71 -1.21,1.44 -1.8,2.17 -12.59,15.76 -19.22,35.8 -18.01,56.49 0.31,-5.18 1.13,-10.28 2.4,-15.23 1.91,17.78 4.68,37.71 8.7,58.28 6.48,-11.17 15.59,-20.86 26.82,-28.12 35.29,-22.8 92.13,-49.93 162.69,-49.93 3.27,0 6.56,0.05 9.89,0.17 34.26,1.25 64.23,24.84 74.79,58.72 4.91,15.75 9.93,34.23 13.86,54.14 0.67,-2.12 1.27,-4.28 1.78,-6.46 2.23,-9.27 3.72,-18.78 4.62,-28.4 0.6,7.02 0.98,14.1 1.11,21.18 0.26,-16.31 -0.91,-32.69 -3.01,-48.59 -3.99,-30.17 -11.28,-58.56 -18.37,-81.28 -2.37,-7.61 -5.72,-14.69 -9.88,-21.12 -14.35,-22.2 -38.33,-36.59 -64.9,-37.57 -3.37,-0.12 -6.71,-0.18 -10.02,-0.18"
       style="fill:#c36859;fill-opacity:1;fill-rule:nonzero;stroke:none;stroke-width:0.1"
       id="path232" /><path
       d="m 2999.08,1471.04 c 0.17,1.2 0.34,2.4 0.51,3.62 -0.17,-1.21 -0.34,-2.42 -0.5,-3.62 0,0 0,0 -0.01,0"
       style="fill:#b288a7;fill-opacity:1;fill-rule:nonzero;stroke:none;stroke-width:0.1"
       id="path234" /><path
       d="m 2995.33,1438.22 c 0.93,10.14 2.15,21.18 3.75,32.82 0.01,0 0.01,0 0.01,0 -1.59,-11.63 -2.82,-22.68 -3.76,-32.82"
       style="fill:#8c6baf;fill-opacity:1;fill-rule:nonzero;stroke:none;stroke-width:0.1"
       id="path236" /><path
       d="m 2996.51,1408.1 c -1.27,4.95 -2.09,10.05 -2.4,15.23 0.03,0.48 0.06,0.96 0.1,1.43 0.32,4.28 0.69,8.77 1.12,13.46 0.94,10.14 2.17,21.19 3.76,32.82 0.16,1.2 0.33,2.41 0.5,3.62 0.12,0.82 0.24,1.65 0.37,2.48 1.48,-3.71 3.24,-7.31 5.25,-10.76 -4.02,-20.57 -6.79,-40.5 -8.7,-58.28 m 303.15,58.4 c -0.9,9.62 -2.39,19.13 -4.62,28.4 -0.51,2.18 -1.11,4.34 -1.78,6.46 1.54,7.82 2.92,15.86 4.05,24.05 2.19,-12.35 3.26,-25.01 3.46,-37.73 -0.13,-7.08 -0.51,-14.16 -1.11,-21.18"
       style="fill:#c395a4;fill-opacity:1;fill-rule:nonzero;stroke:none;stroke-width:0.1"
       id="path238" /><path
       d="m 3112.39,1632.74 c -27.49,0 -48.22,-7.21 -55.53,-20.13 -32.9,-58.2 -43.61,-143.41 -47.07,-189.01 -1.85,-24.56 9.92,-48.16 30.74,-61.6 35.55,-22.97 92.64,-49.73 163.5,-47.25 27.55,1 51.84,20.18 60.43,47.71 14.46,46.39 28.87,113.61 15.35,170.51 -12.55,52.86 -80.7,89.24 -141.53,97.85 -9.11,1.29 -17.79,1.92 -25.89,1.92 z m 82.2,-349.45 c -73.95,0 -133.48,28.16 -171.05,52.42 -30.45,19.66 -47.67,54.25 -44.95,90.25 4.47,58.89 16.94,141.74 51.04,202.05 16.32,28.88 58.59,41.53 113.04,33.8 69.13,-9.79 151.07,-52.03 167.59,-121.61 15.15,-63.79 -0.3,-136.93 -15.93,-187.05 -12.54,-40.19 -48.37,-68.19 -89.16,-69.67 -3.55,-0.13 -7.09,-0.19 -10.58,-0.19"
       style="fill:#390075;fill-opacity:1;fill-rule:nonzero;stroke:none;stroke-width:0.1"
       id="path240" /><path
       d="m 1211.94,1710.66 c 1.26,7.7 3.31,14.31 6.19,21.21 2.9,6.78 6.7,13.36 11.55,19.46 4.77,6.17 10.93,11.59 17.89,15.95 6.93,4.61 14.91,7.25 22.95,9.36 8.43,2.21 17.04,-2.82 19.25,-11.25 2.21,-8.42 -2.83,-17.04 -11.25,-19.24 -1.03,-0.28 -2.07,-0.44 -3.1,-0.5 l -0.84,-0.04 c -4.93,-0.25 -10.08,-0.5 -14.8,-2.36 -4.8,-1.65 -9.56,-4.09 -13.82,-7.63 -4.31,-3.45 -8.31,-7.7 -11.78,-12.53 -3.42,-4.73 -6.56,-10.43 -8.64,-15.54 l -0.27,-0.65 c -1.45,-3.57 -5.52,-5.28 -9.09,-3.83 -3.07,1.25 -4.76,4.45 -4.24,7.59"
       style="fill:#390075;fill-opacity:1;fill-rule:nonzero;stroke:none;stroke-width:0.1"
       id="path242" /><path
       d="m 1455.53,1578.75 c -1.46,9.43 -2.31,18.8 -2.83,28.32 -0.47,9.5 -0.59,19.09 -0.05,28.78 1.19,19.33 4.09,39.31 14.17,59.29 l 0.07,0.14 c 3.92,7.77 13.41,10.89 21.18,6.97 7.78,-3.92 10.9,-13.4 6.98,-21.18 -0.57,-1.13 -1.31,-2.22 -2.09,-3.14 -4.89,-5.72 -9.21,-12.77 -12.92,-20.43 -3.65,-7.73 -6.59,-16.09 -9.15,-24.67 -2.53,-8.6 -4.49,-17.49 -6.13,-26.49 -1.59,-8.98 -2.87,-18.18 -3.56,-27.28 l -0.01,-0.09 c -0.12,-1.57 -1.49,-2.75 -3.06,-2.63 -1.35,0.1 -2.41,1.13 -2.6,2.41"
       style="fill:#390075;fill-opacity:1;fill-rule:nonzero;stroke:none;stroke-width:0.1"
       id="path244" /><path
       d="m 1779.66,1563.2 c -1.59,13.71 -4.01,27.41 -7.06,40.7 -3.07,13.27 -6.94,26.26 -11.89,38.04 -3.4,8.07 0.39,17.36 8.46,20.76 8.07,3.39 17.37,-0.4 20.76,-8.47 0.64,-1.52 1.03,-3.09 1.18,-4.66 l 0.02,-0.31 c 1.36,-15.18 1.02,-29.74 -0.09,-44.06 -1.16,-14.33 -3.02,-28.34 -5.71,-42.29 -0.29,-1.55 -1.8,-2.57 -3.35,-2.27 -1.26,0.24 -2.17,1.27 -2.31,2.48 l -0.01,0.08"
       style="fill:#390075;fill-opacity:1;fill-rule:nonzero;stroke:none;stroke-width:0.1"
       id="path246" /><path
       d="m 2530.15,1577.73 c -2.29,8.58 -5.31,17.16 -8.67,25.4 -3.39,8.26 -7.26,16.26 -11.53,23.89 -4.19,7.69 -9.12,14.82 -14.26,21.51 -5.17,6.69 -11.04,12.51 -17.01,17.78 l -0.22,0.2 c -6.53,5.76 -7.14,15.72 -1.38,22.25 5.76,6.53 15.73,7.15 22.26,1.38 0.91,-0.8 1.75,-1.76 2.43,-2.71 5.97,-8.44 11.2,-17.09 15.26,-26.09 4.03,-9 7.5,-18.06 10.02,-27.29 2.6,-9.2 4.62,-18.44 6.08,-27.7 1.43,-9.3 2.4,-18.5 2.66,-27.93 0.04,-1.58 -1.2,-2.89 -2.78,-2.93 -1.34,-0.04 -2.5,0.87 -2.83,2.11 l -0.03,0.13"
       style="fill:#390075;fill-opacity:1;fill-rule:nonzero;stroke:none;stroke-width:0.1"
       id="path248" /><path
       d="m 2870.02,1723.46 c -1.37,8.14 -4.11,16.39 -7.64,23.83 -3.56,7.47 -8.13,14.27 -13.44,20.06 -2.5,3.02 -5.6,5.46 -8.43,7.99 -3.17,2.2 -6.07,4.57 -9.5,6.23 -6.42,3.85 -13.72,5.99 -20.81,7.89 l -0.65,0.17 c -8.43,2.26 -13.42,10.93 -11.16,19.35 2.25,8.43 10.92,13.42 19.34,11.16 1.21,-0.32 2.41,-0.82 3.46,-1.38 8.97,-4.89 17.66,-10.23 24.91,-17.4 3.81,-3.29 6.94,-7.3 10.14,-11.08 2.84,-4.1 5.78,-8.06 7.93,-12.45 4.63,-8.58 7.83,-17.64 9.7,-26.79 1.82,-9.2 2.55,-18.26 1.83,-27.58 -0.12,-1.57 -1.48,-2.74 -3.05,-2.62 -1.32,0.1 -2.37,1.1 -2.58,2.36 l -0.05,0.26"
       style="fill:#390075;fill-opacity:1;fill-rule:nonzero;stroke:none;stroke-width:0.1"
       id="path250" /><path
       d="m 2605.13,1627.59 c -0.75,6.4 -2.14,12.9 -3.93,19.03 -1.79,6.16 -4.12,12.07 -7.08,17.26 -2.97,5.13 -6.39,9.81 -10.4,12.62 -3.98,2.87 -8.08,4.05 -12.13,4.36 -7.65,0.57 -13.38,7.24 -12.81,14.89 0.58,7.65 7.25,13.39 14.9,12.81 1.36,-0.1 2.67,-0.4 3.89,-0.86 l 0.83,-0.32 c 8.78,-3.39 16.36,-9.28 21.41,-16.21 5.16,-6.92 7.68,-14.46 9.47,-21.66 1.73,-7.26 2.36,-14.4 2.39,-21.41 0.02,-7.03 -0.45,-13.85 -1.58,-20.74 -0.22,-1.37 -1.5,-2.29 -2.87,-2.07 -1.12,0.19 -1.95,1.09 -2.08,2.17 l -0.01,0.13"
       style="fill:#390075;fill-opacity:1;fill-rule:nonzero;stroke:none;stroke-width:0.1"
       id="path252" /><path
       d="m 2234.84,2104.43 c 6.41,-93.1 71.37,-155.44 145.08,-139.23 73.71,16.2 128.27,104.8 121.86,197.9 -6.41,93.1 -71.36,155.44 -145.08,139.23 -73.71,-16.2 -128.27,-104.8 -121.86,-197.9"
       style="fill:#000072;fill-opacity:1;fill-rule:nonzero;stroke:none;stroke-width:0.1"
       id="path254" /><path
       d="m 2293.25,2179.18 c -5.01,-32.36 6.84,-60.06 26.47,-61.88 19.63,-1.81 39.6,22.95 44.61,55.31 5.01,32.35 -6.84,60.06 -26.47,61.87 -19.63,1.81 -39.6,-22.95 -44.61,-55.3"
       style="fill:#ffffff;fill-opacity:1;fill-rule:nonzero;stroke:none;stroke-width:0.1"
       id="path256" /><path
       d="m 2405.23,2078.37 c -1.67,-16.3 4.94,-29.98 14.76,-30.55 9.82,-0.57 19.13,12.18 20.79,28.48 1.67,16.31 -4.94,29.99 -14.76,30.56 -9.82,0.57 -19.13,-12.18 -20.79,-28.49"
       style="fill:#ffffff;fill-opacity:1;fill-rule:nonzero;stroke:none;stroke-width:0.1"
       id="path258" /><path
       d="m 1774.39,2434.2 c -3.7,0 -7.33,2.44 -8.23,6.64 -7.44,34.53 6.89,55.97 17.29,66.44 1.71,1.72 3.86,2.52 5.96,2.52 3.51,0 6.92,-2.22 8.04,-6.1 4.09,-14.18 6.36,-39.87 -16.74,-66.58 -1.73,-2 -4.04,-2.92 -6.32,-2.92"
       style="fill:#ffdfc9;fill-opacity:1;fill-rule:nonzero;stroke:none;stroke-width:0.1"
       id="path260" /><path
       d="m 2271.87,2441.56 c -2.66,0 -5.34,1.24 -7.02,3.83 -19.26,29.61 -13.51,54.74 -7.53,68.23 1.46,3.3 4.54,5.03 7.65,5.03 2.48,0 4.98,-1.1 6.7,-3.38 8.88,-11.79 20.16,-34.98 8.1,-68.17 -1.31,-3.62 -4.59,-5.54 -7.9,-5.54"
       style="fill:#ffdfc9;fill-opacity:1;fill-rule:nonzero;stroke:none;stroke-width:0.1"
       id="path262" /><path
       d="m 1932.5,2385.46 c -3.4,0 -6.77,2.04 -8,5.81 -10.97,33.56 1.05,56.37 10.31,67.87 1.73,2.15 4.14,3.17 6.53,3.17 3.21,0 6.36,-1.85 7.76,-5.28 5.54,-13.68 10.47,-38.99 -9.73,-67.96 -1.71,-2.45 -4.3,-3.61 -6.87,-3.61"
       style="fill:#ffdfc9;fill-opacity:1;fill-rule:nonzero;stroke:none;stroke-width:0.1"
       id="path264" /><path
       d="m 2154.16,2382.21 c -2.67,0.01 -5.37,1.26 -7.05,3.88 -19.06,29.73 -13.16,54.83 -7.1,68.28 1.48,3.27 4.54,4.99 7.64,4.99 2.49,0 5,-1.12 6.73,-3.43 8.8,-11.84 19.94,-35.1 7.67,-68.22 -1.33,-3.59 -4.6,-5.5 -7.89,-5.5"
       style="fill:#ffdfc9;fill-opacity:1;fill-rule:nonzero;stroke:none;stroke-width:0.1"
       id="path266" /><path
       d="m 1574.77,2104.43 c 6.41,-93.1 71.36,-155.44 145.07,-139.23 73.72,16.2 128.28,104.8 121.87,197.9 -6.42,93.1 -71.37,155.44 -145.08,139.23 -73.71,-16.2 -128.27,-104.8 -121.86,-197.9"
       style="fill:#000072;fill-opacity:1;fill-rule:nonzero;stroke:none;stroke-width:0.1"
       id="path268" /><path
       d="m 1633.18,2179.18 c -5.01,-32.36 6.84,-60.06 26.47,-61.88 19.62,-1.81 39.6,22.95 44.6,55.31 5.01,32.35 -6.84,60.06 -26.47,61.87 -19.62,1.81 -39.59,-22.95 -44.6,-55.3"
       style="fill:#ffffff;fill-opacity:1;fill-rule:nonzero;stroke:none;stroke-width:0.1"
       id="path270" /><path
       d="m 1745.15,2078.37 c -1.66,-16.3 4.95,-29.98 14.77,-30.55 9.81,-0.57 19.12,12.18 20.79,28.48 1.67,16.31 -4.94,29.99 -14.76,30.56 -9.82,0.57 -19.13,-12.18 -20.8,-28.49"
       style="fill:#ffffff;fill-opacity:1;fill-rule:nonzero;stroke:none;stroke-width:0.1"
       id="path272" /></g></svg>
